SplineFontDB: 3.0
FontName: Magra
FullName: Magra
FamilyName: Magra
Weight: Book
Copyright: Copyright (c) 2011, FontFuror (info@fontfuror), with Reserved Names "Magra" "Magra Pro"
Version: 1.001
ItalicAngle: 0
UnderlinePosition: -50
UnderlineWidth: 50
Ascent: 800
Descent: 200
sfntRevision: 0x00010042
LayerCount: 2
Layer: 0 1 "Back"  1
Layer: 1 1 "Fore"  0
XUID: [1021 484 1961612613 445177]
FSType: 0
OS2Version: 2
OS2_WeightWidthSlopeOnly: 0
OS2_UseTypoMetrics: 1
CreationTime: 1325881558
ModificationTime: 1325881674
PfmFamily: 17
TTFWeight: 400
TTFWidth: 5
LineGap: 0
VLineGap: 0
Panose: 2 0 0 0 0 0 0 0 0 0
OS2TypoAscent: 168
OS2TypoAOffset: 1
OS2TypoDescent: -47
OS2TypoDOffset: 1
OS2TypoLinegap: 0
OS2WinAscent: 27
OS2WinAOffset: 1
OS2WinDescent: 0
OS2WinDOffset: 1
HheadAscent: 27
HheadAOffset: 1
HheadDescent: 0
HheadDOffset: 1
OS2SubXSize: 700
OS2SubYSize: 650
OS2SubXOff: 0
OS2SubYOff: 140
OS2SupXSize: 700
OS2SupYSize: 650
OS2SupXOff: 0
OS2SupYOff: 477
OS2StrikeYSize: 50
OS2StrikeYPos: 250
OS2Vendor: 'pyrs'
OS2CodePages: 00000001.00000000
OS2UnicodeRanges: 0000002f.00000000.00000000.00000000
DEI: 91125
TtTable: prep
PUSHW_1
 511
SCANCTRL
PUSHB_1
 4
SCANTYPE
EndTTInstrs
ShortTable: maxp 16
  1
  0
  428
  81
  7
  0
  0
  2
  0
  1
  1
  0
  64
  0
  0
  0
EndShort
LangName: 1033 "" "" "Regular" "VivianaMonsalve: Magra: 2011" "" "Version 1.001" "" "Magra is a trademark of Viviana Monsalve." "Viviana Monsalve" "Viviana Monsalve" "" "http://www.fontfuror.com" "http://www.fontfuror.com" "This Font Software is licensed under the SIL Open Font License, Version 1.1. This license is available with a FAQ at: http://scripts.sil.org/OFL" "http://scripts.sil.org/OFL" 
GaspTable: 1 65535 15 1
Encoding: UnicodeBmp
UnicodeInterp: none
NameList: Adobe Glyph List
DisplaySize: -24
AntiAlias: 1
FitToEm: 1
BeginChars: 65568 428

StartChar: .notdef
Encoding: 65536 -1 0
Width: 637
Flags: W
LayerCount: 2
Fore
SplineSet
537 760 m 1,0,-1
 537 0 l 1,1,-1
 99 0 l 1,2,-1
 99 760 l 1,3,-1
 537 760 l 1,0,-1
179 690 m 1,4,-1
 179 70 l 1,5,-1
 456 70 l 1,6,-1
 456 690 l 1,7,-1
 179 690 l 1,4,-1
EndSplineSet
EndChar

StartChar: exclam
Encoding: 33 33 4
Width: 260
GlyphClass: 2
Flags: W
LayerCount: 2
Fore
SplineSet
187 711 m 1,0,-1
 170 203 l 1,1,-1
 100 193 l 1,2,-1
 83 701 l 1,3,-1
 187 711 l 1,0,-1
139 117 m 0,4,5
 200 117 200 117 200 49 c 0,6,7
 200 24 200 24 183.5 6 c 128,-1,8
 167 -12 167 -12 132 -12 c 0,9,10
 71 -12 71 -12 71 56 c 0,11,12
 71 81 71 81 87.5 99 c 128,-1,13
 104 117 104 117 139 117 c 0,4,5
EndSplineSet
EndChar

StartChar: quotedbl
Encoding: 34 34 5
Width: 359
GlyphClass: 2
Flags: W
LayerCount: 2
Fore
SplineSet
65 754 m 1,0,-1
 147 754 l 1,1,-1
 147 668 l 1,2,-1
 137 515 l 1,3,-1
 75 515 l 1,4,-1
 65 668 l 1,5,-1
 65 754 l 1,0,-1
212 754 m 1,6,-1
 294 754 l 1,7,-1
 294 668 l 1,8,-1
 284 515 l 1,9,-1
 222 515 l 1,10,-1
 212 668 l 1,11,-1
 212 754 l 1,6,-1
EndSplineSet
EndChar

StartChar: numbersign
Encoding: 35 35 6
Width: 603
GlyphClass: 2
Flags: W
LayerCount: 2
Fore
SplineSet
464 627 m 1,0,-1
 440 471 l 1,1,-1
 558 471 l 1,2,-1
 547 400 l 1,3,-1
 430 400 l 1,4,-1
 413 286 l 1,5,-1
 527 286 l 1,6,-1
 516 216 l 1,7,-1
 402 216 l 1,8,-1
 381 72 l 1,9,-1
 309 62 l 1,10,-1
 332 216 l 1,11,-1
 216 216 l 1,12,-1
 195 72 l 1,13,-1
 123 62 l 1,14,-1
 146 216 l 1,15,-1
 30 216 l 1,16,-1
 41 286 l 1,17,-1
 156 286 l 1,18,-1
 173 400 l 1,19,-1
 60 400 l 1,20,-1
 71 471 l 1,21,-1
 184 471 l 1,22,-1
 206 617 l 1,23,-1
 278 627 l 1,24,-1
 254 471 l 1,25,-1
 370 471 l 1,26,-1
 392 617 l 1,27,-1
 464 627 l 1,0,-1
244 400 m 1,28,-1
 227 286 l 1,29,-1
 342 286 l 1,30,-1
 359 400 l 1,31,-1
 244 400 l 1,28,-1
EndSplineSet
EndChar

StartChar: dollar
Encoding: 36 36 7
Width: 453
GlyphClass: 2
Flags: W
LayerCount: 2
Fore
SplineSet
388 495 m 1,0,1
 306 533 306 533 252 533 c 128,-1,2
 198 533 198 533 178 512.5 c 128,-1,3
 158 492 158 492 158 463 c 0,4,5
 158 443 158 443 169 432 c 2,6,-1
 186 416 l 1,7,8
 196 405 196 405 214 397 c 0,9,10
 259 376 259 376 277 367 c 0,11,12
 333 340 333 340 364.5 309 c 128,-1,13
 396 278 396 278 396 222 c 128,-1,14
 396 166 396 166 352.5 122 c 128,-1,15
 309 78 309 78 236 66 c 1,16,-1
 236 -66 l 1,17,-1
 154 -76 l 1,18,-1
 174 63 l 1,19,20
 99 67 99 67 24 109 c 1,21,-1
 61 186 l 1,22,23
 142 144 142 144 207 144 c 0,24,25
 250 144 250 144 276 163 c 128,-1,26
 302 182 302 182 302 219 c 0,27,28
 302 261 302 261 232 292 c 0,29,30
 223 296 223 296 195.5 308 c 128,-1,31
 168 320 168 320 150 329.5 c 128,-1,32
 132 339 132 339 109 356 c 0,33,34
 64 391 64 391 64 452 c 128,-1,35
 64 513 64 513 107.5 558.5 c 128,-1,36
 151 604 151 604 233 611 c 1,37,-1
 233 736 l 1,38,-1
 315 746 l 1,39,-1
 292 610 l 1,40,41
 353 605 353 605 424 572 c 1,42,-1
 388 495 l 1,0,1
EndSplineSet
EndChar

StartChar: percent
Encoding: 37 37 8
Width: 752
GlyphClass: 2
Flags: W
LayerCount: 2
Fore
SplineSet
196 712 m 0,0,1
 243 712 243 712 277 694 c 128,-1,2
 311 676 311 676 327 648 c 0,3,4
 356 596 356 596 356 546 c 0,5,6
 356 461 356 461 309.5 411.5 c 128,-1,7
 263 362 263 362 190 362 c 0,8,9
 143 362 143 362 109 380 c 128,-1,10
 75 398 75 398 59 426 c 0,11,12
 30 478 30 478 30 528 c 0,13,14
 30 613 30 613 76.5 662.5 c 128,-1,15
 123 712 123 712 196 712 c 0,0,1
260.5 619 m 128,-1,17
 237 649 237 649 192.5 649 c 128,-1,18
 148 649 148 649 125 616.5 c 128,-1,19
 102 584 102 584 102 534.5 c 128,-1,20
 102 485 102 485 125.5 455 c 128,-1,21
 149 425 149 425 193.5 425 c 128,-1,22
 238 425 238 425 261 457.5 c 128,-1,23
 284 490 284 490 284 539.5 c 128,-1,16
 284 589 284 589 260.5 619 c 128,-1,17
562 338 m 0,24,25
 609 338 609 338 643 320 c 128,-1,26
 677 302 677 302 693 274 c 0,27,28
 722 222 722 222 722 172 c 0,29,30
 722 87 722 87 675.5 37.5 c 128,-1,31
 629 -12 629 -12 556 -12 c 0,32,33
 509 -12 509 -12 475 6 c 128,-1,34
 441 24 441 24 425 52 c 0,35,36
 396 104 396 104 396 154 c 0,37,38
 396 239 396 239 442.5 288.5 c 128,-1,39
 489 338 489 338 562 338 c 0,24,25
626.5 245 m 128,-1,41
 603 275 603 275 558.5 275 c 128,-1,42
 514 275 514 275 491 242.5 c 128,-1,43
 468 210 468 210 468 160.5 c 128,-1,44
 468 111 468 111 491.5 81 c 128,-1,45
 515 51 515 51 559.5 51 c 128,-1,46
 604 51 604 51 627 83.5 c 128,-1,47
 650 116 650 116 650 165.5 c 128,-1,40
 650 215 650 215 626.5 245 c 128,-1,41
588 620 m 1,48,-1
 198 19 l 1,49,-1
 143 55 l 1,50,-1
 534 656 l 1,51,-1
 588 620 l 1,48,-1
EndSplineSet
EndChar

StartChar: ampersand
Encoding: 38 38 9
Width: 637
GlyphClass: 2
Flags: W
LayerCount: 2
Fore
SplineSet
315.5 578.5 m 128,-1,1
 291 597 291 597 251.5 597 c 128,-1,2
 212 597 212 597 184.5 577.5 c 128,-1,3
 157 558 157 558 157 511.5 c 128,-1,4
 157 465 157 465 195 433 c 128,-1,5
 233 401 233 401 319 377 c 1,6,-1
 311 310 l 1,7,-1
 268 305 l 2,8,9
 208 298 208 298 171.5 265 c 128,-1,10
 135 232 135 232 135 175.5 c 128,-1,11
 135 119 135 119 168 93 c 128,-1,12
 201 67 201 67 251 67 c 0,13,14
 331 67 331 67 366 125 c 1,15,-1
 366 377 l 1,16,-1
 448 377 l 1,17,-1
 537 382 l 1,18,-1
 528 319 l 1,19,-1
 450 307 l 1,20,-1
 450 131 l 2,21,22
 450 97 450 97 466 79.5 c 128,-1,23
 482 62 482 62 511 62 c 128,-1,24
 540 62 540 62 567 72 c 1,25,-1
 592 18 l 1,26,27
 552 -12 552 -12 486 -12 c 0,28,29
 450 -12 450 -12 422.5 5.5 c 128,-1,30
 395 23 395 23 388 52 c 1,31,-1
 384 52 l 1,32,33
 334 -12 334 -12 231 -12 c 0,34,35
 148 -12 148 -12 94.5 31.5 c 128,-1,36
 41 75 41 75 41 157 c 128,-1,37
 41 239 41 239 83 283 c 128,-1,38
 125 327 125 327 187 346 c 1,39,-1
 187 350 l 1,40,41
 68 394 68 394 68 503 c 0,42,43
 68 578 68 578 119.5 625 c 128,-1,44
 171 672 171 672 256 672 c 128,-1,45
 341 672 341 672 384 637 c 128,-1,46
 427 602 427 602 436 531 c 1,47,-1
 349 516 l 1,48,0
 340 560 340 560 315.5 578.5 c 128,-1,1
EndSplineSet
EndChar

StartChar: quotesingle
Encoding: 39 39 10
Width: 212
GlyphClass: 2
Flags: W
LayerCount: 2
Fore
SplineSet
65 754 m 1,0,-1
 147 754 l 1,1,-1
 147 668 l 1,2,-1
 137 515 l 1,3,-1
 75 515 l 1,4,-1
 65 668 l 1,5,-1
 65 754 l 1,0,-1
EndSplineSet
EndChar

StartChar: parenleft
Encoding: 40 40 11
Width: 312
GlyphClass: 2
Flags: W
LayerCount: 2
Fore
SplineSet
65 303 m 128,-1,1
 65 450 65 450 110.5 571 c 128,-1,2
 156 692 156 692 223 767 c 1,3,-1
 296 757 l 1,4,5
 161 561 161 561 161 303 c 128,-1,6
 161 45 161 45 296 -151 c 1,7,-1
 223 -161 l 1,8,9
 156 -86 156 -86 110.5 35 c 128,-1,0
 65 156 65 156 65 303 c 128,-1,1
EndSplineSet
EndChar

StartChar: parenright
Encoding: 41 41 12
Width: 312
GlyphClass: 2
Flags: W
LayerCount: 2
Fore
SplineSet
16 -152 m 1,0,1
 151 44 151 44 151 302 c 128,-1,2
 151 560 151 560 16 756 c 1,3,-1
 89 766 l 1,4,5
 157 689 157 689 202 573.5 c 128,-1,6
 247 458 247 458 247 311.5 c 128,-1,7
 247 165 247 165 201 38.5 c 128,-1,8
 155 -88 155 -88 89 -162 c 1,9,-1
 16 -152 l 1,0,1
EndSplineSet
EndChar

StartChar: asterisk
Encoding: 42 42 13
Width: 396
GlyphClass: 2
Flags: W
LayerCount: 2
Fore
SplineSet
338 423 m 1,0,-1
 237 477 l 1,1,-1
 222 517 l 1,2,-1
 264 524 l 1,3,-1
 356 467 l 1,4,-1
 338 423 l 1,0,-1
58 638 m 1,5,-1
 159 585 l 1,6,-1
 174 544 l 1,7,-1
 132 538 l 1,8,-1
 40 595 l 1,9,-1
 58 638 l 1,5,-1
361 598 m 1,10,-1
 264 538 l 1,11,-1
 222 544 l 1,12,-1
 237 585 l 1,13,-1
 333 636 l 1,14,-1
 361 598 l 1,10,-1
221 706 m 1,15,-1
 225 592 l 1,16,-1
 198 558 l 1,17,-1
 171 592 l 1,18,-1
 175 700 l 1,19,-1
 221 706 l 1,15,-1
175 356 m 1,20,-1
 171 470 l 1,21,-1
 198 503 l 1,22,-1
 225 470 l 1,23,-1
 221 362 l 1,24,-1
 175 356 l 1,20,-1
35 463 m 1,25,-1
 132 524 l 1,26,-1
 174 517 l 1,27,-1
 159 477 l 1,28,-1
 64 426 l 1,29,-1
 35 463 l 1,25,-1
EndSplineSet
EndChar

StartChar: plus
Encoding: 43 43 14
Width: 492
GlyphClass: 2
Flags: W
LayerCount: 2
Fore
SplineSet
209 313 m 1,0,-1
 209 469 l 1,1,-1
 284 482 l 1,2,-1
 284 313 l 1,3,-1
 452 313 l 1,4,-1
 440 238 l 1,5,-1
 284 238 l 1,6,-1
 284 82 l 1,7,-1
 209 69 l 1,8,-1
 209 238 l 1,9,-1
 40 238 l 1,10,-1
 52 313 l 1,11,-1
 209 313 l 1,0,-1
EndSplineSet
EndChar

StartChar: comma
Encoding: 44 44 15
Width: 214
GlyphClass: 2
Flags: W
LayerCount: 2
Fore
SplineSet
154 50 m 128,-1,1
 154 24 154 24 150.5 4.5 c 128,-1,2
 147 -15 147 -15 136 -42 c 0,3,4
 114 -97 114 -97 31 -147 c 1,5,-1
 -9 -97 l 1,6,7
 37 -55 37 -55 48.5 -30.5 c 128,-1,8
 60 -6 60 -6 60 33.5 c 128,-1,9
 60 73 60 73 57 104 c 1,10,-1
 151 118 l 1,11,0
 154 76 154 76 154 50 c 128,-1,1
EndSplineSet
EndChar

StartChar: hyphen
Encoding: 45 45 16
Width: 330
GlyphClass: 2
Flags: W
LayerCount: 2
Fore
SplineSet
285 290 m 1,0,-1
 285 215 l 1,1,-1
 45 215 l 1,2,-1
 45 290 l 1,3,-1
 285 290 l 1,0,-1
EndSplineSet
EndChar

StartChar: period
Encoding: 46 46 17
Width: 249
GlyphClass: 2
Flags: W
LayerCount: 2
Fore
SplineSet
121 -12 m 0,0,1
 60 -12 60 -12 60 56 c 0,2,3
 60 81 60 81 76.5 99 c 128,-1,4
 93 117 93 117 128 117 c 0,5,6
 189 117 189 117 189 49 c 0,7,8
 189 24 189 24 172.5 6 c 128,-1,9
 156 -12 156 -12 121 -12 c 0,0,1
EndSplineSet
EndChar

StartChar: slash
Encoding: 47 47 18
Width: 314
GlyphClass: 2
Flags: W
LayerCount: 2
Fore
SplineSet
221 750 m 1,0,-1
 300 750 l 1,1,-1
 98 -110 l 1,2,-1
 18 -110 l 1,3,-1
 221 750 l 1,0,-1
EndSplineSet
EndChar

StartChar: zero
Encoding: 48 48 19
Width: 576
GlyphClass: 2
Flags: W
LayerCount: 2
Fore
SplineSet
299 531 m 0,0,1
 356 531 356 531 400 512.5 c 128,-1,2
 444 494 444 494 469 466.5 c 128,-1,3
 494 439 494 439 510 402 c 0,4,5
 537 341 537 341 537 274 c 0,6,7
 537 146 537 146 467 70 c 128,-1,8
 397 -6 397 -6 279 -6 c 0,9,10
 225 -6 225 -6 181.5 12.5 c 128,-1,11
 138 31 138 31 112.5 59 c 128,-1,12
 87 87 87 87 70 123 c 0,13,14
 40 187 40 187 40 251 c 0,15,16
 40 378 40 378 112 454.5 c 128,-1,17
 184 531 184 531 299 531 c 0,0,1
406 400.5 m 128,-1,19
 368 451 368 451 288 451 c 128,-1,20
 208 451 208 451 172 395.5 c 128,-1,21
 136 340 136 340 136 258.5 c 128,-1,22
 136 177 136 177 176 125.5 c 128,-1,23
 216 74 216 74 292 74 c 0,24,25
 444 74 444 74 444 269 c 0,26,18
 444 350 444 350 406 400.5 c 128,-1,19
EndSplineSet
EndChar

StartChar: one
Encoding: 49 49 20
Width: 408
GlyphClass: 2
Flags: W
LayerCount: 2
Fore
SplineSet
378 0 m 1,0,-1
 64 0 l 1,1,-1
 64 65 l 1,2,-1
 182 75 l 1,3,-1
 182 335 l 1,4,-1
 190 416 l 1,5,-1
 187 417 l 1,6,-1
 147 388 l 1,7,-1
 72 350 l 1,8,-1
 42 407 l 1,9,-1
 164 492 l 1,10,-1
 208 530 l 1,11,-1
 280 522 l 1,12,-1
 272 384 l 1,13,-1
 272 75 l 1,14,-1
 378 65 l 1,15,-1
 378 0 l 1,0,-1
EndSplineSet
EndChar

StartChar: two
Encoding: 50 50 21
Width: 456
GlyphClass: 2
Flags: W
LayerCount: 2
Fore
SplineSet
53 491 m 1,0,1
 139 537 139 537 228 537 c 128,-1,2
 317 537 317 537 365.5 490.5 c 128,-1,3
 414 444 414 444 414 366 c 0,4,5
 414 252 414 252 267 153 c 0,6,7
 240 135 240 135 205 110 c 128,-1,8
 170 85 170 85 156 76 c 1,9,-1
 159 72 l 1,10,-1
 219 78 l 1,11,-1
 428 78 l 1,12,-1
 407 0 l 1,13,-1
 45 0 l 1,14,-1
 45 96 l 1,15,16
 138 164 138 164 179.5 196 c 128,-1,17
 221 228 221 228 258 262 c 128,-1,18
 295 296 295 296 305.5 317.5 c 128,-1,19
 316 339 316 339 316 365 c 0,20,21
 316 411 316 411 286 434 c 128,-1,22
 256 457 256 457 211.5 457 c 128,-1,23
 167 457 167 457 86 428 c 1,24,-1
 53 491 l 1,0,1
EndSplineSet
EndChar

StartChar: three
Encoding: 51 51 22
Width: 470
GlyphClass: 2
Flags: W
LayerCount: 2
Fore
SplineSet
327 60 m 0,0,1
 327 118 327 118 293 144 c 128,-1,2
 259 170 259 170 185 170 c 2,3,-1
 133 170 l 1,4,-1
 133 246 l 1,5,6
 139 246 139 246 145 246 c 0,7,8
 232 246 232 246 276 302 c 0,9,10
 301 333 301 333 301 363 c 128,-1,11
 301 393 301 393 279 425 c 128,-1,12
 257 457 257 457 187 457 c 0,13,14
 145 457 145 457 73 432 c 1,15,-1
 45 495 l 1,16,17
 126 537 126 537 215.5 537 c 128,-1,18
 305 537 305 537 350 495 c 128,-1,19
 395 453 395 453 395 386 c 0,20,21
 395 269 395 269 297 221 c 1,22,23
 354 206 354 206 388 164.5 c 128,-1,24
 422 123 422 123 422 58 c 0,25,26
 422 -39 422 -39 363 -93 c 128,-1,27
 304 -147 304 -147 199 -147 c 128,-1,28
 94 -147 94 -147 19 -94 c 1,29,-1
 48 -26 l 1,30,31
 139 -66 139 -66 214 -66 c 0,32,33
 327 -66 327 -66 327 60 c 0,0,1
EndSplineSet
EndChar

StartChar: four
Encoding: 52 52 23
Width: 540
GlyphClass: 2
Flags: W
LayerCount: 2
Fore
SplineSet
419 77 m 1,0,-1
 530 77 l 1,1,-1
 509 0 l 1,2,-1
 419 0 l 1,3,-1
 419 -138 l 1,4,-1
 329 -148 l 1,5,-1
 329 0 l 1,6,-1
 55 0 l 1,7,-1
 55 86 l 1,8,-1
 279 540 l 1,9,-1
 346 490 l 1,10,-1
 149 77 l 1,11,-1
 329 77 l 1,12,-1
 329 160 l 1,13,-1
 341 300 l 1,14,-1
 419 310 l 1,15,-1
 419 77 l 1,0,-1
EndSplineSet
EndChar

StartChar: five
Encoding: 53 53 24
Width: 489
GlyphClass: 2
Flags: W
LayerCount: 2
Fore
SplineSet
243 283 m 0,0,1
 340 283 340 283 393.5 233.5 c 128,-1,2
 447 184 447 184 447 78 c 128,-1,3
 447 -28 447 -28 381 -87.5 c 128,-1,4
 315 -147 315 -147 226 -147 c 0,5,6
 111 -147 111 -147 40 -97 c 1,7,-1
 68 -29 l 1,8,9
 154 -67 154 -67 217 -67 c 0,10,11
 351 -67 351 -67 351 77 c 0,12,13
 351 142 351 142 314 173.5 c 128,-1,14
 277 205 277 205 225.5 205 c 128,-1,15
 174 205 174 205 123 178 c 1,16,-1
 78 208 l 1,17,-1
 110 525 l 1,18,-1
 421 525 l 1,19,-1
 409 442 l 1,20,-1
 192 442 l 1,21,-1
 175 298 l 1,22,-1
 170 271 l 1,23,24
 203 283 203 283 243 283 c 0,0,1
EndSplineSet
EndChar

StartChar: six
Encoding: 54 54 25
Width: 519
GlyphClass: 2
Flags: W
LayerCount: 2
Fore
SplineSet
312 592 m 0,0,1
 233 592 233 592 191 526.5 c 128,-1,2
 149 461 149 461 147 366 c 1,3,4
 210 414 210 414 287 414 c 0,5,6
 397 414 397 414 445 349 c 0,7,8
 487 292 487 292 487 202 c 128,-1,9
 487 112 487 112 431.5 50 c 128,-1,10
 376 -12 376 -12 277 -12 c 0,11,12
 160 -12 160 -12 104 66.5 c 128,-1,13
 48 145 48 145 48 312.5 c 128,-1,14
 48 480 48 480 114 576 c 128,-1,15
 180 672 180 672 300 672 c 0,16,17
 375 672 375 672 456 636 c 1,18,-1
 427 571 l 1,19,20
 368 592 368 592 312 592 c 0,0,1
147 261 m 2,21,22
 147 171 147 171 180.5 119.5 c 128,-1,23
 214 68 214 68 273 68 c 128,-1,24
 332 68 332 68 361.5 107 c 128,-1,25
 391 146 391 146 391 207 c 0,26,27
 391 334 391 334 275 334 c 0,28,29
 193 334 193 334 147 281 c 1,30,-1
 147 261 l 2,21,22
EndSplineSet
EndChar

StartChar: seven
Encoding: 55 55 26
Width: 472
GlyphClass: 2
Flags: W
LayerCount: 2
Fore
SplineSet
440 428 m 1,0,1
 337 228 337 228 188 -146 c 1,2,-1
 99 -103 l 1,3,-1
 356 433 l 1,4,-1
 38 433 l 1,5,-1
 49 525 l 1,6,-1
 440 525 l 1,7,-1
 440 428 l 1,0,1
EndSplineSet
EndChar

StartChar: eight
Encoding: 56 56 27
Width: 521
GlyphClass: 2
Flags: W
LayerCount: 2
Fore
SplineSet
118.5 623 m 128,-1,1
 168 672 168 672 262.5 672 c 128,-1,2
 357 672 357 672 401.5 629.5 c 128,-1,3
 446 587 446 587 446 521 c 0,4,5
 446 413 446 413 346 365 c 1,6,7
 407 337 407 337 441.5 297 c 128,-1,8
 476 257 476 257 476 179.5 c 128,-1,9
 476 102 476 102 418 45 c 128,-1,10
 360 -12 360 -12 255.5 -12 c 128,-1,11
 151 -12 151 -12 98 33 c 128,-1,12
 45 78 45 78 45 154 c 128,-1,13
 45 230 45 230 76.5 271.5 c 128,-1,14
 108 313 108 313 166 344 c 1,15,16
 69 394 69 394 69 498 c 0,17,0
 69 574 69 574 118.5 623 c 128,-1,1
164 261 m 128,-1,19
 139 230 139 230 139 179 c 128,-1,20
 139 128 139 128 172 97.5 c 128,-1,21
 205 67 205 67 268 67 c 0,22,23
 382 67 382 67 382 185 c 0,24,25
 382 236 382 236 340 265 c 0,26,27
 308 287 308 287 238 313 c 1,28,18
 189 292 189 292 164 261 c 128,-1,19
253 601 m 128,-1,30
 205 601 205 601 182 580.5 c 128,-1,31
 159 560 159 560 159 513 c 128,-1,32
 159 466 159 466 189 441 c 128,-1,33
 219 416 219 416 278 393 c 1,34,35
 320 414 320 414 338 440.5 c 128,-1,36
 356 467 356 467 356 511.5 c 128,-1,37
 356 556 356 556 328.5 578.5 c 128,-1,29
 301 601 301 601 253 601 c 128,-1,30
EndSplineSet
EndChar

StartChar: nine
Encoding: 57 57 28
Width: 525
GlyphClass: 2
Flags: W
LayerCount: 2
Fore
SplineSet
98 476 m 128,-1,1
 156 537 156 537 265.5 537 c 128,-1,2
 375 537 375 537 425.5 459 c 128,-1,3
 476 381 476 381 476 217 c 128,-1,4
 476 53 476 53 410 -47 c 128,-1,5
 344 -147 344 -147 224 -147 c 0,6,7
 149 -147 149 -147 68 -111 c 1,8,-1
 97 -46 l 1,9,10
 156 -67 156 -67 214 -67 c 0,11,12
 289 -67 289 -67 332.5 0.5 c 128,-1,13
 376 68 376 68 378 163 c 1,14,15
 360 142 360 142 320 126.5 c 128,-1,16
 280 111 280 111 236 111 c 0,17,18
 140 111 140 111 90 165 c 128,-1,19
 40 219 40 219 40 317 c 128,-1,0
 40 415 40 415 98 476 c 128,-1,1
248 457 m 0,20,21
 136 457 136 457 136 316 c 0,22,23
 136 262 136 262 164.5 226.5 c 128,-1,24
 193 191 193 191 252 191 c 0,25,26
 334 191 334 191 377 244 c 1,27,-1
 377 269 l 2,28,29
 377 361 377 361 347 409 c 128,-1,30
 317 457 317 457 248 457 c 0,20,21
EndSplineSet
EndChar

StartChar: colon
Encoding: 58 58 29
Width: 249
GlyphClass: 2
Flags: W
LayerCount: 2
Fore
SplineSet
128 117 m 0,0,1
 189 117 189 117 189 49 c 0,2,3
 189 24 189 24 172.5 6 c 128,-1,4
 156 -12 156 -12 121 -12 c 0,5,6
 60 -12 60 -12 60 56 c 0,7,8
 60 81 60 81 76.5 99 c 128,-1,9
 93 117 93 117 128 117 c 0,0,1
128 498 m 0,10,11
 189 498 189 498 189 430 c 0,12,13
 189 405 189 405 172.5 387 c 128,-1,14
 156 369 156 369 121 369 c 0,15,16
 60 369 60 369 60 437 c 0,17,18
 60 462 60 462 76.5 480 c 128,-1,19
 93 498 93 498 128 498 c 0,10,11
EndSplineSet
EndChar

StartChar: semicolon
Encoding: 59 59 30
Width: 239
GlyphClass: 2
Flags: W
LayerCount: 2
Fore
SplineSet
114 498 m 0,0,1
 175 498 175 498 175 430 c 0,2,3
 175 405 175 405 158.5 387 c 128,-1,4
 142 369 142 369 107 369 c 0,5,6
 46 369 46 369 46 437 c 0,7,8
 46 462 46 462 62.5 480 c 128,-1,9
 79 498 79 498 114 498 c 0,0,1
164 50 m 128,-1,11
 164 24 164 24 160.5 4.5 c 128,-1,12
 157 -15 157 -15 146 -42 c 0,13,14
 124 -97 124 -97 41 -147 c 1,15,-1
 1 -97 l 1,16,17
 47 -55 47 -55 58.5 -30.5 c 128,-1,18
 70 -6 70 -6 70 33.5 c 128,-1,19
 70 73 70 73 67 104 c 1,20,-1
 161 118 l 1,21,10
 164 76 164 76 164 50 c 128,-1,11
EndSplineSet
EndChar

StartChar: less
Encoding: 60 60 31
Width: 498
GlyphClass: 2
Flags: W
LayerCount: 2
Fore
SplineSet
403 481 m 1,0,-1
 456 426 l 1,1,-1
 147 238 l 1,2,-1
 457 78 l 1,3,-1
 405 22 l 1,4,-1
 61 200 l 1,5,-1
 49 262 l 1,6,-1
 403 481 l 1,0,-1
EndSplineSet
EndChar

StartChar: equal
Encoding: 61 61 32
Width: 511
GlyphClass: 2
Flags: W
LayerCount: 2
Fore
SplineSet
471 238 m 1,0,-1
 460 163 l 1,1,-1
 40 163 l 1,2,-1
 51 238 l 1,3,-1
 471 238 l 1,0,-1
471 418 m 1,4,-1
 460 343 l 1,5,-1
 40 343 l 1,6,-1
 51 418 l 1,7,-1
 471 418 l 1,4,-1
EndSplineSet
EndChar

StartChar: greater
Encoding: 62 62 33
Width: 498
GlyphClass: 2
Flags: W
LayerCount: 2
Fore
SplineSet
103 481 m 1,0,-1
 457 262 l 1,1,-1
 445 200 l 1,2,-1
 101 22 l 1,3,-1
 49 78 l 1,4,-1
 359 238 l 1,5,-1
 50 426 l 1,6,-1
 103 481 l 1,0,-1
EndSplineSet
EndChar

StartChar: question
Encoding: 63 63 34
Width: 421
GlyphClass: 2
Flags: W
LayerCount: 2
Fore
SplineSet
24 667 m 1,0,1
 97 712 97 712 189.5 712 c 128,-1,2
 282 712 282 712 328 669.5 c 128,-1,3
 374 627 374 627 374 555.5 c 128,-1,4
 374 484 374 484 347 442.5 c 128,-1,5
 320 401 320 401 247 343 c 0,6,7
 217 319 217 319 209 300.5 c 128,-1,8
 201 282 201 282 201 245 c 2,9,-1
 201 186 l 1,10,-1
 121 177 l 1,11,12
 116 263 116 263 116 289 c 0,13,14
 116 338 116 338 173 382 c 1,15,16
 230 424 230 424 252.5 457 c 128,-1,17
 275 490 275 490 275 531 c 0,18,19
 275 631 275 631 159 631 c 0,20,21
 118 631 118 631 49 606 c 1,22,-1
 24 667 l 1,0,1
166 117 m 0,23,24
 227 117 227 117 227 49 c 0,25,26
 227 24 227 24 210.5 6 c 128,-1,27
 194 -12 194 -12 159 -12 c 0,28,29
 98 -12 98 -12 98 56 c 0,30,31
 98 81 98 81 114.5 99 c 128,-1,32
 131 117 131 117 166 117 c 0,23,24
EndSplineSet
EndChar

StartChar: at
Encoding: 64 64 35
Width: 853
GlyphClass: 2
Flags: W
LayerCount: 2
Fore
SplineSet
408 136 m 0,0,1
 436 136 436 136 461 152 c 128,-1,2
 486 168 486 168 496 186 c 1,3,4
 500 229 500 229 508 302.5 c 128,-1,5
 516 376 516 376 520 419 c 1,6,7
 496 427 496 427 467 427 c 0,8,9
 420 427 420 427 389 396 c 0,10,11
 336 342 336 342 336 239 c 128,-1,12
 336 136 336 136 408 136 c 0,0,1
590 461 m 1,13,-1
 561 158 l 1,14,15
 561 133 561 133 595 133 c 0,16,17
 643 133 643 133 683 201 c 128,-1,18
 723 269 723 269 723 399 c 0,19,20
 723 463 723 463 700.5 510 c 128,-1,21
 678 557 678 557 639 582 c 0,22,23
 564 630 564 630 457 630 c 0,24,25
 366 630 366 630 288 580 c 0,26,27
 245 552 245 552 212.5 509 c 128,-1,28
 180 466 180 466 159 396 c 128,-1,29
 138 326 138 326 138 251 c 128,-1,30
 138 176 138 176 151.5 125.5 c 128,-1,31
 165 75 165 75 185.5 43.5 c 128,-1,32
 206 12 206 12 236.5 -11 c 128,-1,33
 267 -34 267 -34 293 -45.5 c 128,-1,34
 319 -57 319 -57 352 -64 c 0,35,36
 394 -72 394 -72 439 -72 c 0,37,38
 540 -72 540 -72 616 -35 c 1,39,-1
 641 -95 l 1,40,41
 542 -142 542 -142 410 -142 c 0,42,43
 257 -142 257 -142 163 -58 c 0,44,45
 57 36 57 36 57 227 c 0,46,47
 57 348 57 348 93.5 441.5 c 128,-1,48
 130 535 130 535 192 590 c 0,49,50
 314 700 314 700 472.5 700 c 128,-1,51
 631 700 631 700 716 623 c 128,-1,52
 801 546 801 546 801 412 c 0,53,54
 801 251 801 251 736.5 159.5 c 128,-1,55
 672 68 672 68 579 68 c 0,56,57
 538 68 538 68 522.5 84.5 c 128,-1,58
 507 101 507 101 504 131 c 1,59,-1
 500 131 l 1,60,61
 458 72 458 72 387.5 72 c 128,-1,62
 317 72 317 72 287 119.5 c 128,-1,63
 257 167 257 167 257 233 c 128,-1,64
 257 299 257 299 278.5 354.5 c 128,-1,65
 300 410 300 410 347.5 449.5 c 128,-1,66
 395 489 395 489 461 489 c 128,-1,67
 527 489 527 489 590 461 c 1,13,-1
EndSplineSet
EndChar

StartChar: A
Encoding: 65 65 36
Width: 534
GlyphClass: 2
Flags: W
LayerCount: 2
Fore
SplineSet
328 705 m 1,0,-1
 522 0 l 1,1,-1
 421 0 l 1,2,-1
 374 185 l 1,3,-1
 152 185 l 1,4,-1
 103 0 l 1,5,-1
 10 0 l 1,6,-1
 205 693 l 1,7,-1
 328 705 l 1,0,-1
262 615 m 1,8,-1
 175 267 l 1,9,-1
 354 267 l 1,10,-1
 269 615 l 1,11,-1
 262 615 l 1,8,-1
EndSplineSet
EndChar

StartChar: B
Encoding: 66 66 37
Width: 563
GlyphClass: 2
Flags: W
LayerCount: 2
Fore
SplineSet
90 700 m 1,0,-1
 330 700 l 2,1,2
 416 700 416 700 457.5 655 c 128,-1,3
 499 610 499 610 499 544.5 c 128,-1,4
 499 479 499 479 466.5 436 c 128,-1,5
 434 393 434 393 378 380 c 1,6,-1
 378 376 l 1,7,8
 536 361 536 361 536 198 c 0,9,10
 536 117 536 117 472.5 58.5 c 128,-1,11
 409 0 409 0 309 0 c 2,12,-1
 90 0 l 1,13,-1
 90 700 l 1,0,-1
186 328 m 1,14,-1
 186 78 l 1,15,-1
 292 78 l 2,16,17
 375 78 375 78 404.5 111 c 128,-1,18
 434 144 434 144 434 202.5 c 128,-1,19
 434 261 434 261 395.5 294.5 c 128,-1,20
 357 328 357 328 275 328 c 2,21,-1
 186 328 l 1,14,-1
186 627 m 1,22,-1
 186 408 l 1,23,-1
 276 408 l 2,24,25
 335 408 335 408 366 437 c 128,-1,26
 397 466 397 466 397 520 c 128,-1,27
 397 574 397 574 371.5 600.5 c 128,-1,28
 346 627 346 627 282 627 c 2,29,-1
 186 627 l 1,22,-1
EndSplineSet
EndChar

StartChar: C
Encoding: 67 67 38
Width: 542
GlyphClass: 2
Flags: W
LayerCount: 2
Fore
SplineSet
324 712 m 0,0,1
 428 712 428 712 472 661 c 128,-1,2
 516 610 516 610 516 508 c 1,3,-1
 414 498 l 1,4,5
 414 571 414 571 388 598.5 c 128,-1,6
 362 626 362 626 313.5 626 c 128,-1,7
 265 626 265 626 236.5 610.5 c 128,-1,8
 208 595 208 595 191.5 570 c 128,-1,9
 175 545 175 545 166 503 c 0,10,11
 152 438 152 438 152 317 c 128,-1,12
 152 196 152 196 198 135 c 128,-1,13
 244 74 244 74 340 74 c 0,14,15
 385 74 385 74 466 102 c 0,16,17
 485 109 485 109 488 110 c 1,18,-1
 516 38 l 1,19,20
 423 -12 423 -12 322 -12 c 0,21,22
 254 -12 254 -12 204 9 c 128,-1,23
 154 30 154 30 125 62.5 c 128,-1,24
 96 95 96 95 78 144 c 0,25,26
 50 224 50 224 50 322.5 c 128,-1,27
 50 421 50 421 65 484.5 c 128,-1,28
 80 548 80 548 111.5 600.5 c 128,-1,29
 143 653 143 653 197.5 682.5 c 128,-1,30
 252 712 252 712 324 712 c 0,0,1
EndSplineSet
EndChar

StartChar: D
Encoding: 68 68 39
Width: 612
GlyphClass: 2
Flags: W
LayerCount: 2
Fore
SplineSet
90 700 m 1,0,-1
 294 700 l 2,1,2
 360 700 360 700 409.5 678.5 c 128,-1,3
 459 657 459 657 487.5 624 c 128,-1,4
 516 591 516 591 534 542 c 0,5,6
 562 462 562 462 562 344 c 0,7,8
 562 204 562 204 504 107 c 0,9,10
 474 57 474 57 421 28.5 c 128,-1,11
 368 0 368 0 297 0 c 2,12,-1
 90 0 l 1,13,-1
 90 700 l 1,0,-1
186 616 m 1,14,-1
 186 84 l 1,15,-1
 286 84 l 2,16,17
 397 84 397 84 431 167 c 0,18,19
 448 208 448 208 454 251 c 128,-1,20
 460 294 460 294 460 354 c 128,-1,21
 460 414 460 414 451.5 458.5 c 128,-1,22
 443 503 443 503 424 540 c 0,23,24
 383 616 383 616 278 616 c 2,25,-1
 186 616 l 1,14,-1
EndSplineSet
EndChar

StartChar: E
Encoding: 69 69 40
Width: 499
GlyphClass: 2
Flags: W
LayerCount: 2
Fore
SplineSet
90 700 m 1,0,-1
 469 700 l 1,1,-1
 457 614 l 1,2,-1
 186 614 l 1,3,-1
 186 399 l 1,4,-1
 425 399 l 1,5,-1
 413 315 l 1,6,-1
 186 315 l 1,7,-1
 186 86 l 1,8,-1
 474 86 l 1,9,-1
 462 0 l 1,10,-1
 90 0 l 1,11,-1
 90 700 l 1,0,-1
EndSplineSet
EndChar

StartChar: F
Encoding: 70 70 41
Width: 472
GlyphClass: 2
Flags: W
LayerCount: 2
Fore
SplineSet
90 700 m 1,0,-1
 461 700 l 1,1,-1
 449 615 l 1,2,-1
 186 615 l 1,3,-1
 186 391 l 1,4,-1
 412 391 l 1,5,-1
 400 307 l 1,6,-1
 186 307 l 1,7,-1
 186 0 l 1,8,-1
 90 0 l 1,9,-1
 90 700 l 1,0,-1
EndSplineSet
EndChar

StartChar: G
Encoding: 71 71 42
Width: 602
GlyphClass: 2
Flags: W
LayerCount: 2
Fore
SplineSet
327 712 m 0,0,1
 438 712 438 712 483 661 c 128,-1,2
 528 610 528 610 528 509 c 1,3,-1
 426 499 l 1,4,5
 426 570 426 570 399.5 598 c 128,-1,6
 373 626 373 626 324.5 626 c 128,-1,7
 276 626 276 626 246.5 611.5 c 128,-1,8
 217 597 217 597 200 573 c 128,-1,9
 183 549 183 549 173 510 c 0,10,11
 157 446 157 446 157 321.5 c 128,-1,12
 157 197 157 197 200.5 135.5 c 128,-1,13
 244 74 244 74 341 74 c 0,14,15
 396 74 396 74 443 92 c 1,16,-1
 443 251 l 1,17,-1
 308 251 l 1,18,-1
 318 335 l 1,19,-1
 533 335 l 1,20,-1
 533 35 l 1,21,22
 431 -12 431 -12 325 -12 c 0,23,24
 172 -12 172 -12 112 81 c 0,25,26
 63 158 63 158 56 282 c 0,27,28
 55 313 55 313 55 355 c 0,29,30
 55 515 55 515 125.5 613.5 c 128,-1,31
 196 712 196 712 327 712 c 0,0,1
EndSplineSet
EndChar

StartChar: H
Encoding: 72 72 43
Width: 627
GlyphClass: 2
Flags: W
LayerCount: 2
Fore
SplineSet
441 0 m 1,0,-1
 441 321 l 1,1,-1
 186 321 l 1,2,-1
 186 0 l 1,3,-1
 90 0 l 1,4,-1
 90 700 l 1,5,-1
 186 700 l 1,6,-1
 186 405 l 1,7,-1
 441 405 l 1,8,-1
 441 700 l 1,9,-1
 537 700 l 1,10,-1
 537 0 l 1,11,-1
 441 0 l 1,0,-1
EndSplineSet
EndChar

StartChar: I
Encoding: 73 73 44
Width: 276
GlyphClass: 2
Flags: W
LayerCount: 2
Fore
SplineSet
186 700 m 1,0,-1
 186 0 l 1,1,-1
 90 0 l 1,2,-1
 90 700 l 1,3,-1
 186 700 l 1,0,-1
EndSplineSet
EndChar

StartChar: J
Encoding: 74 74 45
Width: 276
GlyphClass: 2
Flags: W
LayerCount: 2
Fore
SplineSet
186 700 m 1,0,-1
 186 94 l 2,1,2
 186 -1 186 -1 150.5 -64 c 128,-1,3
 115 -127 115 -127 10 -174 c 1,4,-1
 -49 -107 l 1,5,6
 5 -80 5 -80 32 -54 c 0,7,8
 90 -1 90 -1 90 134 c 2,9,-1
 90 700 l 1,10,-1
 186 700 l 1,0,-1
EndSplineSet
EndChar

StartChar: K
Encoding: 75 75 46
Width: 519
GlyphClass: 2
Flags: W
LayerCount: 2
Fore
SplineSet
186 700 m 1,0,-1
 186 0 l 1,1,-1
 90 0 l 1,2,-1
 90 700 l 1,3,-1
 186 700 l 1,0,-1
428 701 m 1,4,-1
 511 665 l 1,5,-1
 293 361 l 1,6,-1
 542 0 l 1,7,-1
 425 0 l 1,8,-1
 190 350 l 1,9,-1
 428 701 l 1,4,-1
EndSplineSet
EndChar

StartChar: L
Encoding: 76 76 47
Width: 458
GlyphClass: 2
Flags: W
LayerCount: 2
Fore
SplineSet
186 700 m 1,0,-1
 186 85 l 1,1,-1
 443 85 l 1,2,-1
 431 0 l 1,3,-1
 90 0 l 1,4,-1
 90 700 l 1,5,-1
 186 700 l 1,0,-1
EndSplineSet
EndChar

StartChar: M
Encoding: 77 77 48
Width: 733
GlyphClass: 2
Flags: W
LayerCount: 2
Fore
SplineSet
640 700 m 1,0,-1
 677 0 l 1,1,-1
 583 0 l 1,2,-1
 559 494 l 1,3,-1
 566 614 l 1,4,-1
 560 614 l 1,5,-1
 425 40 l 1,6,-1
 310 30 l 1,7,-1
 155 614 l 1,8,-1
 148 614 l 1,9,-1
 160 496 l 1,10,-1
 143 0 l 1,11,-1
 61 0 l 1,12,-1
 88 700 l 1,13,-1
 228 700 l 1,14,-1
 348 230 l 1,15,-1
 369 120 l 1,16,-1
 374 120 l 1,17,-1
 392 227 l 1,18,-1
 500 700 l 1,19,-1
 640 700 l 1,0,-1
EndSplineSet
EndChar

StartChar: N
Encoding: 78 78 49
Width: 630
GlyphClass: 2
Flags: W
LayerCount: 2
Fore
SplineSet
540 700 m 1,0,-1
 540 0 l 1,1,-1
 439 0 l 1,2,-1
 207 474 l 1,3,-1
 174 566 l 1,4,-1
 169 563 l 1,5,-1
 186 460 l 1,6,-1
 186 0 l 1,7,-1
 90 0 l 1,8,-1
 90 700 l 1,9,-1
 192 700 l 1,10,-1
 423 214 l 1,11,-1
 457 119 l 1,12,-1
 462 122 l 1,13,-1
 444 240 l 1,14,-1
 444 700 l 1,15,-1
 540 700 l 1,0,-1
EndSplineSet
EndChar

StartChar: O
Encoding: 79 79 50
Width: 626
GlyphClass: 2
Flags: W
LayerCount: 2
Fore
SplineSet
378 611.5 m 128,-1,1
 346 626 346 626 300.5 626 c 128,-1,2
 255 626 255 626 223.5 603.5 c 128,-1,3
 192 581 192 581 177 538 c 0,4,5
 152 465 152 465 152 342 c 0,6,7
 152 182 152 182 197 126 c 0,8,9
 238 74 238 74 323 74 c 0,10,11
 363 74 363 74 391.5 90.5 c 128,-1,12
 420 107 420 107 435.5 131.5 c 128,-1,13
 451 156 451 156 460 196 c 0,14,15
 474 258 474 258 474 333 c 128,-1,16
 474 408 474 408 471 443.5 c 128,-1,17
 468 479 468 479 457.5 515.5 c 128,-1,18
 447 552 447 552 428.5 574.5 c 128,-1,0
 410 597 410 597 378 611.5 c 128,-1,1
324 712 m 0,19,20
 576 712 576 712 576 365 c 0,21,22
 576 186 576 186 507 87 c 128,-1,23
 438 -12 438 -12 302 -12 c 0,24,25
 50 -12 50 -12 50 335 c 0,26,27
 50 514 50 514 119 613 c 128,-1,28
 188 712 188 712 324 712 c 0,19,20
EndSplineSet
EndChar

StartChar: P
Encoding: 80 80 51
Width: 536
GlyphClass: 2
Flags: W
LayerCount: 2
Fore
SplineSet
90 700 m 1,0,-1
 320 700 l 2,1,2
 430 700 430 700 472.5 645.5 c 128,-1,3
 515 591 515 591 515 500 c 0,4,5
 515 411 515 411 467 344 c 0,6,7
 441 307 441 307 388 285.5 c 128,-1,8
 335 264 335 264 260 264 c 2,9,-1
 186 264 l 1,10,-1
 186 0 l 1,11,-1
 90 0 l 1,12,-1
 90 700 l 1,0,-1
186 627 m 1,13,-1
 186 344 l 1,14,-1
 286 344 l 2,15,16
 413 344 413 344 413 480 c 0,17,18
 413 554 413 554 386.5 590.5 c 128,-1,19
 360 627 360 627 277 627 c 2,20,-1
 186 627 l 1,13,-1
EndSplineSet
EndChar

StartChar: Q
Encoding: 81 81 52
Width: 625
GlyphClass: 2
Flags: W
LayerCount: 2
Fore
SplineSet
49 335 m 0,0,1
 49 514 49 514 118 613 c 128,-1,2
 187 712 187 712 324 712 c 0,3,4
 575 712 575 712 575 365 c 0,5,6
 575 186 575 186 506 87 c 128,-1,7
 437 -12 437 -12 300 -12 c 1,8,-1
 300 -16 l 1,9,-1
 560 -94 l 1,10,-1
 523 -170 l 1,11,-1
 254 -68 l 1,12,-1
 271 -11 l 1,13,14
 49 8 49 8 49 335 c 0,0,1
246 88.5 m 128,-1,16
 278 74 278 74 320 74 c 128,-1,17
 362 74 362 74 390.5 90.5 c 128,-1,18
 419 107 419 107 434.5 131.5 c 128,-1,19
 450 156 450 156 459 196 c 0,20,21
 473 260 473 260 473 334.5 c 128,-1,22
 473 409 473 409 470 444 c 128,-1,23
 467 479 467 479 456.5 515.5 c 128,-1,24
 446 552 446 552 428 574 c 0,25,26
 385 626 385 626 301 626 c 0,27,28
 207 626 207 626 176 538 c 0,29,30
 151 465 151 465 151 341 c 0,31,32
 151 182 151 182 196 126 c 0,33,15
 214 103 214 103 246 88.5 c 128,-1,16
EndSplineSet
EndChar

StartChar: R
Encoding: 82 82 53
Width: 537
GlyphClass: 2
Flags: W
LayerCount: 2
Fore
SplineSet
90 700 m 1,0,-1
 316 700 l 2,1,2
 423 700 423 700 463 642 c 0,3,4
 499 589 499 589 499 513 c 128,-1,5
 499 437 499 437 459 383.5 c 128,-1,6
 419 330 419 330 351 307 c 1,7,-1
 542 0 l 1,8,-1
 429 0 l 1,9,-1
 257 291 l 1,10,-1
 186 291 l 1,11,-1
 186 0 l 1,12,-1
 90 0 l 1,13,-1
 90 700 l 1,0,-1
186 626 m 1,14,-1
 186 371 l 1,15,-1
 263 371 l 2,16,17
 329 371 329 371 364 405.5 c 128,-1,18
 399 440 399 440 399 501.5 c 128,-1,19
 399 563 399 563 369.5 594.5 c 128,-1,20
 340 626 340 626 272 626 c 2,21,-1
 186 626 l 1,14,-1
EndSplineSet
EndChar

StartChar: S
Encoding: 83 83 54
Width: 486
GlyphClass: 2
Flags: W
LayerCount: 2
Fore
SplineSet
97 658 m 128,-1,1
 157 712 157 712 250 712 c 128,-1,2
 343 712 343 712 391 666 c 128,-1,3
 439 620 439 620 446 540 c 1,4,-1
 344 530 l 1,5,6
 341 576 341 576 313.5 601 c 128,-1,7
 286 626 286 626 238.5 626 c 128,-1,8
 191 626 191 626 164 603 c 128,-1,9
 137 580 137 580 137 544 c 0,10,11
 137 496 137 496 168 466 c 256,12,13
 199 436 199 436 274 398 c 0,14,15
 340 364 340 364 364.5 348.5 c 128,-1,16
 389 333 389 333 414 310 c 0,17,18
 462 267 462 267 462 185 c 128,-1,19
 462 103 462 103 400 45.5 c 128,-1,20
 338 -12 338 -12 233 -12 c 128,-1,21
 128 -12 128 -12 34 53 c 1,22,-1
 75 127 l 1,23,24
 168 74 168 74 250 74 c 0,25,26
 299 74 299 74 330 98.5 c 128,-1,27
 361 123 361 123 361 169.5 c 128,-1,28
 361 216 361 216 329.5 243 c 128,-1,29
 298 270 298 270 250.5 292 c 128,-1,30
 203 314 203 314 192 319.5 c 128,-1,31
 181 325 181 325 155 339.5 c 128,-1,32
 129 354 129 354 117 364 c 128,-1,33
 105 374 105 374 86.5 392.5 c 128,-1,34
 68 411 68 411 60 428 c 0,35,36
 37 475 37 475 37 524 c 0,37,0
 37 604 37 604 97 658 c 128,-1,1
EndSplineSet
EndChar

StartChar: T
Encoding: 84 84 55
Width: 446
GlyphClass: 2
Flags: W
LayerCount: 2
Fore
SplineSet
276 616 m 1,0,-1
 276 0 l 1,1,-1
 180 0 l 1,2,-1
 180 616 l 1,3,-1
 0 616 l 1,4,-1
 9 700 l 1,5,-1
 450 700 l 1,6,-1
 441 616 l 1,7,-1
 276 616 l 1,0,-1
EndSplineSet
EndChar

StartChar: U
Encoding: 85 85 56
Width: 622
GlyphClass: 2
Flags: W
LayerCount: 2
Fore
SplineSet
532 700 m 1,0,-1
 532 153 l 1,1,-1
 540 6 l 1,2,-1
 462 -5 l 1,3,-1
 452 53 l 1,4,-1
 448 53 l 1,5,6
 383 -12 383 -12 291 -12 c 128,-1,7
 199 -12 199 -12 142 35 c 128,-1,8
 85 82 85 82 85 177 c 2,9,-1
 85 700 l 1,10,-1
 181 700 l 1,11,-1
 181 194 l 2,12,13
 181 131 181 131 219.5 102.5 c 128,-1,14
 258 74 258 74 314 74 c 0,15,16
 396 74 396 74 436 136 c 1,17,-1
 436 700 l 1,18,-1
 532 700 l 1,0,-1
EndSplineSet
EndChar

StartChar: V
Encoding: 86 86 57
Width: 513
GlyphClass: 2
Flags: W
LayerCount: 2
Fore
SplineSet
514 693 m 1,0,-1
 317 0 l 1,1,-1
 193 0 l 1,2,-1
 2 693 l 1,3,-1
 96 705 l 1,4,-1
 240 173 l 1,5,-1
 257 93 l 1,6,-1
 261 93 l 1,7,-1
 279 173 l 1,8,-1
 422 705 l 1,9,-1
 514 693 l 1,0,-1
EndSplineSet
EndChar

StartChar: W
Encoding: 87 87 58
Width: 774
GlyphClass: 2
Flags: W
LayerCount: 2
Fore
SplineSet
762 694 m 1,0,-1
 619 0 l 1,1,-1
 479 0 l 1,2,-1
 389 535 l 1,3,-1
 385 535 l 1,4,-1
 380 490 l 1,5,-1
 296 0 l 1,6,-1
 162 0 l 1,7,-1
 11 694 l 1,8,-1
 108 706 l 1,9,-1
 227 127 l 1,10,-1
 232 87 l 1,11,-1
 236 87 l 1,12,-1
 330 641 l 1,13,-1
 451 652 l 1,14,-1
 542 127 l 1,15,-1
 546 87 l 1,16,-1
 550 87 l 1,17,-1
 668 706 l 1,18,-1
 762 694 l 1,0,-1
EndSplineSet
EndChar

StartChar: X
Encoding: 88 88 59
Width: 501
GlyphClass: 2
Flags: W
LayerCount: 2
Fore
SplineSet
488 693 m 1,0,-1
 305 357 l 1,1,-1
 507 7 l 1,2,-1
 404 -5 l 1,3,-1
 250 273 l 1,4,-1
 102 -5 l 1,5,-1
 12 7 l 1,6,-1
 196 357 l 1,7,-1
 8 693 l 1,8,-1
 111 705 l 1,9,-1
 252 438 l 1,10,-1
 397 705 l 1,11,-1
 488 693 l 1,0,-1
EndSplineSet
EndChar

StartChar: Y
Encoding: 89 89 60
Width: 478
GlyphClass: 2
Flags: W
LayerCount: 2
Fore
SplineSet
290 0 m 1,0,-1
 194 0 l 1,1,-1
 194 252 l 1,2,3
 83 505 83 505 0 693 c 1,4,-1
 97 705 l 1,5,-1
 239 345 l 1,6,-1
 245 345 l 1,7,-1
 387 705 l 1,8,-1
 478 693 l 1,9,-1
 290 252 l 1,10,-1
 290 0 l 1,0,-1
EndSplineSet
EndChar

StartChar: Z
Encoding: 90 90 61
Width: 459
GlyphClass: 2
Flags: W
LayerCount: 2
Fore
SplineSet
435 700 m 1,0,-1
 435 608 l 1,1,-1
 128 83 l 1,2,-1
 444 83 l 1,3,-1
 435 0 l 1,4,-1
 25 0 l 1,5,-1
 25 93 l 1,6,-1
 328 617 l 1,7,-1
 27 617 l 1,8,-1
 36 700 l 1,9,-1
 435 700 l 1,0,-1
EndSplineSet
EndChar

StartChar: bracketleft
Encoding: 91 91 62
Width: 304
GlyphClass: 2
Flags: W
LayerCount: 2
Fore
SplineSet
289 798 m 1,0,-1
 289 733 l 1,1,-1
 175 733 l 1,2,-1
 175 -93 l 1,3,-1
 289 -93 l 1,4,-1
 289 -158 l 1,5,-1
 95 -158 l 1,6,-1
 95 798 l 1,7,-1
 289 798 l 1,0,-1
EndSplineSet
EndChar

StartChar: backslash
Encoding: 92 92 63
Width: 314
GlyphClass: 2
Flags: W
LayerCount: 2
Fore
SplineSet
97 750 m 1,0,-1
 300 -110 l 1,1,-1
 220 -110 l 1,2,-1
 18 750 l 1,3,-1
 97 750 l 1,0,-1
EndSplineSet
EndChar

StartChar: bracketright
Encoding: 93 93 64
Width: 304
GlyphClass: 2
Flags: W
LayerCount: 2
Fore
SplineSet
209 798 m 1,0,-1
 209 -158 l 1,1,-1
 15 -158 l 1,2,-1
 15 -93 l 1,3,-1
 129 -93 l 1,4,-1
 129 733 l 1,5,-1
 15 733 l 1,6,-1
 15 798 l 1,7,-1
 209 798 l 1,0,-1
EndSplineSet
EndChar

StartChar: asciicircum
Encoding: 94 94 65
Width: 609
GlyphClass: 2
Flags: W
LayerCount: 2
Fore
SplineSet
335 748 m 1,0,-1
 544 299 l 1,1,-1
 460 282 l 1,2,-1
 300 632 l 1,3,-1
 150 283 l 1,4,-1
 65 298 l 1,5,-1
 256 734 l 1,6,-1
 335 748 l 1,0,-1
EndSplineSet
EndChar

StartChar: underscore
Encoding: 95 95 66
Width: 470
GlyphClass: 2
Flags: W
LayerCount: 2
Fore
SplineSet
475 -188 m 1,0,-1
 -5 -188 l 1,1,-1
 -5 -123 l 1,2,-1
 475 -123 l 1,3,-1
 475 -188 l 1,0,-1
EndSplineSet
EndChar

StartChar: grave
Encoding: 96 96 67
Width: 309
GlyphClass: 2
Flags: W
LayerCount: 2
Fore
SplineSet
93 750 m 1,0,-1
 269 614 l 1,1,-1
 227 564 l 1,2,-1
 40 681 l 1,3,-1
 93 750 l 1,0,-1
EndSplineSet
EndChar

StartChar: a
Encoding: 97 97 68
Width: 481
GlyphClass: 2
Flags: W
LayerCount: 2
Fore
SplineSet
311 366 m 2,0,1
 311 457 311 457 228 457 c 0,2,3
 175 457 175 457 85 429 c 1,4,-1
 53 492 l 1,5,6
 139 537 139 537 239 537 c 0,7,8
 360 537 360 537 387 465 c 0,9,10
 401 428 401 428 401 367 c 2,11,-1
 401 154 l 2,12,13
 401 82 401 82 442 40 c 1,14,-1
 389 -12 l 1,15,16
 371 -1 371 -1 352.5 20.5 c 128,-1,17
 334 42 334 42 327 63 c 1,18,-1
 324 63 l 1,19,20
 269 -12 269 -12 172 -12 c 0,21,22
 29 -12 29 -12 29 137 c 0,23,24
 29 269 29 269 215 296 c 2,25,-1
 311 310 l 1,26,-1
 311 366 l 2,0,1
125 126 m 0,27,28
 125 68 125 68 196.5 68 c 128,-1,29
 268 68 268 68 311 118 c 1,30,-1
 311 240 l 1,31,32
 185 223 185 223 156 200 c 0,33,34
 125 175 125 175 125 126 c 0,27,28
EndSplineSet
EndChar

StartChar: b
Encoding: 98 98 69
Width: 528
GlyphClass: 2
Flags: W
LayerCount: 2
Fore
SplineSet
442 460 m 0,0,1
 483 395 483 395 483 274 c 0,2,3
 483 108 483 108 411 44 c 0,4,5
 348 -12 348 -12 253 -12 c 128,-1,6
 158 -12 158 -12 75 46 c 1,7,-1
 75 745 l 1,8,-1
 165 755 l 1,9,-1
 165 530 l 1,10,-1
 160 480 l 1,11,-1
 163 478 l 1,12,13
 209 537 209 537 301 537 c 128,-1,14
 393 537 393 537 442 460 c 0,0,1
347 99 m 0,15,16
 387 139 387 139 387 256 c 128,-1,17
 387 373 387 373 357.5 415 c 128,-1,18
 328 457 328 457 271 457 c 0,19,20
 198 457 198 457 165 408 c 1,21,-1
 165 96 l 1,22,23
 204 67 204 67 259.5 67 c 128,-1,24
 315 67 315 67 347 99 c 0,15,16
EndSplineSet
EndChar

StartChar: c
Encoding: 99 99 70
Width: 459
GlyphClass: 2
Flags: W
LayerCount: 2
Fore
SplineSet
103.5 460.5 m 128,-1,1
 162 537 162 537 259.5 537 c 128,-1,2
 357 537 357 537 389.5 491.5 c 128,-1,3
 422 446 422 446 422 359 c 1,4,-1
 332 353 l 1,5,6
 332 410 332 410 315 433.5 c 128,-1,7
 298 457 298 457 246 457 c 0,8,9
 141 457 141 457 141 262.5 c 128,-1,10
 141 68 141 68 275 68 c 0,11,12
 334 68 334 68 400 101 c 1,13,-1
 427 41 l 1,14,15
 402 19 402 19 356 3.5 c 128,-1,16
 310 -12 310 -12 257 -12 c 0,17,18
 45 -12 45 -12 45 259 c 0,19,0
 45 384 45 384 103.5 460.5 c 128,-1,1
EndSplineSet
EndChar

StartChar: d
Encoding: 100 100 71
Width: 533
GlyphClass: 2
Flags: W
LayerCount: 2
Fore
SplineSet
363 505 m 0,0,1
 364 505 364 505 366 506 c 1,2,-1
 363 532 l 1,3,-1
 363 745 l 1,4,-1
 453 755 l 1,5,-1
 453 144 l 1,6,-1
 461 5 l 1,7,-1
 388 -5 l 1,8,-1
 377 56 l 1,9,-1
 373 56 l 1,10,11
 313 -12 313 -12 229 -12 c 128,-1,12
 145 -12 145 -12 95 47.5 c 128,-1,13
 45 107 45 107 45 259 c 0,14,15
 45 321 45 321 59 371 c 128,-1,16
 73 421 73 421 95 451 c 128,-1,17
 117 481 117 481 146 501 c 0,18,19
 197 537 197 537 260 537 c 128,-1,20
 323 537 323 537 363 505 c 0,0,1
269 457 m 0,21,22
 242 457 242 457 223 450.5 c 128,-1,23
 204 444 204 444 184 426 c 0,24,25
 141 387 141 387 141 267.5 c 128,-1,26
 141 148 141 148 168.5 108 c 128,-1,27
 196 68 196 68 257 68 c 0,28,29
 291 68 291 68 320 83.5 c 128,-1,30
 349 99 349 99 363 117 c 1,31,-1
 363 429 l 1,32,33
 324 457 324 457 269 457 c 0,21,22
EndSplineSet
EndChar

StartChar: e
Encoding: 101 101 72
Width: 481
GlyphClass: 2
Flags: W
LayerCount: 2
Fore
SplineSet
269 537 m 0,0,1
 355 537 355 537 396 485 c 0,2,3
 430 443 430 443 438 344 c 0,4,5
 441 305 441 305 441 247 c 1,6,-1
 400 241 l 1,7,-1
 141 241 l 1,8,9
 141 115 141 115 208 82 c 0,10,11
 236 68 236 68 285 68 c 128,-1,12
 334 68 334 68 398 100 c 1,13,-1
 426 38 l 1,14,15
 343 -12 343 -12 259 -12 c 0,16,17
 45 -12 45 -12 45 258 c 0,18,19
 45 386 45 386 101.5 461.5 c 128,-1,20
 158 537 158 537 269 537 c 0,0,1
329 424.5 m 128,-1,22
 313 457 313 457 255.5 457 c 128,-1,23
 198 457 198 457 174 418.5 c 128,-1,24
 150 380 150 380 144 312 c 1,25,-1
 345 312 l 1,26,21
 345 392 345 392 329 424.5 c 128,-1,22
EndSplineSet
EndChar

StartChar: f
Encoding: 102 102 73
Width: 335
GlyphClass: 2
Flags: W
LayerCount: 2
Fore
SplineSet
95 573 m 2,0,1
 95 672 95 672 147 716 c 128,-1,2
 199 760 199 760 277 760 c 0,3,4
 334 760 334 760 387 739 c 1,5,-1
 369 672 l 1,6,7
 326 681 326 681 294 681 c 0,8,9
 185 681 185 681 185 574 c 2,10,-1
 185 525 l 1,11,-1
 338 525 l 1,12,-1
 326 449 l 1,13,-1
 185 449 l 1,14,-1
 185 0 l 1,15,-1
 95 0 l 1,16,-1
 95 449 l 1,17,-1
 18 449 l 1,18,-1
 28 519 l 1,19,-1
 95 525 l 1,20,-1
 95 573 l 2,0,1
EndSplineSet
EndChar

StartChar: g
Encoding: 103 103 74
Width: 490
GlyphClass: 2
Flags: W
LayerCount: 2
Fore
SplineSet
244 537 m 0,0,1
 260 537 260 537 271.5 536 c 128,-1,2
 283 535 283 535 330 533 c 0,3,4
 469 527 469 527 482 527 c 1,5,-1
 471 469 l 1,6,-1
 402 462 l 1,7,8
 427 420 427 420 427 362 c 0,9,10
 427 276 427 276 375 226 c 128,-1,11
 323 176 323 176 227 176 c 0,12,13
 212 176 212 176 188 178 c 1,14,15
 168 162 168 162 162 155 c 128,-1,16
 156 148 156 148 156 139 c 0,17,18
 156 110 156 110 219 104 c 2,19,-1
 294 97 l 1,20,21
 374 92 374 92 419.5 64.5 c 128,-1,22
 465 37 465 37 465 -26.5 c 128,-1,23
 465 -90 465 -90 428 -128 c 0,24,25
 359 -200 359 -200 223 -200 c 0,26,27
 18 -200 18 -200 18 -76 c 0,28,29
 18 -27 18 -27 80 26 c 0,30,31
 87 32 87 32 90.5 34.5 c 128,-1,32
 94 37 94 37 100 41.5 c 128,-1,33
 106 46 106 46 107 46 c 1,34,35
 68 69 68 69 68 112 c 0,36,37
 68 138 68 138 82 155 c 128,-1,38
 96 172 96 172 129 195 c 1,39,40
 44 236 44 236 44 348 c 0,41,42
 44 436 44 436 96 486.5 c 128,-1,43
 148 537 148 537 244 537 c 0,0,1
142.5 -111 m 128,-1,45
 179 -129 179 -129 237.5 -129 c 128,-1,46
 296 -129 296 -129 337.5 -111 c 128,-1,47
 379 -93 379 -93 379 -54 c 0,48,49
 379 -23 379 -23 360 -11 c 0,50,51
 350 -4 350 -4 341.5 0.5 c 128,-1,52
 333 5 333 5 313 8 c 0,53,54
 277 13 277 13 237.5 16 c 128,-1,55
 198 19 198 19 165 26 c 1,56,57
 125 -5 125 -5 115.5 -21.5 c 128,-1,58
 106 -38 106 -38 106 -55 c 0,59,44
 106 -93 106 -93 142.5 -111 c 128,-1,45
230 466 m 0,60,61
 179 466 179 466 157.5 439 c 128,-1,62
 136 412 136 412 136 356 c 0,63,64
 136 245 136 245 241 245 c 0,65,66
 293 245 293 245 314 273 c 128,-1,67
 335 301 335 301 335 358 c 0,68,69
 335 466 335 466 230 466 c 0,60,61
EndSplineSet
EndChar

StartChar: h
Encoding: 104 104 75
Width: 543
GlyphClass: 2
Flags: W
LayerCount: 2
Fore
SplineSet
169 480 m 1,0,1
 228 537 228 537 303.5 537 c 128,-1,2
 379 537 379 537 423.5 494.5 c 128,-1,3
 468 452 468 452 468 360 c 2,4,-1
 468 0 l 1,5,-1
 377 0 l 1,6,-1
 377 354 l 2,7,8
 377 457 377 457 274 457 c 0,9,10
 244 457 244 457 215 442.5 c 128,-1,11
 186 428 186 428 169 409 c 1,12,-1
 169 0 l 1,13,-1
 80 0 l 1,14,-1
 80 745 l 1,15,-1
 169 755 l 1,16,-1
 169 527 l 1,17,-1
 165 481 l 1,18,-1
 169 480 l 1,0,1
EndSplineSet
EndChar

StartChar: i
Encoding: 105 105 76
Width: 250
GlyphClass: 2
Flags: W
LayerCount: 2
Fore
SplineSet
170 0 m 1,0,-1
 80 0 l 1,1,-1
 80 520 l 1,2,-1
 170 530 l 1,3,-1
 170 0 l 1,0,-1
121 559 m 0,4,5
 60 559 60 559 60 627 c 0,6,7
 60 652 60 652 76.5 670 c 128,-1,8
 93 688 93 688 128 688 c 0,9,10
 189 688 189 688 189 620 c 0,11,12
 189 595 189 595 172.5 577 c 128,-1,13
 156 559 156 559 121 559 c 0,4,5
EndSplineSet
EndChar

StartChar: j
Encoding: 106 106 77
Width: 250
GlyphClass: 2
Flags: W
LayerCount: 2
Fore
SplineSet
170 -12 m 2,0,1
 170 -91 170 -91 149.5 -125 c 128,-1,2
 129 -159 129 -159 63 -200 c 1,3,-1
 12 -146 l 1,4,5
 59 -111 59 -111 69.5 -82.5 c 128,-1,6
 80 -54 80 -54 80 31 c 2,7,-1
 80 520 l 1,8,-1
 170 530 l 1,9,-1
 170 -12 l 2,0,1
121 559 m 0,10,11
 60 559 60 559 60 627 c 0,12,13
 60 652 60 652 76.5 670 c 128,-1,14
 93 688 93 688 128 688 c 0,15,16
 189 688 189 688 189 620 c 0,17,18
 189 595 189 595 172.5 577 c 128,-1,19
 156 559 156 559 121 559 c 0,10,11
EndSplineSet
EndChar

StartChar: k
Encoding: 107 107 78
Width: 467
GlyphClass: 2
Flags: W
LayerCount: 2
Fore
SplineSet
165 0 m 1,0,-1
 75 0 l 1,1,-1
 75 745 l 1,2,-1
 165 755 l 1,3,-1
 165 0 l 1,0,-1
473 0 m 1,4,-1
 359 0 l 1,5,-1
 168 266 l 1,6,-1
 361 530 l 1,7,-1
 450 503 l 1,8,-1
 264 265 l 1,9,-1
 473 0 l 1,4,-1
EndSplineSet
EndChar

StartChar: l
Encoding: 108 108 79
Width: 245
GlyphClass: 2
Flags: W
LayerCount: 2
Fore
SplineSet
163 160 m 2,0,1
 163 111 163 111 171 85.5 c 128,-1,2
 179 60 179 60 207 31 c 1,3,-1
 140 -22 l 1,4,5
 99 21 99 21 86 51 c 128,-1,6
 73 81 73 81 73 153 c 2,7,-1
 73 745 l 1,8,-1
 163 755 l 1,9,-1
 163 160 l 2,0,1
EndSplineSet
EndChar

StartChar: m
Encoding: 109 109 80
Width: 803
GlyphClass: 2
Flags: W
LayerCount: 2
Fore
SplineSet
162 471 m 1,0,1
 207 537 207 537 297.5 537 c 128,-1,2
 388 537 388 537 426 468 c 1,3,4
 479 537 479 537 576 537 c 0,5,6
 650 537 650 537 689 490 c 128,-1,7
 728 443 728 443 728 360 c 2,8,-1
 728 0 l 1,9,-1
 638 0 l 1,10,-1
 638 354 l 2,11,12
 638 457 638 457 549 457 c 0,13,14
 482 457 482 457 449 409 c 1,15,-1
 449 0 l 1,16,-1
 359 0 l 1,17,-1
 359 354 l 2,18,19
 359 457 359 457 270 457 c 0,20,21
 203 457 203 457 170 409 c 1,22,-1
 170 0 l 1,23,-1
 80 0 l 1,24,-1
 80 381 l 1,25,-1
 72 520 l 1,26,-1
 145 530 l 1,27,-1
 158 471 l 1,28,-1
 162 471 l 1,0,1
EndSplineSet
EndChar

StartChar: n
Encoding: 110 110 81
Width: 543
GlyphClass: 2
Flags: W
LayerCount: 2
Fore
SplineSet
306 537 m 0,0,1
 380 537 380 537 424 494.5 c 128,-1,2
 468 452 468 452 468 360 c 2,3,-1
 468 0 l 1,4,-1
 378 0 l 1,5,-1
 378 354 l 2,6,7
 378 457 378 457 275 457 c 0,8,9
 245 457 245 457 216 442.5 c 128,-1,10
 187 428 187 428 170 409 c 1,11,-1
 170 0 l 1,12,-1
 80 0 l 1,13,-1
 80 381 l 1,14,-1
 72 520 l 1,15,-1
 145 530 l 1,16,-1
 158 471 l 1,17,-1
 162 471 l 1,18,19
 180 494 180 494 216.5 515.5 c 128,-1,20
 253 537 253 537 306 537 c 0,0,1
EndSplineSet
EndChar

StartChar: o
Encoding: 111 111 82
Width: 524
GlyphClass: 2
Flags: W
LayerCount: 2
Fore
SplineSet
167.5 514 m 128,-1,1
 214 537 214 537 276.5 537 c 128,-1,2
 339 537 339 537 381.5 513 c 128,-1,3
 424 489 424 489 444 446 c 0,4,5
 479 369 479 369 479 257 c 0,6,7
 479 149 479 149 429 74 c 0,8,9
 403 34 403 34 356.5 11 c 128,-1,10
 310 -12 310 -12 247.5 -12 c 128,-1,11
 185 -12 185 -12 142.5 12 c 128,-1,12
 100 36 100 36 80 80 c 0,13,14
 45 156 45 156 45 268 c 0,15,16
 45 376 45 376 95 452 c 0,17,0
 121 491 121 491 167.5 514 c 128,-1,1
314 447 m 128,-1,19
 291 457 291 457 258.5 457 c 128,-1,20
 226 457 226 457 203 445 c 128,-1,21
 180 433 180 433 168 416.5 c 128,-1,22
 156 400 156 400 150 370 c 0,23,24
 141 325 141 325 141 273 c 128,-1,25
 141 221 141 221 143 196.5 c 128,-1,26
 145 172 145 172 152.5 146 c 128,-1,27
 160 120 160 120 174 104 c 0,28,29
 204 68 204 68 266 68 c 0,30,31
 298 68 298 68 321 80 c 128,-1,32
 344 92 344 92 356 108.5 c 128,-1,33
 368 125 368 125 374 155 c 0,34,35
 383 200 383 200 383 252 c 128,-1,36
 383 304 383 304 381 328.5 c 128,-1,37
 379 353 379 353 371.5 379 c 128,-1,38
 364 405 364 405 350.5 421 c 128,-1,18
 337 437 337 437 314 447 c 128,-1,19
EndSplineSet
EndChar

StartChar: p
Encoding: 112 112 83
Width: 532
GlyphClass: 2
Flags: W
LayerCount: 2
Fore
SplineSet
159 469 m 1,0,1
 216 537 216 537 303 537 c 128,-1,2
 390 537 390 537 438.5 475.5 c 128,-1,3
 487 414 487 414 487 262 c 0,4,5
 487 185 487 185 466.5 128.5 c 128,-1,6
 446 72 446 72 413 43 c 0,7,8
 350 -12 350 -12 277 -12 c 128,-1,9
 204 -12 204 -12 170 20 c 1,10,-1
 167 19 l 1,11,-1
 170 -6 l 1,12,-1
 170 -184 l 1,13,-1
 80 -194 l 1,14,-1
 80 381 l 1,15,-1
 72 520 l 1,16,-1
 145 530 l 1,17,-1
 155 469 l 1,18,-1
 159 469 l 1,0,1
170 94 m 1,19,20
 213 68 213 68 270 68 c 128,-1,21
 327 68 327 68 359 110.5 c 128,-1,22
 391 153 391 153 391 268 c 0,23,24
 391 407 391 407 339 442 c 0,25,26
 317 457 317 457 285 457 c 0,27,28
 209 457 209 457 170 407 c 1,29,-1
 170 94 l 1,19,20
EndSplineSet
EndChar

StartChar: q
Encoding: 113 113 84
Width: 528
GlyphClass: 2
Flags: W
LayerCount: 2
Fore
SplineSet
363 430 m 1,0,1
 319 457 319 457 257 457 c 128,-1,2
 195 457 195 457 168 406 c 128,-1,3
 141 355 141 355 141 247 c 0,4,5
 141 68 141 68 255 68 c 0,6,7
 327 68 327 68 363 117 c 1,8,-1
 363 430 l 1,0,1
226 -12 m 0,9,10
 158 -12 158 -12 106 40 c 0,11,12
 45 101 45 101 45 252 c 0,13,14
 45 335 45 335 65 393.5 c 128,-1,15
 85 452 85 452 120 482 c 0,16,17
 183 537 183 537 273 537 c 0,18,19
 316 537 316 537 368 527 c 128,-1,20
 420 517 420 517 453 501 c 1,21,-1
 453 -183 l 1,22,-1
 363 -193 l 1,23,-1
 363 -8 l 1,24,-1
 368 43 l 1,25,-1
 364 43 l 1,26,27
 318 -12 318 -12 226 -12 c 0,9,10
EndSplineSet
EndChar

StartChar: r
Encoding: 114 114 85
Width: 365
GlyphClass: 2
Flags: W
LayerCount: 2
Fore
SplineSet
293 537 m 0,0,1
 319 537 319 537 332.5 532.5 c 128,-1,2
 346 528 346 528 355 525.5 c 128,-1,3
 364 523 364 523 366 522 c 1,4,-1
 350 432 l 1,5,6
 320 442 320 442 278.5 442 c 128,-1,7
 237 442 237 442 203.5 406.5 c 128,-1,8
 170 371 170 371 170 321 c 2,9,-1
 170 0 l 1,10,-1
 80 0 l 1,11,-1
 80 381 l 1,12,-1
 72 520 l 1,13,-1
 145 530 l 1,14,-1
 156 429 l 1,15,-1
 160 429 l 1,16,17
 177 478 177 478 211.5 507.5 c 128,-1,18
 246 537 246 537 293 537 c 0,0,1
EndSplineSet
EndChar

StartChar: s
Encoding: 115 115 86
Width: 429
GlyphClass: 2
Flags: W
LayerCount: 2
Fore
SplineSet
88.5 496 m 128,-1,1
 137 537 137 537 214 537 c 128,-1,2
 291 537 291 537 334 499.5 c 128,-1,3
 377 462 377 462 383 399 c 1,4,-1
 290 380 l 1,5,6
 288 417 288 417 266 438 c 128,-1,7
 244 459 244 459 209 459 c 128,-1,8
 174 459 174 459 155 442.5 c 128,-1,9
 136 426 136 426 136 402 c 128,-1,10
 136 378 136 378 144 363 c 128,-1,11
 152 348 152 348 170 336 c 0,12,13
 194 319 194 319 237 301.5 c 128,-1,14
 280 284 280 284 300 273.5 c 128,-1,15
 320 263 320 263 346 244 c 0,16,17
 395 209 395 209 395 143.5 c 128,-1,18
 395 78 395 78 343 33 c 128,-1,19
 291 -12 291 -12 206 -12 c 128,-1,20
 121 -12 121 -12 37 42 c 1,21,-1
 72 108 l 1,22,23
 166 68 166 68 217 68 c 0,24,25
 299 68 299 68 299 132 c 0,26,27
 299 161 299 161 273.5 180.5 c 128,-1,28
 248 200 248 200 205 218.5 c 128,-1,29
 162 237 162 237 141.5 247.5 c 128,-1,30
 121 258 121 258 94 278 c 0,31,32
 40 318 40 318 40 386.5 c 128,-1,0
 40 455 40 455 88.5 496 c 128,-1,1
EndSplineSet
EndChar

StartChar: t
Encoding: 116 116 87
Width: 350
GlyphClass: 2
Flags: W
LayerCount: 2
Fore
SplineSet
185 525 m 1,0,-1
 328 525 l 1,1,-1
 316 449 l 1,2,-1
 185 449 l 1,3,-1
 185 205 l 2,4,5
 185 127 185 127 198.5 96.5 c 128,-1,6
 212 66 212 66 260 66 c 0,7,8
 287 66 287 66 313 77 c 1,9,-1
 339 20 l 1,10,11
 327 8 327 8 295 -2 c 128,-1,12
 263 -12 263 -12 237 -12 c 0,13,14
 149 -12 149 -12 122 37 c 128,-1,15
 95 86 95 86 95 199 c 2,16,-1
 95 449 l 1,17,-1
 9 449 l 1,18,-1
 19 519 l 1,19,-1
 95 525 l 1,20,-1
 100 635 l 1,21,-1
 185 660 l 1,22,-1
 185 525 l 1,0,-1
EndSplineSet
EndChar

StartChar: u
Encoding: 117 117 88
Width: 543
GlyphClass: 2
Flags: W
LayerCount: 2
Fore
SplineSet
231 -12 m 0,0,1
 163 -12 163 -12 119 30 c 128,-1,2
 75 72 75 72 75 160 c 2,3,-1
 75 521 l 1,4,-1
 165 530 l 1,5,-1
 165 171 l 2,6,7
 165 68 165 68 262 68 c 0,8,9
 326 68 326 68 373 115 c 1,10,-1
 373 521 l 1,11,-1
 463 530 l 1,12,-1
 463 144 l 1,13,-1
 471 5 l 1,14,-1
 398 -5 l 1,15,-1
 387 56 l 1,16,-1
 383 56 l 1,17,18
 326 -12 326 -12 231 -12 c 0,0,1
EndSplineSet
EndChar

StartChar: v
Encoding: 118 118 89
Width: 435
GlyphClass: 2
Flags: W
LayerCount: 2
Fore
SplineSet
340 531 m 1,0,-1
 423 521 l 1,1,-1
 279 0 l 1,2,-1
 163 0 l 1,3,-1
 12 521 l 1,4,-1
 102 531 l 1,5,-1
 220 88 l 1,6,-1
 225 88 l 1,7,-1
 340 531 l 1,0,-1
EndSplineSet
EndChar

StartChar: w
Encoding: 119 119 90
Width: 683
GlyphClass: 2
Flags: W
LayerCount: 2
Fore
SplineSet
583 531 m 1,0,-1
 666 521 l 1,1,-1
 549 0 l 1,2,-1
 432 0 l 1,3,-1
 343 391 l 1,4,-1
 337 391 l 1,5,-1
 252 0 l 1,6,-1
 135 0 l 1,7,-1
 17 521 l 1,8,-1
 105 531 l 1,9,-1
 194 90 l 1,10,-1
 201 90 l 1,11,-1
 292 495 l 1,12,-1
 393 505 l 1,13,-1
 489 90 l 1,14,-1
 496 90 l 1,15,-1
 583 531 l 1,0,-1
EndSplineSet
EndChar

StartChar: x
Encoding: 120 120 91
Width: 428
GlyphClass: 2
Flags: W
LayerCount: 2
Fore
SplineSet
325 530 m 1,0,-1
 416 520 l 1,1,-1
 265 278 l 1,2,-1
 440 5 l 1,3,-1
 343 -5 l 1,4,-1
 218 205 l 1,5,-1
 213 205 l 1,6,-1
 90 -5 l 1,7,-1
 -2 5 l 1,8,-1
 162 277 l 1,9,-1
 11 520 l 1,10,-1
 106 530 l 1,11,-1
 214 348 l 1,12,-1
 219 348 l 1,13,-1
 325 530 l 1,0,-1
EndSplineSet
EndChar

StartChar: y
Encoding: 121 121 92
Width: 430
GlyphClass: 2
Flags: W
LayerCount: 2
Fore
SplineSet
333 529 m 1,0,-1
 420 519 l 1,1,-1
 297 104 l 2,2,3
 256 -36 256 -36 221 -99 c 0,4,5
 199 -138 199 -138 150 -168.5 c 128,-1,6
 101 -199 101 -199 65 -200 c 1,7,-1
 28 -127 l 1,8,9
 76 -123 76 -123 119.5 -91 c 128,-1,10
 163 -59 163 -59 172 -8 c 1,11,12
 100 217 100 217 5 520 c 1,13,-1
 99 530 l 1,14,-1
 213 101 l 1,15,-1
 219 101 l 1,16,-1
 333 529 l 1,0,-1
EndSplineSet
EndChar

StartChar: z
Encoding: 122 122 93
Width: 407
GlyphClass: 2
Flags: W
LayerCount: 2
Fore
SplineSet
377 525 m 1,0,-1
 377 442 l 1,1,-1
 118 76 l 1,2,-1
 397 76 l 1,3,-1
 382 0 l 1,4,-1
 19 0 l 1,5,-1
 19 84 l 1,6,-1
 272 449 l 1,7,-1
 21 449 l 1,8,-1
 34 525 l 1,9,-1
 377 525 l 1,0,-1
EndSplineSet
EndChar

StartChar: braceleft
Encoding: 123 123 94
Width: 347
GlyphClass: 2
Flags: W
LayerCount: 2
Fore
SplineSet
222 617 m 1,0,-1
 232 454 l 1,1,2
 232 418 232 418 218.5 390 c 128,-1,3
 205 362 205 362 185 348 c 0,4,5
 144 318 144 318 115 316 c 1,6,-1
 115 310 l 1,7,8
 170 305 170 305 208 251 c 0,9,10
 232 218 232 218 232 181.5 c 128,-1,11
 232 145 232 145 226 91 c 128,-1,12
 220 37 220 37 220 8 c 0,13,14
 220 -115 220 -115 349 -127 c 1,15,-1
 360 -187 l 1,16,-1
 324 -187 l 2,17,18
 256 -187 256 -187 198 -148 c 0,19,20
 168 -128 168 -128 149 -92.5 c 128,-1,21
 130 -57 130 -57 130 -19.5 c 128,-1,22
 130 18 130 18 136 75 c 128,-1,23
 142 132 142 132 142 164 c 0,24,25
 142 221 142 221 118 245 c 128,-1,26
 94 269 94 269 45 276 c 1,27,-1
 45 350 l 1,28,29
 93 356 93 356 117.5 380 c 128,-1,30
 142 404 142 404 142 461 c 0,31,32
 142 490 142 490 136 548 c 128,-1,33
 130 606 130 606 130 637 c 0,34,35
 130 725 130 725 191.5 769 c 128,-1,36
 253 813 253 813 324 813 c 2,37,-1
 359 813 l 1,38,-1
 349 753 l 1,39,40
 222 742 222 742 222 617 c 1,0,-1
EndSplineSet
EndChar

StartChar: bar
Encoding: 124 124 95
Width: 265
GlyphClass: 2
Flags: W
LayerCount: 2
Fore
SplineSet
170 760 m 1,0,-1
 170 -150 l 1,1,-1
 95 -150 l 1,2,-1
 95 760 l 1,3,-1
 170 760 l 1,0,-1
EndSplineSet
EndChar

StartChar: braceright
Encoding: 125 125 96
Width: 346
GlyphClass: 2
Flags: W
LayerCount: 2
Fore
SplineSet
114 454 m 1,0,-1
 124 617 l 1,1,2
 124 742 124 742 -3 753 c 1,3,-1
 -13 813 l 1,4,-1
 22 813 l 2,5,6
 93 813 93 813 154.5 769 c 128,-1,7
 216 725 216 725 216 637 c 0,8,9
 216 606 216 606 210 548 c 128,-1,10
 204 490 204 490 204 461 c 0,11,12
 204 404 204 404 228.5 380 c 128,-1,13
 253 356 253 356 301 350 c 1,14,-1
 301 276 l 1,15,16
 252 269 252 269 228 245 c 128,-1,17
 204 221 204 221 204 164 c 0,18,19
 204 132 204 132 210 75 c 128,-1,20
 216 18 216 18 216 -19.5 c 128,-1,21
 216 -57 216 -57 197 -92.5 c 128,-1,22
 178 -128 178 -128 148 -148 c 0,23,24
 89 -187 89 -187 22 -187 c 2,25,-1
 -14 -187 l 1,26,-1
 -3 -127 l 1,27,28
 126 -115 126 -115 126 8 c 0,29,30
 126 37 126 37 120 91 c 128,-1,31
 114 145 114 145 114 181.5 c 128,-1,32
 114 218 114 218 138 251 c 0,33,34
 176 305 176 305 231 310 c 1,35,-1
 231 316 l 1,36,37
 202 318 202 318 161 348 c 0,38,39
 141 362 141 362 127.5 390 c 128,-1,40
 114 418 114 418 114 454 c 1,0,-1
EndSplineSet
EndChar

StartChar: asciitilde
Encoding: 126 126 97
Width: 531
GlyphClass: 2
Flags: W
LayerCount: 2
Fore
SplineSet
367 209 m 0,0,1
 324 209 324 209 260 234 c 128,-1,2
 196 259 196 259 171.5 259 c 128,-1,3
 147 259 147 259 132 254 c 128,-1,4
 117 249 117 249 110 244 c 1,5,6
 88 232 88 232 66 214 c 1,7,-1
 41 275 l 1,8,9
 110 339 110 339 159 339 c 128,-1,10
 208 339 208 339 272 313 c 128,-1,11
 336 287 336 287 360.5 287 c 128,-1,12
 385 287 385 287 400 292 c 128,-1,13
 415 297 415 297 422 302 c 1,14,15
 444 314 444 314 466 332 c 1,16,-1
 491 271 l 1,17,18
 424 209 424 209 367 209 c 0,0,1
EndSplineSet
EndChar

StartChar: exclamdown
Encoding: 161 161 98
Width: 260
GlyphClass: 2
Flags: W
LayerCount: 2
Fore
SplineSet
170 323 m 1,0,-1
 187 -175 l 1,1,-1
 83 -185 l 1,2,-1
 100 313 l 1,3,-1
 170 323 l 1,0,-1
138 538 m 0,4,5
 199 538 199 538 199 470 c 0,6,7
 199 445 199 445 182.5 427 c 128,-1,8
 166 409 166 409 131 409 c 0,9,10
 70 409 70 409 70 477 c 0,11,12
 70 502 70 502 86.5 520 c 128,-1,13
 103 538 103 538 138 538 c 0,4,5
EndSplineSet
EndChar

StartChar: cent
Encoding: 162 162 99
Width: 482
GlyphClass: 2
Flags: W
LayerCount: 2
Fore
SplineSet
306 536 m 0,0,1
 230 536 230 536 191 483.5 c 128,-1,2
 152 431 152 431 152 326.5 c 128,-1,3
 152 222 152 222 181 184.5 c 128,-1,4
 210 147 210 147 272 147 c 128,-1,5
 334 147 334 147 392 176 c 1,6,-1
 413 117 l 1,7,8
 360 74 360 74 277 67 c 1,9,-1
 277 -63 l 1,10,-1
 195 -73 l 1,11,-1
 216 68 l 1,12,13
 140 79 140 79 98 135.5 c 128,-1,14
 56 192 56 192 56 288 c 0,15,16
 56 427 56 427 110 516 c 128,-1,17
 164 605 164 605 272 615 c 1,18,-1
 277 739 l 1,19,-1
 359 749 l 1,20,-1
 331 614 l 1,21,22
 394 607 394 607 448 570 c 1,23,-1
 412 509 l 1,24,25
 351 536 351 536 306 536 c 0,0,1
EndSplineSet
EndChar

StartChar: sterling
Encoding: 163 163 100
Width: 459
GlyphClass: 2
Flags: W
LayerCount: 2
Fore
SplineSet
324 537 m 0,0,1
 238 537 238 537 227 453 c 0,2,3
 225 441 225 441 223 391 c 1,4,-1
 390 391 l 1,5,-1
 360 322 l 1,6,-1
 219 322 l 1,7,8
 212 209 212 209 167 170 c 1,9,10
 186 167 186 167 229 152 c 128,-1,11
 272 137 272 137 309 137 c 128,-1,12
 346 137 346 137 396 169 c 1,13,-1
 417 109 l 1,14,15
 362 61 362 61 295 61 c 0,16,17
 253 61 253 61 198 80.5 c 128,-1,18
 143 100 143 100 113 100 c 128,-1,19
 83 100 83 100 44 73 c 1,20,-1
 15 126 l 1,21,22
 40 148 40 148 78 163 c 1,23,24
 104 181 104 181 115 205.5 c 128,-1,25
 126 230 126 230 129 271 c 2,26,-1
 132 322 l 1,27,-1
 45 322 l 1,28,-1
 63 382 l 1,29,-1
 136 391 l 1,30,-1
 140 447 l 1,31,32
 148 543 148 543 206 582 c 0,33,34
 257 616 257 616 325 616 c 0,35,36
 367 616 367 616 389 609.5 c 128,-1,37
 411 603 411 603 416 602 c 128,-1,38
 421 601 421 601 441.5 591.5 c 128,-1,39
 462 582 462 582 463 582 c 2,40,-1
 429 520 l 1,41,42
 385 537 385 537 324 537 c 0,0,1
EndSplineSet
EndChar

StartChar: currency
Encoding: 164 164 101
Width: 618
GlyphClass: 2
Flags: W
LayerCount: 2
Fore
SplineSet
485 486 m 1,0,1
 523 438 523 438 523 346 c 128,-1,2
 523 254 523 254 468 188 c 1,3,-1
 548 108 l 1,4,-1
 484 56 l 1,5,-1
 421 147 l 1,6,7
 367 115 367 115 290.5 115 c 128,-1,8
 214 115 214 115 169 143 c 1,9,-1
 107 56 l 1,10,-1
 45 110 l 1,11,-1
 123 187 l 1,12,13
 89 234 89 234 89 312 c 0,14,15
 89 428 89 428 160 494 c 1,16,-1
 87 579 l 1,17,-1
 154 627 l 1,18,-1
 212 529 l 1,19,20
 263 552 263 552 328.5 552 c 128,-1,21
 394 552 394 552 440 526 c 1,22,-1
 523 627 l 1,23,-1
 583 571 l 1,24,-1
 485 486 l 1,0,1
314 471 m 0,25,26
 185 471 185 471 185 317 c 0,27,28
 185 196 185 196 297 196 c 0,29,30
 427 196 427 196 427 350 c 0,31,32
 427 471 427 471 314 471 c 0,25,26
EndSplineSet
EndChar

StartChar: yen
Encoding: 165 165 102
Width: 459
GlyphClass: 2
Flags: W
LayerCount: 2
Fore
SplineSet
368 614 m 1,0,-1
 453 604 l 1,1,-1
 290 303 l 1,2,-1
 411 303 l 1,3,-1
 382 245 l 1,4,-1
 265 245 l 1,5,-1
 258 195 l 1,6,-1
 392 195 l 1,7,-1
 363 137 l 1,8,-1
 250 137 l 1,9,-1
 241 70 l 1,10,-1
 151 70 l 1,11,-1
 160 137 l 1,12,-1
 23 137 l 1,13,-1
 52 195 l 1,14,-1
 168 195 l 1,15,-1
 175 245 l 1,16,-1
 42 245 l 1,17,-1
 71 303 l 1,18,-1
 164 303 l 1,19,-1
 64 604 l 1,20,-1
 149 614 l 1,21,-1
 225 332 l 1,22,-1
 233 332 l 1,23,-1
 368 614 l 1,0,-1
EndSplineSet
EndChar

StartChar: brokenbar
Encoding: 166 166 103
Width: 265
GlyphClass: 2
Flags: W
LayerCount: 2
Fore
SplineSet
95 190 m 1,0,-1
 170 190 l 1,1,-1
 170 -150 l 1,2,-1
 95 -150 l 1,3,-1
 95 190 l 1,0,-1
95 760 m 1,4,-1
 170 760 l 1,5,-1
 170 420 l 1,6,-1
 95 420 l 1,7,-1
 95 760 l 1,4,-1
EndSplineSet
EndChar

StartChar: section
Encoding: 167 167 104
Width: 514
GlyphClass: 2
Flags: W
LayerCount: 2
Fore
SplineSet
321.5 673.5 m 128,-1,1
 296 679 296 679 263 679 c 128,-1,2
 230 679 230 679 200.5 658.5 c 128,-1,3
 171 638 171 638 171 600 c 0,4,5
 171 570 171 570 181 557.5 c 128,-1,6
 191 545 191 545 195.5 539.5 c 128,-1,7
 200 534 200 534 216 525.5 c 128,-1,8
 232 517 232 517 238 514 c 0,9,10
 246 509 246 509 290 489.5 c 128,-1,11
 334 470 334 470 347.5 463.5 c 128,-1,12
 361 457 361 457 385.5 443.5 c 128,-1,13
 410 430 410 430 420 419.5 c 128,-1,14
 430 409 430 409 444 392 c 0,15,16
 466 365 466 365 466 312 c 0,17,18
 466 201 466 201 354 162 c 1,19,20
 446 113 446 113 446 22 c 0,21,22
 446 -55 446 -55 390 -101.5 c 128,-1,23
 334 -148 334 -148 238 -148 c 128,-1,24
 142 -148 142 -148 43 -94 c 1,25,-1
 76 -20 l 1,26,27
 98 -33 98 -33 150.5 -50.5 c 128,-1,28
 203 -68 203 -68 247.5 -68 c 128,-1,29
 292 -68 292 -68 320 -48 c 128,-1,30
 348 -28 348 -28 348 12 c 0,31,32
 348 69 348 69 260 108 c 0,33,34
 188 139 188 139 163 152 c 128,-1,35
 138 165 138 165 109 186 c 0,36,37
 54 227 54 227 54 300 c 0,38,39
 54 350 54 350 84.5 388 c 128,-1,40
 115 426 115 426 162 449 c 1,41,42
 73 502 73 502 73 583.5 c 128,-1,43
 73 665 73 665 127 712.5 c 128,-1,44
 181 760 181 760 280 760 c 128,-1,45
 379 760 379 760 458 706 c 1,46,-1
 427 636 l 2,47,48
 426 636 426 636 398.5 648 c 128,-1,49
 371 660 371 660 359 664 c 128,-1,0
 347 668 347 668 321.5 673.5 c 128,-1,1
152 313 m 0,50,51
 152 274 152 274 183 249 c 128,-1,52
 214 224 214 224 277 197 c 1,53,54
 318 204 318 204 343.5 233 c 128,-1,55
 369 262 369 262 369 298.5 c 128,-1,56
 369 335 369 335 342 359 c 128,-1,57
 315 383 315 383 238 413 c 1,58,59
 152 387 152 387 152 313 c 0,50,51
EndSplineSet
EndChar

StartChar: dieresis
Encoding: 168 168 105
Width: 376
GlyphClass: 2
Flags: W
LayerCount: 2
Fore
SplineSet
100 711 m 0,0,1
 152 711 152 711 152 652 c 0,2,3
 152 600 152 600 93 600 c 0,4,5
 40 600 40 600 40 659 c 0,6,7
 40 684 40 684 52.5 697.5 c 128,-1,8
 65 711 65 711 100 711 c 0,0,1
283 711 m 0,9,10
 336 711 336 711 336 652 c 0,11,12
 336 627 336 627 323.5 613.5 c 128,-1,13
 311 600 311 600 276 600 c 0,14,15
 224 600 224 600 224 659 c 0,16,17
 224 711 224 711 283 711 c 0,9,10
EndSplineSet
EndChar

StartChar: copyright
Encoding: 169 169 106
Width: 760
GlyphClass: 2
Flags: W
LayerCount: 2
Fore
SplineSet
277.5 405 m 128,-1,1
 319 460 319 460 391.5 460 c 128,-1,2
 464 460 464 460 487.5 428 c 128,-1,3
 511 396 511 396 511 334 c 1,4,-1
 441 328 l 1,5,6
 441 364 441 364 429.5 380 c 128,-1,7
 418 396 418 396 381.5 396 c 128,-1,8
 345 396 345 396 328 364 c 128,-1,9
 311 332 311 332 311 264 c 0,10,11
 311 137 311 137 385 137 c 0,12,13
 412 137 412 137 426.5 150 c 128,-1,14
 441 163 441 163 441 198 c 1,15,-1
 511 191 l 1,16,17
 511 136 511 136 474.5 104 c 128,-1,18
 438 72 438 72 382 72 c 0,19,20
 236 72 236 72 236 257 c 0,21,0
 236 350 236 350 277.5 405 c 128,-1,1
139.5 523.5 m 128,-1,23
 234 624 234 624 391.5 624 c 128,-1,24
 549 624 549 624 632 526 c 128,-1,25
 715 428 715 428 715 268.5 c 128,-1,26
 715 109 715 109 620.5 9 c 128,-1,27
 526 -91 526 -91 368.5 -91 c 128,-1,28
 211 -91 211 -91 128 6.5 c 128,-1,29
 45 104 45 104 45 263.5 c 128,-1,22
 45 423 45 423 139.5 523.5 c 128,-1,23
582.5 476 m 128,-1,31
 520 553 520 553 391.5 553 c 128,-1,32
 263 553 263 553 189 473.5 c 128,-1,33
 115 394 115 394 115 265 c 128,-1,34
 115 136 115 136 180.5 58 c 128,-1,35
 246 -20 246 -20 371.5 -20 c 128,-1,36
 497 -20 497 -20 571 59 c 128,-1,37
 645 138 645 138 645 268.5 c 128,-1,30
 645 399 645 399 582.5 476 c 128,-1,31
EndSplineSet
EndChar

StartChar: ordfeminine
Encoding: 170 170 107
Width: 369
GlyphClass: 2
Flags: W
LayerCount: 2
Fore
SplineSet
300 676 m 1,0,1
 319 644 319 644 319 589 c 2,2,-1
 319 456 l 2,3,4
 319 393 319 393 327.5 372 c 128,-1,5
 336 351 336 351 352 333 c 1,6,-1
 305 297 l 1,7,8
 272 321 272 321 257 350 c 1,9,-1
 252 350 l 1,10,11
 201 298 201 298 140 298 c 0,12,13
 36 298 36 298 36 407 c 0,14,15
 36 514 36 514 169 532 c 1,16,-1
 249 544 l 1,17,-1
 249 585 l 2,18,19
 249 621 249 621 233 639.5 c 128,-1,20
 217 658 217 658 175 658 c 128,-1,21
 133 658 133 658 73 638 c 1,22,-1
 51 686 l 1,23,24
 122 717 122 717 200 717 c 128,-1,25
 278 717 278 717 300 676 c 1,0,1
112 412 m 0,26,27
 112 358 112 358 165 358 c 0,28,29
 213 358 213 358 249 397 c 1,30,-1
 249 496 l 1,31,32
 172 483 172 483 142 468 c 128,-1,33
 112 453 112 453 112 412 c 0,26,27
EndSplineSet
EndChar

StartChar: guillemotleft
Encoding: 171 171 108
Width: 442
GlyphClass: 2
Flags: W
LayerCount: 2
Fore
SplineSet
222 447 m 1,0,-1
 128 248 l 1,1,-1
 222 49 l 1,2,-1
 159 31 l 1,3,-1
 40 248 l 1,4,-1
 159 465 l 1,5,-1
 222 447 l 1,0,-1
402 447 m 1,6,-1
 308 248 l 1,7,-1
 402 49 l 1,8,-1
 339 31 l 1,9,-1
 220 248 l 1,10,-1
 339 465 l 1,11,-1
 402 447 l 1,6,-1
EndSplineSet
EndChar

StartChar: logicalnot
Encoding: 172 172 109
Width: 561
GlyphClass: 2
Flags: W
LayerCount: 2
Fore
SplineSet
506 328 m 1,0,-1
 506 97 l 1,1,-1
 432 87 l 1,2,-1
 432 253 l 1,3,-1
 40 253 l 1,4,-1
 52 328 l 1,5,-1
 506 328 l 1,0,-1
EndSplineSet
EndChar

StartChar: registered
Encoding: 174 174 110
Width: 534
GlyphClass: 2
Flags: W
LayerCount: 2
Fore
SplineSet
184 645 m 1,0,-1
 285 645 l 2,1,2
 321 645 321 645 338 625.5 c 128,-1,3
 355 606 355 606 355 575 c 0,4,5
 355 522 355 522 302 502 c 1,6,-1
 370 393 l 1,7,-1
 312 393 l 1,8,-1
 254 491 l 1,9,-1
 236 491 l 1,10,-1
 236 393 l 1,11,-1
 184 393 l 1,12,-1
 184 645 l 1,0,-1
236 608 m 1,13,-1
 236 528 l 1,14,-1
 265 528 l 2,15,16
 282 528 282 528 291.5 540 c 128,-1,17
 301 552 301 552 301 571 c 0,18,19
 301 608 301 608 267 608 c 2,20,-1
 236 608 l 1,13,-1
104.5 692 m 128,-1,22
 169 760 169 760 275.5 760 c 128,-1,23
 382 760 382 760 438 694 c 128,-1,24
 494 628 494 628 494 520 c 128,-1,25
 494 412 494 412 430 344 c 128,-1,26
 366 276 366 276 259 276 c 128,-1,27
 152 276 152 276 96 342 c 128,-1,28
 40 408 40 408 40 516 c 128,-1,21
 40 624 40 624 104.5 692 c 128,-1,22
401.5 657 m 128,-1,30
 360 708 360 708 275 708 c 128,-1,31
 190 708 190 708 140.5 655.5 c 128,-1,32
 91 603 91 603 91 517 c 128,-1,33
 91 431 91 431 134.5 379.5 c 128,-1,34
 178 328 178 328 261.5 328 c 128,-1,35
 345 328 345 328 394 380.5 c 128,-1,36
 443 433 443 433 443 519.5 c 128,-1,29
 443 606 443 606 401.5 657 c 128,-1,30
EndSplineSet
EndChar

StartChar: macron
Encoding: 175 175 111
Width: 340
GlyphClass: 2
Flags: W
LayerCount: 2
Fore
SplineSet
40 691 m 1,0,-1
 300 691 l 1,1,-1
 300 621 l 1,2,-1
 40 621 l 1,3,-1
 40 691 l 1,0,-1
EndSplineSet
EndChar

StartChar: degree
Encoding: 176 176 112
Width: 344
GlyphClass: 2
Flags: W
LayerCount: 2
Fore
SplineSet
176 712 m 0,0,1
 214 712 214 712 241.5 698.5 c 128,-1,2
 269 685 269 685 282 664 c 1,3,4
 305 623 305 623 305 583 c 0,5,6
 305 519 305 519 267 480.5 c 128,-1,7
 229 442 229 442 163 442 c 128,-1,8
 97 442 97 442 66 484 c 128,-1,9
 35 526 35 526 35 571 c 0,10,11
 35 635 35 635 74.5 673.5 c 128,-1,12
 114 712 114 712 176 712 c 0,0,1
222 633.5 m 128,-1,14
 205 654 205 654 170 654 c 128,-1,15
 135 654 135 654 119 631 c 128,-1,16
 103 608 103 608 103 575 c 128,-1,17
 103 542 103 542 120.5 521 c 128,-1,18
 138 500 138 500 172 500 c 0,19,20
 239 500 239 500 239 580 c 0,21,13
 239 613 239 613 222 633.5 c 128,-1,14
EndSplineSet
EndChar

StartChar: plusminus
Encoding: 177 177 113
Width: 494
GlyphClass: 2
Flags: W
LayerCount: 2
Fore
SplineSet
284 387 m 1,0,-1
 452 387 l 1,1,-1
 440 312 l 1,2,-1
 284 312 l 1,3,-1
 284 156 l 1,4,-1
 209 143 l 1,5,-1
 209 312 l 1,6,-1
 40 312 l 1,7,-1
 52 387 l 1,8,-1
 209 387 l 1,9,-1
 209 543 l 1,10,-1
 284 556 l 1,11,-1
 284 387 l 1,0,-1
454 88 m 1,12,-1
 442 13 l 1,13,-1
 42 13 l 1,14,-1
 54 88 l 1,15,-1
 454 88 l 1,12,-1
EndSplineSet
EndChar

StartChar: twosuperior
Encoding: 178 178 114
Width: 380
GlyphClass: 2
Flags: W
LayerCount: 2
Fore
SplineSet
55 684 m 1,0,1
 112 717 112 717 178 717 c 128,-1,2
 244 717 244 717 277.5 684.5 c 128,-1,3
 311 652 311 652 311 607 c 128,-1,4
 311 562 311 562 290 525 c 128,-1,5
 269 488 269 488 246 466 c 0,6,7
 224 445 224 445 123 362 c 1,8,-1
 124 357 l 1,9,-1
 177 367 l 1,10,-1
 320 367 l 1,11,-1
 305 304 l 1,12,-1
 55 304 l 1,13,-1
 55 382 l 1,14,-1
 155 468 l 2,15,16
 238 539 238 539 238 591 c 0,17,18
 238 660 238 660 164 660 c 0,19,20
 121 660 121 660 77 640 c 1,21,-1
 55 684 l 1,0,1
EndSplineSet
EndChar

StartChar: threesuperior
Encoding: 179 179 115
Width: 363
GlyphClass: 2
Flags: W
LayerCount: 2
Fore
SplineSet
51 689 m 1,0,1
 113 717 113 717 174.5 717 c 128,-1,2
 236 717 236 717 265 691 c 128,-1,3
 294 665 294 665 294 624 c 0,4,5
 294 557 294 557 230 525 c 1,6,7
 230 522 230 522 251 510.5 c 128,-1,8
 272 499 272 499 292.5 475.5 c 128,-1,9
 313 452 313 452 313 422 c 0,10,11
 313 362 313 362 274.5 330 c 128,-1,12
 236 298 236 298 173 298 c 0,13,14
 83 298 83 298 35 337 c 1,15,-1
 57 381 l 1,16,17
 122 354 122 354 170 354 c 0,18,19
 240 354 240 354 240 424 c 0,20,21
 240 455 240 455 219.5 472 c 128,-1,22
 199 489 199 489 163 489 c 2,23,-1
 109 489 l 1,24,-1
 109 540 l 1,25,26
 221 540 221 540 221 613 c 0,27,28
 221 661 221 661 161 661 c 0,29,30
 126 661 126 661 75 647 c 1,31,-1
 51 689 l 1,0,1
EndSplineSet
EndChar

StartChar: acute
Encoding: 180 180 116
Width: 309
GlyphClass: 2
Flags: W
LayerCount: 2
Fore
SplineSet
216 750 m 1,0,-1
 269 681 l 1,1,-1
 82 564 l 1,2,-1
 40 614 l 1,3,-1
 216 750 l 1,0,-1
EndSplineSet
EndChar

StartChar: mu
Encoding: 181 181 117
AltUni2: 0003bc.ffffffff.0
Width: 569
GlyphClass: 2
Flags: W
LayerCount: 2
Fore
SplineSet
484 154 m 2,0,1
 484 82 484 82 525 40 c 1,2,-1
 472 -12 l 1,3,4
 431 11 431 11 409 62 c 1,5,6
 349 -12 349 -12 252 -12 c 0,7,8
 230 -12 230 -12 203.5 -1.5 c 128,-1,9
 177 9 177 9 167 27 c 1,10,-1
 164 26 l 1,11,-1
 175 -41 l 1,12,-1
 175 -184 l 1,13,-1
 85 -194 l 1,14,-1
 85 521 l 1,15,-1
 176 530 l 1,16,-1
 176 168 l 2,17,18
 176 118 176 118 205.5 92 c 128,-1,19
 235 66 235 66 280 66 c 0,20,21
 347 66 347 66 394 115 c 1,22,-1
 394 521 l 1,23,-1
 484 530 l 1,24,-1
 484 154 l 2,0,1
EndSplineSet
EndChar

StartChar: paragraph
Encoding: 182 182 118
Width: 595
GlyphClass: 2
Flags: W
LayerCount: 2
Fore
SplineSet
538 700 m 1,0,-1
 538 647 l 1,1,-1
 495 647 l 1,2,-1
 495 113 l 2,3,4
 495 50 495 50 463.5 6.5 c 128,-1,5
 432 -37 432 -37 375 -78 c 2,6,-1
 270 -154 l 1,7,-1
 228 -105 l 1,8,9
 276 -71 276 -71 286.5 -45.5 c 128,-1,10
 297 -20 297 -20 297 46 c 2,11,-1
 297 261 l 1,12,-1
 231 261 l 2,13,14
 135 261 135 261 89 324 c 128,-1,15
 43 387 43 387 43 477 c 0,16,17
 43 700 43 700 232 700 c 2,18,-1
 538 700 l 1,0,-1
372 647 m 1,19,-1
 372 -6 l 1,20,21
 423 41 423 41 423 115 c 2,22,-1
 423 647 l 1,23,-1
 372 647 l 1,19,-1
194.5 544.5 m 128,-1,25
 192 518 192 518 192 457.5 c 128,-1,26
 192 397 192 397 209.5 354.5 c 128,-1,27
 227 312 227 312 271 312 c 2,28,-1
 297 312 l 1,29,-1
 297 649 l 1,30,-1
 271 649 l 2,31,32
 221 649 221 649 205 597 c 0,33,24
 197 571 197 571 194.5 544.5 c 128,-1,25
EndSplineSet
EndChar

StartChar: periodcentered
Encoding: 183 183 119
Width: 206
GlyphClass: 2
Flags: W
LayerCount: 2
Fore
SplineSet
103 370 m 0,0,1
 164 370 164 370 164 302 c 0,2,3
 164 277 164 277 147.5 259 c 128,-1,4
 131 241 131 241 96 241 c 0,5,6
 35 241 35 241 35 309 c 0,7,8
 35 334 35 334 51.5 352 c 128,-1,9
 68 370 68 370 103 370 c 0,0,1
EndSplineSet
EndChar

StartChar: cedilla
Encoding: 184 184 120
Width: 243
GlyphClass: 2
Flags: W
LayerCount: 2
Fore
SplineSet
177 -58 m 0,0,1
 208 -76 208 -76 208 -113 c 128,-1,2
 208 -150 208 -150 184.5 -169 c 128,-1,3
 161 -188 161 -188 121 -188 c 128,-1,4
 81 -188 81 -188 35 -165 c 1,5,-1
 53 -120 l 1,6,7
 90 -137 90 -137 118 -137 c 128,-1,8
 146 -137 146 -137 146 -111 c 0,9,10
 146 -96 146 -96 109.5 -86 c 128,-1,11
 73 -76 73 -76 70 -75 c 1,12,-1
 96 21 l 1,13,-1
 143 21 l 1,14,-1
 132 -44 l 1,15,16
 174 -56 174 -56 177 -58 c 0,0,1
EndSplineSet
EndChar

StartChar: onesuperior
Encoding: 185 185 121
Width: 329
GlyphClass: 2
Flags: W
LayerCount: 2
Fore
SplineSet
294 304 m 1,0,-1
 62 304 l 1,1,-1
 62 357 l 1,2,-1
 147 366 l 1,3,-1
 147 579 l 1,4,-1
 154 634 l 1,5,-1
 149 638 l 1,6,-1
 118 616 l 1,7,-1
 64 590 l 1,8,-1
 40 632 l 1,9,-1
 124 687 l 1,10,-1
 158 717 l 1,11,-1
 224 710 l 1,12,-1
 217 612 l 1,13,-1
 217 366 l 1,14,-1
 294 357 l 1,15,-1
 294 304 l 1,0,-1
EndSplineSet
EndChar

StartChar: ordmasculine
Encoding: 186 186 122
Width: 405
GlyphClass: 2
Flags: W
LayerCount: 2
Fore
SplineSet
346 646 m 0,0,1
 371 591 371 591 371 503.5 c 128,-1,2
 371 416 371 416 328 357 c 128,-1,3
 285 298 285 298 191 298 c 0,4,5
 92 298 92 298 60 368 c 0,6,7
 35 424 35 424 35 511.5 c 128,-1,8
 35 599 35 599 78 658 c 128,-1,9
 121 717 121 717 217.5 717 c 128,-1,10
 314 717 314 717 346 646 c 0,0,1
260.5 636 m 128,-1,12
 238 658 238 658 205.5 658 c 128,-1,13
 173 658 173 658 156 648.5 c 128,-1,14
 139 639 139 639 130.5 626.5 c 128,-1,15
 122 614 122 614 118 590 c 1,16,17
 111 557 111 557 111 495.5 c 128,-1,18
 111 434 111 434 130.5 395.5 c 128,-1,19
 150 357 150 357 208 357 c 0,20,21
 254 357 254 357 276 388 c 1,22,23
 295 417 295 417 295 510 c 0,24,25
 295 556 295 556 289 585 c 128,-1,11
 283 614 283 614 260.5 636 c 128,-1,12
EndSplineSet
EndChar

StartChar: guillemotright
Encoding: 187 187 123
Width: 442
GlyphClass: 2
Flags: W
LayerCount: 2
Fore
SplineSet
283 465 m 1,0,-1
 402 248 l 1,1,-1
 283 31 l 1,2,-1
 220 49 l 1,3,-1
 314 248 l 1,4,-1
 220 447 l 1,5,-1
 283 465 l 1,0,-1
103 465 m 1,6,-1
 222 248 l 1,7,-1
 103 31 l 1,8,-1
 40 49 l 1,9,-1
 134 248 l 1,10,-1
 40 447 l 1,11,-1
 103 465 l 1,6,-1
EndSplineSet
EndChar

StartChar: onequarter
Encoding: 188 188 124
Width: 735
GlyphClass: 2
Flags: W
LayerCount: 2
Fore
SplineSet
570 145 m 1,0,-1
 570 193 l 1,1,-1
 577 280 l 1,2,-1
 631 286 l 1,3,-1
 631 145 l 1,4,-1
 710 145 l 1,5,-1
 697 89 l 1,6,-1
 631 89 l 1,7,-1
 631 5 l 1,8,-1
 570 -3 l 1,9,-1
 570 89 l 1,10,-1
 388 89 l 1,11,-1
 388 158 l 1,12,-1
 555 416 l 1,13,-1
 602 385 l 1,14,-1
 458 145 l 1,15,-1
 570 145 l 1,0,-1
545 704 m 1,16,-1
 236 -12 l 1,17,-1
 183 15 l 1,18,-1
 493 731 l 1,19,-1
 545 704 l 1,16,-1
264 304 m 1,20,-1
 32 304 l 1,21,-1
 32 357 l 1,22,-1
 119 366 l 1,23,-1
 119 579 l 1,24,-1
 126 634 l 1,25,-1
 121 638 l 1,26,-1
 88 616 l 1,27,-1
 34 590 l 1,28,-1
 10 632 l 1,29,-1
 94 687 l 1,30,-1
 128 717 l 1,31,-1
 194 710 l 1,32,-1
 187 612 l 1,33,-1
 187 366 l 1,34,-1
 264 357 l 1,35,-1
 264 304 l 1,20,-1
EndSplineSet
EndChar

StartChar: onehalf
Encoding: 189 189 125
Width: 743
GlyphClass: 2
Flags: W
LayerCount: 2
Fore
SplineSet
453 380 m 1,0,1
 510 413 510 413 576 413 c 128,-1,2
 642 413 642 413 677 380.5 c 128,-1,3
 712 348 712 348 712 303 c 128,-1,4
 712 258 712 258 690 220.5 c 128,-1,5
 668 183 668 183 645 162 c 0,6,7
 631 148 631 148 521 58 c 1,8,-1
 522 53 l 1,9,-1
 575 63 l 1,10,-1
 718 63 l 1,11,-1
 703 0 l 1,12,-1
 453 0 l 1,13,-1
 453 78 l 1,14,-1
 552 165 l 2,15,16
 594 202 594 202 615 229.5 c 128,-1,17
 636 257 636 257 636 287 c 0,18,19
 636 355 636 355 562 355 c 0,20,21
 517 355 517 355 475 336 c 1,22,-1
 453 380 l 1,0,1
545 704 m 1,23,-1
 236 -12 l 1,24,-1
 183 15 l 1,25,-1
 493 731 l 1,26,-1
 545 704 l 1,23,-1
264 304 m 1,27,-1
 32 304 l 1,28,-1
 32 357 l 1,29,-1
 119 366 l 1,30,-1
 119 579 l 1,31,-1
 126 634 l 1,32,-1
 121 638 l 1,33,-1
 88 616 l 1,34,-1
 34 590 l 1,35,-1
 10 632 l 1,36,-1
 94 687 l 1,37,-1
 128 717 l 1,38,-1
 194 710 l 1,39,-1
 187 612 l 1,40,-1
 187 366 l 1,41,-1
 264 357 l 1,42,-1
 264 304 l 1,27,-1
EndSplineSet
EndChar

StartChar: threequarters
Encoding: 190 190 126
Width: 746
GlyphClass: 2
Flags: W
LayerCount: 2
Fore
SplineSet
556 704 m 1,0,-1
 247 -12 l 1,1,-1
 194 15 l 1,2,-1
 504 731 l 1,3,-1
 556 704 l 1,0,-1
41 689 m 1,4,5
 103 717 103 717 164.5 717 c 128,-1,6
 226 717 226 717 255 691 c 128,-1,7
 284 665 284 665 284 624 c 0,8,9
 284 557 284 557 220 525 c 1,10,11
 220 522 220 522 241 510.5 c 128,-1,12
 262 499 262 499 282.5 475.5 c 128,-1,13
 303 452 303 452 303 422 c 0,14,15
 303 362 303 362 264.5 330 c 128,-1,16
 226 298 226 298 163 298 c 0,17,18
 73 298 73 298 25 337 c 1,19,-1
 47 381 l 1,20,21
 112 354 112 354 160 354 c 0,22,23
 230 354 230 354 230 424 c 0,24,25
 230 455 230 455 209.5 472 c 128,-1,26
 189 489 189 489 153 489 c 2,27,-1
 99 489 l 1,28,-1
 99 540 l 1,29,30
 211 540 211 540 211 613 c 0,31,32
 211 661 211 661 151 661 c 0,33,34
 116 661 116 661 65 647 c 1,35,-1
 41 689 l 1,4,5
581 145 m 1,36,-1
 581 193 l 1,37,-1
 588 280 l 1,38,-1
 642 286 l 1,39,-1
 642 145 l 1,40,-1
 721 145 l 1,41,-1
 708 89 l 1,42,-1
 642 89 l 1,43,-1
 642 5 l 1,44,-1
 581 -3 l 1,45,-1
 581 89 l 1,46,-1
 399 89 l 1,47,-1
 399 158 l 1,48,-1
 566 416 l 1,49,-1
 613 385 l 1,50,-1
 469 145 l 1,51,-1
 581 145 l 1,36,-1
EndSplineSet
EndChar

StartChar: questiondown
Encoding: 191 191 127
Width: 434
GlyphClass: 2
Flags: W
LayerCount: 2
Fore
SplineSet
313 347 m 1,0,-1
 317 235 l 1,1,2
 316 185 316 185 257.5 142.5 c 128,-1,3
 199 100 199 100 176.5 67 c 128,-1,4
 154 34 154 34 154 -10 c 0,5,6
 154 -107 154 -107 268 -107 c 0,7,8
 309 -107 309 -107 378 -84 c 1,9,-1
 402 -145 l 1,10,11
 332 -187 332 -187 224 -187 c 0,12,13
 142 -187 142 -187 98 -143 c 128,-1,14
 54 -99 54 -99 54 -30 c 0,15,16
 54 62 54 62 109 118 c 0,17,18
 133 143 133 143 174 174.5 c 128,-1,19
 215 206 215 206 222.5 224 c 128,-1,20
 230 242 230 242 232 280 c 2,21,-1
 234 339 l 1,22,-1
 313 347 l 1,0,-1
271 537 m 0,23,24
 332 537 332 537 332 469 c 0,25,26
 332 444 332 444 315.5 426 c 128,-1,27
 299 408 299 408 264 408 c 0,28,29
 203 408 203 408 203 476 c 0,30,31
 203 501 203 501 219.5 519 c 128,-1,32
 236 537 236 537 271 537 c 0,23,24
EndSplineSet
EndChar

StartChar: Agrave
Encoding: 192 192 128
Width: 534
GlyphClass: 2
Flags: W
LayerCount: 2
Fore
SplineSet
348 792 m 1,0,-1
 315 736 l 1,1,-1
 107 821 l 1,2,-1
 145 898 l 1,3,-1
 348 792 l 1,0,-1
328 705 m 1,4,-1
 522 0 l 1,5,-1
 421 0 l 1,6,-1
 374 185 l 1,7,-1
 152 185 l 1,8,-1
 103 0 l 1,9,-1
 10 0 l 1,10,-1
 205 693 l 1,11,-1
 328 705 l 1,4,-1
262 615 m 1,12,-1
 175 267 l 1,13,-1
 354 267 l 1,14,-1
 269 615 l 1,15,-1
 262 615 l 1,12,-1
EndSplineSet
EndChar

StartChar: Aacute
Encoding: 193 193 129
Width: 534
GlyphClass: 2
Flags: W
LayerCount: 2
Fore
SplineSet
383 898 m 1,0,-1
 421 821 l 1,1,-1
 214 736 l 1,2,-1
 181 792 l 1,3,-1
 383 898 l 1,0,-1
328 705 m 1,4,-1
 522 0 l 1,5,-1
 421 0 l 1,6,-1
 374 185 l 1,7,-1
 152 185 l 1,8,-1
 103 0 l 1,9,-1
 10 0 l 1,10,-1
 205 693 l 1,11,-1
 328 705 l 1,4,-1
262 615 m 1,12,-1
 175 267 l 1,13,-1
 354 267 l 1,14,-1
 269 615 l 1,15,-1
 262 615 l 1,12,-1
EndSplineSet
EndChar

StartChar: Acircumflex
Encoding: 194 194 130
Width: 534
GlyphClass: 2
Flags: W
LayerCount: 2
Fore
SplineSet
293 885 m 1,0,-1
 420 779 l 1,1,-1
 382 735 l 1,2,-1
 267 812 l 1,3,-1
 152 735 l 1,4,-1
 114 779 l 1,5,-1
 241 885 l 1,6,-1
 293 885 l 1,0,-1
328 705 m 1,7,-1
 522 0 l 1,8,-1
 421 0 l 1,9,-1
 374 185 l 1,10,-1
 152 185 l 1,11,-1
 103 0 l 1,12,-1
 10 0 l 1,13,-1
 205 693 l 1,14,-1
 328 705 l 1,7,-1
262 615 m 1,15,-1
 175 267 l 1,16,-1
 354 267 l 1,17,-1
 269 615 l 1,18,-1
 262 615 l 1,15,-1
EndSplineSet
EndChar

StartChar: Atilde
Encoding: 195 195 131
Width: 534
GlyphClass: 2
Flags: W
LayerCount: 2
Fore
SplineSet
328 705 m 1,0,-1
 522 0 l 1,1,-1
 421 0 l 1,2,-1
 374 185 l 1,3,-1
 152 185 l 1,4,-1
 103 0 l 1,5,-1
 10 0 l 1,6,-1
 205 693 l 1,7,-1
 328 705 l 1,0,-1
262 615 m 1,8,-1
 175 267 l 1,9,-1
 354 267 l 1,10,-1
 269 615 l 1,11,-1
 262 615 l 1,8,-1
324 775 m 0,12,13
 298 775 298 775 259.5 791 c 128,-1,14
 221 807 221 807 194.5 807 c 128,-1,15
 168 807 168 807 122 775 c 1,16,-1
 101 836 l 1,17,18
 157 885 157 885 210 885 c 0,19,20
 236 885 236 885 274.5 869 c 128,-1,21
 313 853 313 853 339.5 853 c 128,-1,22
 366 853 366 853 412 885 c 1,23,-1
 433 824 l 1,24,25
 377 775 377 775 324 775 c 0,12,13
EndSplineSet
EndChar

StartChar: Adieresis
Encoding: 196 196 132
Width: 534
GlyphClass: 2
Flags: W
LayerCount: 2
Fore
SplineSet
179 884 m 0,0,1
 231 884 231 884 231 825 c 0,2,3
 231 773 231 773 172 773 c 0,4,5
 119 773 119 773 119 832 c 0,6,7
 119 857 119 857 131.5 870.5 c 128,-1,8
 144 884 144 884 179 884 c 0,0,1
362 884 m 0,9,10
 415 884 415 884 415 825 c 0,11,12
 415 800 415 800 402.5 786.5 c 128,-1,13
 390 773 390 773 355 773 c 0,14,15
 303 773 303 773 303 832 c 0,16,17
 303 884 303 884 362 884 c 0,9,10
328 705 m 1,18,-1
 522 0 l 1,19,-1
 421 0 l 1,20,-1
 374 185 l 1,21,-1
 152 185 l 1,22,-1
 103 0 l 1,23,-1
 10 0 l 1,24,-1
 205 693 l 1,25,-1
 328 705 l 1,18,-1
262 615 m 1,26,-1
 175 267 l 1,27,-1
 354 267 l 1,28,-1
 269 615 l 1,29,-1
 262 615 l 1,26,-1
EndSplineSet
EndChar

StartChar: Aring
Encoding: 197 197 133
Width: 534
GlyphClass: 2
Flags: W
LayerCount: 2
Fore
SplineSet
328 705 m 1,0,-1
 522 0 l 1,1,-1
 421 0 l 1,2,-1
 374 185 l 1,3,-1
 152 185 l 1,4,-1
 103 0 l 1,5,-1
 10 0 l 1,6,-1
 205 693 l 1,7,-1
 328 705 l 1,0,-1
262 615 m 1,8,-1
 175 267 l 1,9,-1
 354 267 l 1,10,-1
 269 615 l 1,11,-1
 262 615 l 1,8,-1
203.5 889.5 m 128,-1,13
 227 916 227 916 269.5 916 c 128,-1,14
 312 916 312 916 333 892 c 128,-1,15
 354 868 354 868 354 832.5 c 128,-1,16
 354 797 354 797 330.5 769.5 c 128,-1,17
 307 742 307 742 265 742 c 128,-1,18
 223 742 223 742 201.5 767 c 128,-1,19
 180 792 180 792 180 827.5 c 128,-1,12
 180 863 180 863 203.5 889.5 c 128,-1,13
264 871 m 0,20,21
 246 871 246 871 236.5 859 c 128,-1,22
 227 847 227 847 227 830 c 0,23,24
 227 787 227 787 270 787 c 0,25,26
 288 787 288 787 297.5 799 c 128,-1,27
 307 811 307 811 307 828 c 0,28,29
 307 871 307 871 264 871 c 0,20,21
EndSplineSet
EndChar

StartChar: AE
Encoding: 198 198 134
Width: 793
GlyphClass: 2
Flags: W
LayerCount: 2
Fore
SplineSet
487 614 m 1,0,-1
 487 399 l 1,1,-1
 719 399 l 1,2,-1
 707 315 l 1,3,-1
 487 315 l 1,4,-1
 487 86 l 1,5,-1
 768 86 l 1,6,-1
 756 0 l 1,7,-1
 391 0 l 1,8,-1
 391 185 l 1,9,-1
 171 185 l 1,10,-1
 78 0 l 1,11,-1
 -20 0 l 1,12,-1
 337 700 l 1,13,-1
 763 700 l 1,14,-1
 751 614 l 1,15,-1
 487 614 l 1,0,-1
391 267 m 1,16,-1
 391 615 l 1,17,-1
 378 615 l 1,18,-1
 210 267 l 1,19,-1
 391 267 l 1,16,-1
EndSplineSet
EndChar

StartChar: Ccedilla
Encoding: 199 199 135
Width: 542
GlyphClass: 2
Flags: W
LayerCount: 2
Fore
SplineSet
398 -114 m 0,0,1
 398 -150 398 -150 374.5 -169 c 128,-1,2
 351 -188 351 -188 311 -188 c 128,-1,3
 271 -188 271 -188 225 -165 c 1,4,-1
 243 -120 l 1,5,6
 280 -137 280 -137 308 -137 c 128,-1,7
 336 -137 336 -137 336 -111 c 0,8,9
 336 -94 336 -94 283 -81 c 0,10,11
 262 -76 262 -76 260 -75 c 1,12,-1
 277 -9 l 1,13,14
 221 -3 221 -3 179 20.5 c 128,-1,15
 137 44 137 44 113 77 c 128,-1,16
 89 110 89 110 74 156 c 0,17,18
 50 235 50 235 50 328 c 128,-1,19
 50 421 50 421 65 484.5 c 128,-1,20
 80 548 80 548 111.5 600.5 c 128,-1,21
 143 653 143 653 197.5 682.5 c 128,-1,22
 252 712 252 712 324 712 c 0,23,24
 428 712 428 712 472 661 c 128,-1,25
 516 610 516 610 516 508 c 1,26,-1
 414 498 l 1,27,28
 414 559 414 559 390 592.5 c 128,-1,29
 366 626 366 626 306 626 c 0,30,31
 228 626 228 626 192 570 c 1,32,33
 161 524 161 524 154 420 c 0,34,35
 152 380 152 380 152 320 c 0,36,37
 152 196 152 196 198 135 c 128,-1,38
 244 74 244 74 340 74 c 0,39,40
 385 74 385 74 466 102 c 0,41,42
 485 109 485 109 488 110 c 1,43,-1
 516 38 l 1,44,45
 430 -9 430 -9 327 -12 c 1,46,-1
 322 -44 l 1,47,48
 383 -59 383 -59 393 -84 c 0,49,50
 398 -96 398 -96 398 -114 c 0,0,1
EndSplineSet
EndChar

StartChar: Egrave
Encoding: 200 200 136
Width: 499
GlyphClass: 2
Flags: W
LayerCount: 2
Fore
SplineSet
363 792 m 1,0,-1
 330 736 l 1,1,-1
 122 821 l 1,2,-1
 160 898 l 1,3,-1
 363 792 l 1,0,-1
90 700 m 1,4,-1
 469 700 l 1,5,-1
 457 614 l 1,6,-1
 186 614 l 1,7,-1
 186 399 l 1,8,-1
 425 399 l 1,9,-1
 413 315 l 1,10,-1
 186 315 l 1,11,-1
 186 86 l 1,12,-1
 474 86 l 1,13,-1
 462 0 l 1,14,-1
 90 0 l 1,15,-1
 90 700 l 1,4,-1
EndSplineSet
EndChar

StartChar: Eacute
Encoding: 201 201 137
Width: 499
GlyphClass: 2
Flags: W
LayerCount: 2
Fore
SplineSet
400 898 m 1,0,-1
 438 821 l 1,1,-1
 231 736 l 1,2,-1
 198 792 l 1,3,-1
 400 898 l 1,0,-1
90 700 m 1,4,-1
 469 700 l 1,5,-1
 457 614 l 1,6,-1
 186 614 l 1,7,-1
 186 399 l 1,8,-1
 425 399 l 1,9,-1
 413 315 l 1,10,-1
 186 315 l 1,11,-1
 186 86 l 1,12,-1
 474 86 l 1,13,-1
 462 0 l 1,14,-1
 90 0 l 1,15,-1
 90 700 l 1,4,-1
EndSplineSet
EndChar

StartChar: Ecircumflex
Encoding: 202 202 138
Width: 499
GlyphClass: 2
Flags: W
LayerCount: 2
Fore
SplineSet
302 885 m 1,0,-1
 429 779 l 1,1,-1
 391 735 l 1,2,-1
 276 812 l 1,3,-1
 161 735 l 1,4,-1
 123 779 l 1,5,-1
 250 885 l 1,6,-1
 302 885 l 1,0,-1
90 700 m 1,7,-1
 469 700 l 1,8,-1
 457 614 l 1,9,-1
 186 614 l 1,10,-1
 186 399 l 1,11,-1
 425 399 l 1,12,-1
 413 315 l 1,13,-1
 186 315 l 1,14,-1
 186 86 l 1,15,-1
 474 86 l 1,16,-1
 462 0 l 1,17,-1
 90 0 l 1,18,-1
 90 700 l 1,7,-1
EndSplineSet
EndChar

StartChar: Edieresis
Encoding: 203 203 139
Width: 499
GlyphClass: 2
Flags: W
LayerCount: 2
Fore
SplineSet
188 884 m 0,0,1
 240 884 240 884 240 825 c 0,2,3
 240 773 240 773 181 773 c 0,4,5
 128 773 128 773 128 832 c 0,6,7
 128 857 128 857 140.5 870.5 c 128,-1,8
 153 884 153 884 188 884 c 0,0,1
371 884 m 0,9,10
 424 884 424 884 424 825 c 0,11,12
 424 800 424 800 411.5 786.5 c 128,-1,13
 399 773 399 773 364 773 c 0,14,15
 312 773 312 773 312 832 c 0,16,17
 312 884 312 884 371 884 c 0,9,10
90 700 m 1,18,-1
 469 700 l 1,19,-1
 457 614 l 1,20,-1
 186 614 l 1,21,-1
 186 399 l 1,22,-1
 425 399 l 1,23,-1
 413 315 l 1,24,-1
 186 315 l 1,25,-1
 186 86 l 1,26,-1
 474 86 l 1,27,-1
 462 0 l 1,28,-1
 90 0 l 1,29,-1
 90 700 l 1,18,-1
EndSplineSet
EndChar

StartChar: Igrave
Encoding: 204 204 140
Width: 276
GlyphClass: 2
Flags: W
LayerCount: 2
Fore
SplineSet
219 792 m 1,0,-1
 186 736 l 1,1,-1
 -22 821 l 1,2,-1
 16 898 l 1,3,-1
 219 792 l 1,0,-1
186 700 m 1,4,-1
 186 0 l 1,5,-1
 90 0 l 1,6,-1
 90 700 l 1,7,-1
 186 700 l 1,4,-1
EndSplineSet
EndChar

StartChar: Iacute
Encoding: 205 205 141
Width: 276
GlyphClass: 2
Flags: W
LayerCount: 2
Fore
SplineSet
258 898 m 1,0,-1
 296 821 l 1,1,-1
 88 736 l 1,2,-1
 55 792 l 1,3,-1
 258 898 l 1,0,-1
186 700 m 1,4,-1
 186 0 l 1,5,-1
 90 0 l 1,6,-1
 90 700 l 1,7,-1
 186 700 l 1,4,-1
EndSplineSet
EndChar

StartChar: Icircumflex
Encoding: 206 206 142
Width: 276
GlyphClass: 2
Flags: W
LayerCount: 2
Fore
SplineSet
164 885 m 1,0,-1
 281 779 l 1,1,-1
 243 735 l 1,2,-1
 138 812 l 1,3,-1
 33 735 l 1,4,-1
 -5 779 l 1,5,-1
 112 885 l 1,6,-1
 164 885 l 1,0,-1
186 700 m 1,7,-1
 186 0 l 1,8,-1
 90 0 l 1,9,-1
 90 700 l 1,10,-1
 186 700 l 1,7,-1
EndSplineSet
EndChar

StartChar: Idieresis
Encoding: 207 207 143
Width: 276
GlyphClass: 2
Flags: W
LayerCount: 2
Fore
SplineSet
70 884 m 0,0,1
 122 884 122 884 122 825 c 0,2,3
 122 773 122 773 63 773 c 0,4,5
 10 773 10 773 10 832 c 0,6,7
 10 857 10 857 22.5 870.5 c 128,-1,8
 35 884 35 884 70 884 c 0,0,1
213 884 m 0,9,10
 266 884 266 884 266 825 c 0,11,12
 266 800 266 800 253.5 786.5 c 128,-1,13
 241 773 241 773 206 773 c 0,14,15
 154 773 154 773 154 832 c 0,16,17
 154 884 154 884 213 884 c 0,9,10
186 700 m 1,18,-1
 186 0 l 1,19,-1
 90 0 l 1,20,-1
 90 700 l 1,21,-1
 186 700 l 1,18,-1
EndSplineSet
EndChar

StartChar: Eth
Encoding: 208 208 144
Width: 617
GlyphClass: 2
Flags: W
LayerCount: 2
Fore
SplineSet
95 700 m 1,0,-1
 299 700 l 2,1,2
 365 700 365 700 414.5 678.5 c 128,-1,3
 464 657 464 657 492.5 624 c 128,-1,4
 521 591 521 591 538 542 c 0,5,6
 567 462 567 462 567 344 c 0,7,8
 567 204 567 204 509 107 c 0,9,10
 479 57 479 57 426 28.5 c 128,-1,11
 373 0 373 0 302 0 c 2,12,-1
 95 0 l 1,13,-1
 95 318 l 1,14,-1
 16 318 l 1,15,-1
 26 388 l 1,16,-1
 95 394 l 1,17,-1
 95 700 l 1,0,-1
191 616 m 1,18,-1
 191 394 l 1,19,-1
 346 394 l 1,20,-1
 334 318 l 1,21,-1
 191 318 l 1,22,-1
 191 84 l 1,23,-1
 291 84 l 2,24,25
 415 84 415 84 448 198 c 0,26,27
 465 260 465 260 465 337 c 128,-1,28
 465 414 465 414 456.5 458.5 c 128,-1,29
 448 503 448 503 428 540 c 0,30,31
 388 616 388 616 283 616 c 2,32,-1
 191 616 l 1,18,-1
EndSplineSet
EndChar

StartChar: Ntilde
Encoding: 209 209 145
Width: 630
GlyphClass: 2
Flags: W
LayerCount: 2
Fore
SplineSet
372 775 m 0,0,1
 346 775 346 775 307.5 791 c 128,-1,2
 269 807 269 807 242.5 807 c 128,-1,3
 216 807 216 807 170 775 c 1,4,-1
 149 836 l 1,5,6
 205 885 205 885 258 885 c 0,7,8
 284 885 284 885 322.5 869 c 128,-1,9
 361 853 361 853 387.5 853 c 128,-1,10
 414 853 414 853 460 885 c 1,11,-1
 481 824 l 1,12,13
 425 775 425 775 372 775 c 0,0,1
540 700 m 1,14,-1
 540 0 l 1,15,-1
 439 0 l 1,16,-1
 207 474 l 1,17,-1
 174 566 l 1,18,-1
 169 563 l 1,19,-1
 186 460 l 1,20,-1
 186 0 l 1,21,-1
 90 0 l 1,22,-1
 90 700 l 1,23,-1
 192 700 l 1,24,-1
 423 214 l 1,25,-1
 457 119 l 1,26,-1
 462 122 l 1,27,-1
 444 240 l 1,28,-1
 444 700 l 1,29,-1
 540 700 l 1,14,-1
EndSplineSet
EndChar

StartChar: Ograve
Encoding: 210 210 146
Width: 626
GlyphClass: 2
Flags: W
LayerCount: 2
Fore
SplineSet
394 792 m 1,0,-1
 361 736 l 1,1,-1
 153 821 l 1,2,-1
 191 898 l 1,3,-1
 394 792 l 1,0,-1
378 611.5 m 128,-1,5
 346 626 346 626 300.5 626 c 128,-1,6
 255 626 255 626 223.5 603.5 c 128,-1,7
 192 581 192 581 177 538 c 0,8,9
 152 465 152 465 152 342 c 0,10,11
 152 182 152 182 197 126 c 0,12,13
 238 74 238 74 323 74 c 0,14,15
 363 74 363 74 391.5 90.5 c 128,-1,16
 420 107 420 107 435.5 131.5 c 128,-1,17
 451 156 451 156 460 196 c 0,18,19
 474 258 474 258 474 333 c 128,-1,20
 474 408 474 408 471 443.5 c 128,-1,21
 468 479 468 479 457.5 515.5 c 128,-1,22
 447 552 447 552 428.5 574.5 c 128,-1,4
 410 597 410 597 378 611.5 c 128,-1,5
324 712 m 0,23,24
 576 712 576 712 576 365 c 0,25,26
 576 186 576 186 507 87 c 128,-1,27
 438 -12 438 -12 302 -12 c 0,28,29
 50 -12 50 -12 50 335 c 0,30,31
 50 514 50 514 119 613 c 128,-1,32
 188 712 188 712 324 712 c 0,23,24
EndSplineSet
EndChar

StartChar: Oacute
Encoding: 211 211 147
Width: 626
GlyphClass: 2
Flags: W
LayerCount: 2
Fore
SplineSet
432 898 m 1,0,-1
 470 821 l 1,1,-1
 262 736 l 1,2,-1
 229 792 l 1,3,-1
 432 898 l 1,0,-1
378 611.5 m 128,-1,5
 346 626 346 626 300.5 626 c 128,-1,6
 255 626 255 626 223.5 603.5 c 128,-1,7
 192 581 192 581 177 538 c 0,8,9
 152 465 152 465 152 342 c 0,10,11
 152 182 152 182 197 126 c 0,12,13
 238 74 238 74 323 74 c 0,14,15
 363 74 363 74 391.5 90.5 c 128,-1,16
 420 107 420 107 435.5 131.5 c 128,-1,17
 451 156 451 156 460 196 c 0,18,19
 474 258 474 258 474 333 c 128,-1,20
 474 408 474 408 471 443.5 c 128,-1,21
 468 479 468 479 457.5 515.5 c 128,-1,22
 447 552 447 552 428.5 574.5 c 128,-1,4
 410 597 410 597 378 611.5 c 128,-1,5
324 712 m 0,23,24
 576 712 576 712 576 365 c 0,25,26
 576 186 576 186 507 87 c 128,-1,27
 438 -12 438 -12 302 -12 c 0,28,29
 50 -12 50 -12 50 335 c 0,30,31
 50 514 50 514 119 613 c 128,-1,32
 188 712 188 712 324 712 c 0,23,24
EndSplineSet
EndChar

StartChar: Ocircumflex
Encoding: 212 212 148
Width: 626
GlyphClass: 2
Flags: W
LayerCount: 2
Fore
SplineSet
345 885 m 1,0,-1
 472 779 l 1,1,-1
 434 735 l 1,2,-1
 319 812 l 1,3,-1
 204 735 l 1,4,-1
 166 779 l 1,5,-1
 293 885 l 1,6,-1
 345 885 l 1,0,-1
378 611.5 m 128,-1,8
 346 626 346 626 300.5 626 c 128,-1,9
 255 626 255 626 223.5 603.5 c 128,-1,10
 192 581 192 581 177 538 c 0,11,12
 152 465 152 465 152 342 c 0,13,14
 152 182 152 182 197 126 c 0,15,16
 238 74 238 74 323 74 c 0,17,18
 363 74 363 74 391.5 90.5 c 128,-1,19
 420 107 420 107 435.5 131.5 c 128,-1,20
 451 156 451 156 460 196 c 0,21,22
 474 258 474 258 474 333 c 128,-1,23
 474 408 474 408 471 443.5 c 128,-1,24
 468 479 468 479 457.5 515.5 c 128,-1,25
 447 552 447 552 428.5 574.5 c 128,-1,7
 410 597 410 597 378 611.5 c 128,-1,8
324 712 m 0,26,27
 576 712 576 712 576 365 c 0,28,29
 576 186 576 186 507 87 c 128,-1,30
 438 -12 438 -12 302 -12 c 0,31,32
 50 -12 50 -12 50 335 c 0,33,34
 50 514 50 514 119 613 c 128,-1,35
 188 712 188 712 324 712 c 0,26,27
EndSplineSet
EndChar

StartChar: Otilde
Encoding: 213 213 149
Width: 626
GlyphClass: 2
Flags: W
LayerCount: 2
Fore
SplineSet
378 611.5 m 128,-1,1
 346 626 346 626 300.5 626 c 128,-1,2
 255 626 255 626 223.5 603.5 c 128,-1,3
 192 581 192 581 177 538 c 0,4,5
 152 465 152 465 152 342 c 0,6,7
 152 182 152 182 197 126 c 0,8,9
 238 74 238 74 323 74 c 0,10,11
 363 74 363 74 391.5 90.5 c 128,-1,12
 420 107 420 107 435.5 131.5 c 128,-1,13
 451 156 451 156 460 196 c 0,14,15
 474 258 474 258 474 333 c 128,-1,16
 474 408 474 408 471 443.5 c 128,-1,17
 468 479 468 479 457.5 515.5 c 128,-1,18
 447 552 447 552 428.5 574.5 c 128,-1,0
 410 597 410 597 378 611.5 c 128,-1,1
324 712 m 0,19,20
 576 712 576 712 576 365 c 0,21,22
 576 186 576 186 507 87 c 128,-1,23
 438 -12 438 -12 302 -12 c 0,24,25
 50 -12 50 -12 50 335 c 0,26,27
 50 514 50 514 119 613 c 128,-1,28
 188 712 188 712 324 712 c 0,19,20
376 775 m 0,29,30
 350 775 350 775 311.5 791 c 128,-1,31
 273 807 273 807 246.5 807 c 128,-1,32
 220 807 220 807 174 775 c 1,33,-1
 153 836 l 1,34,35
 209 885 209 885 262 885 c 0,36,37
 288 885 288 885 326.5 869 c 128,-1,38
 365 853 365 853 391.5 853 c 128,-1,39
 418 853 418 853 464 885 c 1,40,-1
 485 824 l 1,41,42
 429 775 429 775 376 775 c 0,29,30
EndSplineSet
EndChar

StartChar: Odieresis
Encoding: 214 214 150
Width: 626
GlyphClass: 2
Flags: W
LayerCount: 2
Fore
SplineSet
231 884 m 0,0,1
 283 884 283 884 283 825 c 0,2,3
 283 773 283 773 224 773 c 0,4,5
 171 773 171 773 171 832 c 0,6,7
 171 857 171 857 183.5 870.5 c 128,-1,8
 196 884 196 884 231 884 c 0,0,1
414 884 m 0,9,10
 467 884 467 884 467 825 c 0,11,12
 467 800 467 800 454.5 786.5 c 128,-1,13
 442 773 442 773 407 773 c 0,14,15
 355 773 355 773 355 832 c 0,16,17
 355 884 355 884 414 884 c 0,9,10
378 611.5 m 128,-1,19
 346 626 346 626 300.5 626 c 128,-1,20
 255 626 255 626 223.5 603.5 c 128,-1,21
 192 581 192 581 177 538 c 0,22,23
 152 465 152 465 152 342 c 0,24,25
 152 182 152 182 197 126 c 0,26,27
 238 74 238 74 323 74 c 0,28,29
 363 74 363 74 391.5 90.5 c 128,-1,30
 420 107 420 107 435.5 131.5 c 128,-1,31
 451 156 451 156 460 196 c 0,32,33
 474 258 474 258 474 333 c 128,-1,34
 474 408 474 408 471 443.5 c 128,-1,35
 468 479 468 479 457.5 515.5 c 128,-1,36
 447 552 447 552 428.5 574.5 c 128,-1,18
 410 597 410 597 378 611.5 c 128,-1,19
324 712 m 0,37,38
 576 712 576 712 576 365 c 0,39,40
 576 186 576 186 507 87 c 128,-1,41
 438 -12 438 -12 302 -12 c 0,42,43
 50 -12 50 -12 50 335 c 0,44,45
 50 514 50 514 119 613 c 128,-1,46
 188 712 188 712 324 712 c 0,37,38
EndSplineSet
EndChar

StartChar: multiply
Encoding: 215 215 151
Width: 539
GlyphClass: 2
Flags: W
LayerCount: 2
Fore
SplineSet
447 403 m 1,0,-1
 319 275 l 1,1,-1
 441 154 l 1,2,-1
 394 95 l 1,3,-1
 266 222 l 1,4,-1
 148 104 l 1,5,-1
 85 147 l 1,6,-1
 213 275 l 1,7,-1
 92 396 l 1,8,-1
 139 456 l 1,9,-1
 266 328 l 1,10,-1
 385 447 l 1,11,-1
 447 403 l 1,0,-1
EndSplineSet
EndChar

StartChar: Oslash
Encoding: 216 216 152
Width: 626
GlyphClass: 2
Flags: W
LayerCount: 2
Fore
SplineSet
576 365 m 0,0,1
 576 186 576 186 507 87 c 128,-1,2
 438 -12 438 -12 302 -12 c 0,3,4
 265 -12 265 -12 231 -4 c 1,5,-1
 201 -91 l 1,6,-1
 139 -70 l 1,7,-1
 170 21 l 1,8,9
 50 94 50 94 50 335 c 0,10,11
 50 514 50 514 119 613 c 128,-1,12
 188 712 188 712 324 712 c 0,13,14
 367 712 367 712 405 701 c 1,15,-1
 436 791 l 1,16,-1
 498 769 l 1,17,-1
 465 673 l 1,18,19
 576 596 576 596 576 365 c 0,0,1
375 613 m 1,20,21
 342 626 342 626 298.5 626 c 128,-1,22
 255 626 255 626 222 598 c 128,-1,23
 189 570 189 570 174 530 c 0,24,25
 149 459 149 459 149 351 c 0,26,27
 149 179 149 179 204 118 c 1,28,-1
 375 613 l 1,20,21
261 82 m 1,29,30
 288 74 288 74 326 74 c 128,-1,31
 364 74 364 74 393.5 91.5 c 128,-1,32
 423 109 423 109 439 142 c 0,33,34
 473 213 473 213 475 291 c 0,35,36
 476 314 476 314 476 334 c 0,37,38
 476 380 476 380 469.5 454 c 128,-1,39
 463 528 463 528 430 571 c 1,40,-1
 261 82 l 1,29,30
EndSplineSet
EndChar

StartChar: Ugrave
Encoding: 217 217 153
Width: 622
GlyphClass: 2
Flags: W
LayerCount: 2
Fore
SplineSet
386 792 m 1,0,-1
 353 736 l 1,1,-1
 145 821 l 1,2,-1
 183 898 l 1,3,-1
 386 792 l 1,0,-1
532 700 m 1,4,-1
 532 153 l 1,5,-1
 540 6 l 1,6,-1
 462 -5 l 1,7,-1
 452 53 l 1,8,-1
 448 53 l 1,9,10
 383 -12 383 -12 291 -12 c 128,-1,11
 199 -12 199 -12 142 35 c 128,-1,12
 85 82 85 82 85 177 c 2,13,-1
 85 700 l 1,14,-1
 181 700 l 1,15,-1
 181 194 l 2,16,17
 181 131 181 131 219.5 102.5 c 128,-1,18
 258 74 258 74 314 74 c 0,19,20
 396 74 396 74 436 136 c 1,21,-1
 436 700 l 1,22,-1
 532 700 l 1,4,-1
EndSplineSet
EndChar

StartChar: Uacute
Encoding: 218 218 154
Width: 622
GlyphClass: 2
Flags: W
LayerCount: 2
Fore
SplineSet
425 898 m 1,0,-1
 463 821 l 1,1,-1
 255 736 l 1,2,-1
 222 792 l 1,3,-1
 425 898 l 1,0,-1
532 700 m 1,4,-1
 532 153 l 1,5,-1
 540 6 l 1,6,-1
 462 -5 l 1,7,-1
 452 53 l 1,8,-1
 448 53 l 1,9,10
 383 -12 383 -12 291 -12 c 128,-1,11
 199 -12 199 -12 142 35 c 128,-1,12
 85 82 85 82 85 177 c 2,13,-1
 85 700 l 1,14,-1
 181 700 l 1,15,-1
 181 194 l 2,16,17
 181 131 181 131 219.5 102.5 c 128,-1,18
 258 74 258 74 314 74 c 0,19,20
 396 74 396 74 436 136 c 1,21,-1
 436 700 l 1,22,-1
 532 700 l 1,4,-1
EndSplineSet
EndChar

StartChar: Ucircumflex
Encoding: 219 219 155
Width: 622
GlyphClass: 2
Flags: W
LayerCount: 2
Fore
SplineSet
331 885 m 1,0,-1
 458 779 l 1,1,-1
 420 735 l 1,2,-1
 305 812 l 1,3,-1
 190 735 l 1,4,-1
 152 779 l 1,5,-1
 279 885 l 1,6,-1
 331 885 l 1,0,-1
532 700 m 1,7,-1
 532 153 l 1,8,-1
 540 6 l 1,9,-1
 462 -5 l 1,10,-1
 452 53 l 1,11,-1
 448 53 l 1,12,13
 383 -12 383 -12 291 -12 c 128,-1,14
 199 -12 199 -12 142 35 c 128,-1,15
 85 82 85 82 85 177 c 2,16,-1
 85 700 l 1,17,-1
 181 700 l 1,18,-1
 181 194 l 2,19,20
 181 131 181 131 219.5 102.5 c 128,-1,21
 258 74 258 74 314 74 c 0,22,23
 396 74 396 74 436 136 c 1,24,-1
 436 700 l 1,25,-1
 532 700 l 1,7,-1
EndSplineSet
EndChar

StartChar: Udieresis
Encoding: 220 220 156
Width: 622
GlyphClass: 2
Flags: W
LayerCount: 2
Fore
SplineSet
217 884 m 0,0,1
 269 884 269 884 269 825 c 0,2,3
 269 773 269 773 210 773 c 0,4,5
 157 773 157 773 157 832 c 0,6,7
 157 857 157 857 169.5 870.5 c 128,-1,8
 182 884 182 884 217 884 c 0,0,1
400 884 m 0,9,10
 453 884 453 884 453 825 c 0,11,12
 453 800 453 800 440.5 786.5 c 128,-1,13
 428 773 428 773 393 773 c 0,14,15
 341 773 341 773 341 832 c 0,16,17
 341 884 341 884 400 884 c 0,9,10
532 700 m 1,18,-1
 532 153 l 1,19,-1
 540 6 l 1,20,-1
 462 -5 l 1,21,-1
 452 53 l 1,22,-1
 448 53 l 1,23,24
 383 -12 383 -12 291 -12 c 128,-1,25
 199 -12 199 -12 142 35 c 128,-1,26
 85 82 85 82 85 177 c 2,27,-1
 85 700 l 1,28,-1
 181 700 l 1,29,-1
 181 194 l 2,30,31
 181 131 181 131 219.5 102.5 c 128,-1,32
 258 74 258 74 314 74 c 0,33,34
 396 74 396 74 436 136 c 1,35,-1
 436 700 l 1,36,-1
 532 700 l 1,18,-1
EndSplineSet
EndChar

StartChar: Yacute
Encoding: 221 221 157
Width: 478
GlyphClass: 2
Flags: W
LayerCount: 2
Fore
SplineSet
366 898 m 1,0,-1
 404 821 l 1,1,-1
 197 736 l 1,2,-1
 164 792 l 1,3,-1
 366 898 l 1,0,-1
290 0 m 1,4,-1
 194 0 l 1,5,-1
 194 252 l 1,6,7
 83 505 83 505 0 693 c 1,8,-1
 97 705 l 1,9,-1
 239 345 l 1,10,-1
 245 345 l 1,11,-1
 387 705 l 1,12,-1
 478 693 l 1,13,-1
 290 252 l 1,14,-1
 290 0 l 1,4,-1
EndSplineSet
EndChar

StartChar: Thorn
Encoding: 222 222 158
Width: 536
GlyphClass: 2
Flags: W
LayerCount: 2
Fore
SplineSet
186 700 m 1,0,-1
 186 570 l 1,1,-1
 320 570 l 2,2,3
 430 570 430 570 472.5 515.5 c 128,-1,4
 515 461 515 461 515 370 c 0,5,6
 515 281 515 281 467 214 c 0,7,8
 441 177 441 177 388 155.5 c 128,-1,9
 335 134 335 134 260 134 c 2,10,-1
 186 134 l 1,11,-1
 186 0 l 1,12,-1
 90 0 l 1,13,-1
 90 700 l 1,14,-1
 186 700 l 1,0,-1
186 494 m 1,15,-1
 186 211 l 1,16,-1
 286 211 l 2,17,18
 413 211 413 211 413 347 c 0,19,20
 413 421 413 421 386.5 457.5 c 128,-1,21
 360 494 360 494 277 494 c 2,22,-1
 186 494 l 1,15,-1
EndSplineSet
EndChar

StartChar: germandbls
Encoding: 223 223 159
Width: 565
GlyphClass: 2
Flags: W
LayerCount: 2
Fore
SplineSet
141 709.5 m 128,-1,1
 197 760 197 760 277.5 760 c 128,-1,2
 358 760 358 760 405 720 c 128,-1,3
 452 680 452 680 452 601 c 0,4,5
 452 516 452 516 409 478 c 0,6,7
 391 463 391 463 373 452 c 0,8,9
 330 426 330 426 330 390 c 0,10,11
 330 359 330 359 400 318 c 0,12,13
 430 301 430 301 459.5 280.5 c 128,-1,14
 489 260 489 260 509.5 226 c 128,-1,15
 530 192 530 192 530 149 c 0,16,17
 530 79 530 79 478 33.5 c 128,-1,18
 426 -12 426 -12 354.5 -12 c 128,-1,19
 283 -12 283 -12 218 17 c 1,20,-1
 247 90 l 1,21,22
 302 68 302 68 346 68 c 128,-1,23
 390 68 390 68 412 88.5 c 128,-1,24
 434 109 434 109 434 142 c 128,-1,25
 434 175 434 175 417 195 c 128,-1,26
 400 215 400 215 364 234 c 128,-1,27
 328 253 328 253 312.5 262.5 c 128,-1,28
 297 272 297 272 276 290 c 0,29,30
 234 325 234 325 234 381 c 0,31,32
 234 436 234 436 279 469 c 0,33,34
 298 483 298 483 317 498 c 0,35,36
 362 532 362 532 362 597 c 0,37,38
 362 678 362 678 280 678 c 0,39,40
 175 678 175 678 175 551 c 2,41,-1
 175 0 l 1,42,-1
 85 0 l 1,43,-1
 85 555 l 2,44,0
 85 659 85 659 141 709.5 c 128,-1,1
EndSplineSet
EndChar

StartChar: agrave
Encoding: 224 224 160
Width: 481
GlyphClass: 2
Flags: W
LayerCount: 2
Fore
SplineSet
291 614 m 1,0,-1
 249 564 l 1,1,-1
 62 681 l 1,2,-1
 115 750 l 1,3,-1
 291 614 l 1,0,-1
239 537 m 0,4,5
 360 537 360 537 387 465 c 0,6,7
 401 428 401 428 401 367 c 2,8,-1
 401 154 l 2,9,10
 401 82 401 82 442 40 c 1,11,-1
 389 -12 l 1,12,13
 371 -1 371 -1 352.5 20.5 c 128,-1,14
 334 42 334 42 327 63 c 1,15,-1
 324 63 l 1,16,17
 269 -12 269 -12 172 -12 c 0,18,19
 29 -12 29 -12 29 137 c 0,20,21
 29 269 29 269 215 296 c 2,22,-1
 311 310 l 1,23,-1
 311 366 l 2,24,25
 311 457 311 457 228 457 c 0,26,27
 175 457 175 457 85 429 c 1,28,-1
 53 492 l 1,29,30
 139 537 139 537 239 537 c 0,4,5
125 126 m 0,31,32
 125 68 125 68 196.5 68 c 128,-1,33
 268 68 268 68 311 118 c 1,34,-1
 311 240 l 1,35,36
 185 223 185 223 156 200 c 0,37,38
 125 175 125 175 125 126 c 0,31,32
EndSplineSet
EndChar

StartChar: aacute
Encoding: 225 225 161
Width: 481
GlyphClass: 2
Flags: W
LayerCount: 2
Fore
SplineSet
364 681 m 1,0,-1
 177 564 l 1,1,-1
 135 614 l 1,2,-1
 311 750 l 1,3,-1
 364 681 l 1,0,-1
239 537 m 0,4,5
 360 537 360 537 387 465 c 0,6,7
 401 428 401 428 401 367 c 2,8,-1
 401 154 l 2,9,10
 401 82 401 82 442 40 c 1,11,-1
 389 -12 l 1,12,13
 371 -1 371 -1 352.5 20.5 c 128,-1,14
 334 42 334 42 327 63 c 1,15,-1
 324 63 l 1,16,17
 269 -12 269 -12 172 -12 c 0,18,19
 29 -12 29 -12 29 137 c 0,20,21
 29 269 29 269 215 296 c 2,22,-1
 311 310 l 1,23,-1
 311 366 l 2,24,25
 311 457 311 457 228 457 c 0,26,27
 175 457 175 457 85 429 c 1,28,-1
 53 492 l 1,29,30
 139 537 139 537 239 537 c 0,4,5
125 126 m 0,31,32
 125 68 125 68 196.5 68 c 128,-1,33
 268 68 268 68 311 118 c 1,34,-1
 311 240 l 1,35,36
 185 223 185 223 156 200 c 0,37,38
 125 175 125 175 125 126 c 0,31,32
EndSplineSet
EndChar

StartChar: acircumflex
Encoding: 226 226 162
Width: 481
GlyphClass: 2
Flags: W
LayerCount: 2
Fore
SplineSet
242 731 m 1,0,-1
 367 613 l 1,1,-1
 329 567 l 1,2,-1
 214 656 l 1,3,-1
 99 567 l 1,4,-1
 61 613 l 1,5,-1
 186 731 l 1,6,-1
 242 731 l 1,0,-1
239 537 m 0,7,8
 360 537 360 537 387 465 c 0,9,10
 401 428 401 428 401 367 c 2,11,-1
 401 154 l 2,12,13
 401 82 401 82 442 40 c 1,14,-1
 389 -12 l 1,15,16
 371 -1 371 -1 352.5 20.5 c 128,-1,17
 334 42 334 42 327 63 c 1,18,-1
 324 63 l 1,19,20
 269 -12 269 -12 172 -12 c 0,21,22
 29 -12 29 -12 29 137 c 0,23,24
 29 269 29 269 215 296 c 2,25,-1
 311 310 l 1,26,-1
 311 366 l 2,27,28
 311 457 311 457 228 457 c 0,29,30
 175 457 175 457 85 429 c 1,31,-1
 53 492 l 1,32,33
 139 537 139 537 239 537 c 0,7,8
125 126 m 0,34,35
 125 68 125 68 196.5 68 c 128,-1,36
 268 68 268 68 311 118 c 1,37,-1
 311 240 l 1,38,39
 185 223 185 223 156 200 c 0,40,41
 125 175 125 175 125 126 c 0,34,35
EndSplineSet
EndChar

StartChar: atilde
Encoding: 227 227 163
Width: 481
GlyphClass: 2
Flags: W
LayerCount: 2
Fore
SplineSet
268 600 m 0,0,1
 242 600 242 600 203.5 616 c 128,-1,2
 165 632 165 632 138.5 632 c 128,-1,3
 112 632 112 632 66 600 c 1,4,-1
 45 661 l 1,5,6
 101 710 101 710 154 710 c 0,7,8
 180 710 180 710 218.5 694 c 128,-1,9
 257 678 257 678 283.5 678 c 128,-1,10
 310 678 310 678 356 710 c 1,11,-1
 377 649 l 1,12,13
 321 600 321 600 268 600 c 0,0,1
311 366 m 2,14,15
 311 457 311 457 228 457 c 0,16,17
 175 457 175 457 85 429 c 1,18,-1
 53 492 l 1,19,20
 139 537 139 537 239 537 c 0,21,22
 360 537 360 537 387 465 c 0,23,24
 401 428 401 428 401 367 c 2,25,-1
 401 154 l 2,26,27
 401 82 401 82 442 40 c 1,28,-1
 389 -12 l 1,29,30
 371 -1 371 -1 352.5 20.5 c 128,-1,31
 334 42 334 42 327 63 c 1,32,-1
 324 63 l 1,33,34
 269 -12 269 -12 172 -12 c 0,35,36
 29 -12 29 -12 29 137 c 0,37,38
 29 269 29 269 215 296 c 2,39,-1
 311 310 l 1,40,-1
 311 366 l 2,14,15
125 126 m 0,41,42
 125 68 125 68 196.5 68 c 128,-1,43
 268 68 268 68 311 118 c 1,44,-1
 311 240 l 1,45,46
 185 223 185 223 156 200 c 0,47,48
 125 175 125 175 125 126 c 0,41,42
EndSplineSet
EndChar

StartChar: adieresis
Encoding: 228 228 164
Width: 481
GlyphClass: 2
Flags: W
LayerCount: 2
Fore
SplineSet
131 711 m 0,0,1
 183 711 183 711 183 652 c 0,2,3
 183 600 183 600 124 600 c 0,4,5
 71 600 71 600 71 659 c 0,6,7
 71 684 71 684 83.5 697.5 c 128,-1,8
 96 711 96 711 131 711 c 0,0,1
314 711 m 0,9,10
 367 711 367 711 367 652 c 0,11,12
 367 627 367 627 354.5 613.5 c 128,-1,13
 342 600 342 600 307 600 c 0,14,15
 255 600 255 600 255 659 c 0,16,17
 255 711 255 711 314 711 c 0,9,10
239 537 m 0,18,19
 360 537 360 537 387 465 c 0,20,21
 401 428 401 428 401 367 c 2,22,-1
 401 154 l 2,23,24
 401 82 401 82 442 40 c 1,25,-1
 389 -12 l 1,26,27
 371 -1 371 -1 352.5 20.5 c 128,-1,28
 334 42 334 42 327 63 c 1,29,-1
 324 63 l 1,30,31
 269 -12 269 -12 172 -12 c 0,32,33
 29 -12 29 -12 29 137 c 0,34,35
 29 269 29 269 215 296 c 2,36,-1
 311 310 l 1,37,-1
 311 366 l 2,38,39
 311 457 311 457 228 457 c 0,40,41
 175 457 175 457 85 429 c 1,42,-1
 53 492 l 1,43,44
 139 537 139 537 239 537 c 0,18,19
125 126 m 0,45,46
 125 68 125 68 196.5 68 c 128,-1,47
 268 68 268 68 311 118 c 1,48,-1
 311 240 l 1,49,50
 185 223 185 223 156 200 c 0,51,52
 125 175 125 175 125 126 c 0,45,46
EndSplineSet
EndChar

StartChar: aring
Encoding: 229 229 165
Width: 481
GlyphClass: 2
Flags: W
LayerCount: 2
Fore
SplineSet
239 537 m 0,0,1
 360 537 360 537 387 465 c 0,2,3
 401 428 401 428 401 367 c 2,4,-1
 401 154 l 2,5,6
 401 82 401 82 442 40 c 1,7,-1
 389 -12 l 1,8,9
 371 -1 371 -1 352.5 20.5 c 128,-1,10
 334 42 334 42 327 63 c 1,11,-1
 324 63 l 1,12,13
 269 -12 269 -12 172 -12 c 0,14,15
 29 -12 29 -12 29 137 c 0,16,17
 29 269 29 269 215 296 c 2,18,-1
 311 310 l 1,19,-1
 311 366 l 2,20,21
 311 457 311 457 228 457 c 0,22,23
 175 457 175 457 85 429 c 1,24,-1
 53 492 l 1,25,26
 139 537 139 537 239 537 c 0,0,1
125 126 m 0,27,28
 125 68 125 68 196.5 68 c 128,-1,29
 268 68 268 68 311 118 c 1,30,-1
 311 240 l 1,31,32
 185 223 185 223 156 200 c 0,33,34
 125 175 125 175 125 126 c 0,27,28
174.5 720.5 m 128,-1,36
 198 747 198 747 240.5 747 c 128,-1,37
 283 747 283 747 304 723 c 128,-1,38
 325 699 325 699 325 663.5 c 128,-1,39
 325 628 325 628 301.5 600.5 c 128,-1,40
 278 573 278 573 236 573 c 128,-1,41
 194 573 194 573 172.5 598 c 128,-1,42
 151 623 151 623 151 658.5 c 128,-1,35
 151 694 151 694 174.5 720.5 c 128,-1,36
241 618 m 0,43,44
 259 618 259 618 268.5 630 c 128,-1,45
 278 642 278 642 278 659 c 0,46,47
 278 702 278 702 235 702 c 0,48,49
 217 702 217 702 207.5 690 c 128,-1,50
 198 678 198 678 198 661 c 0,51,52
 198 618 198 618 241 618 c 0,43,44
EndSplineSet
EndChar

StartChar: ae
Encoding: 230 230 166
Width: 740
GlyphClass: 2
Flags: W
LayerCount: 2
Fore
SplineSet
53 492 m 1,0,1
 139 537 139 537 239.5 537 c 128,-1,2
 340 537 340 537 373 463 c 1,3,4
 428 537 428 537 531 537 c 0,5,6
 615 537 615 537 656 485 c 0,7,8
 689 442 689 442 697 344 c 0,9,10
 700 305 700 305 700 247 c 1,11,-1
 659 241 l 1,12,-1
 403 241 l 1,13,14
 403 166 403 166 424 121 c 0,15,16
 450 68 450 68 530 68 c 0,17,18
 593 68 593 68 657 100 c 1,19,-1
 685 38 l 1,20,21
 602 -12 602 -12 518 -12 c 0,22,23
 396 -12 396 -12 350 71 c 1,24,25
 275 -12 275 -12 166 -12 c 0,26,27
 29 -12 29 -12 29 138 c 0,28,29
 29 270 29 270 215 298 c 2,30,-1
 311 312 l 1,31,-1
 311 366 l 2,32,33
 311 457 311 457 228 457 c 0,34,35
 175 457 175 457 85 429 c 1,36,-1
 53 492 l 1,0,1
125 135 m 0,37,38
 125 64 125 64 199 64 c 0,39,40
 231 64 231 64 262.5 81 c 128,-1,41
 294 98 294 98 311 118 c 1,42,-1
 311 242 l 1,43,44
 186 225 186 225 156 201 c 0,45,46
 125 176 125 176 125 135 c 0,37,38
514 457 m 0,47,48
 474 457 474 457 449.5 435.5 c 128,-1,49
 425 414 425 414 416.5 384.5 c 128,-1,50
 408 355 408 355 405 312 c 1,51,-1
 604 312 l 1,52,53
 604 392 604 392 588 424.5 c 128,-1,54
 572 457 572 457 514 457 c 0,47,48
EndSplineSet
EndChar

StartChar: ccedilla
Encoding: 231 231 167
Width: 459
GlyphClass: 2
Flags: W
LayerCount: 2
Fore
SplineSet
103.5 460.5 m 128,-1,1
 162 537 162 537 259.5 537 c 128,-1,2
 357 537 357 537 389.5 491.5 c 128,-1,3
 422 446 422 446 422 359 c 1,4,-1
 332 353 l 1,5,6
 332 410 332 410 315 433.5 c 128,-1,7
 298 457 298 457 246 457 c 0,8,9
 141 457 141 457 141 262.5 c 128,-1,10
 141 68 141 68 275 68 c 0,11,12
 334 68 334 68 400 101 c 1,13,-1
 427 41 l 1,14,15
 401 19 401 19 355 3.5 c 128,-1,16
 309 -12 309 -12 255 -12 c 1,17,-1
 250 -44 l 1,18,19
 311 -59 311 -59 321 -84 c 0,20,21
 326 -96 326 -96 326 -114 c 0,22,23
 326 -150 326 -150 302.5 -169 c 128,-1,24
 279 -188 279 -188 239 -188 c 128,-1,25
 199 -188 199 -188 153 -165 c 1,26,-1
 171 -120 l 1,27,28
 208 -137 208 -137 236 -137 c 128,-1,29
 264 -137 264 -137 264 -111 c 0,30,31
 264 -94 264 -94 211 -81 c 0,32,33
 190 -76 190 -76 188 -75 c 1,34,-1
 206 -7 l 1,35,36
 45 22 45 22 45 259 c 0,37,0
 45 384 45 384 103.5 460.5 c 128,-1,1
EndSplineSet
EndChar

StartChar: egrave
Encoding: 232 232 168
Width: 481
GlyphClass: 2
Flags: W
LayerCount: 2
Fore
SplineSet
269 537 m 0,0,1
 355 537 355 537 396 485 c 0,2,3
 430 443 430 443 438 344 c 0,4,5
 441 305 441 305 441 247 c 1,6,-1
 400 241 l 1,7,-1
 141 241 l 1,8,9
 141 115 141 115 208 82 c 0,10,11
 236 68 236 68 285 68 c 128,-1,12
 334 68 334 68 398 100 c 1,13,-1
 426 38 l 1,14,15
 343 -12 343 -12 259 -12 c 0,16,17
 45 -12 45 -12 45 258 c 0,18,19
 45 386 45 386 101.5 461.5 c 128,-1,20
 158 537 158 537 269 537 c 0,0,1
329 424.5 m 128,-1,22
 313 457 313 457 255.5 457 c 128,-1,23
 198 457 198 457 174 418.5 c 128,-1,24
 150 380 150 380 144 312 c 1,25,-1
 345 312 l 1,26,21
 345 392 345 392 329 424.5 c 128,-1,22
90 681 m 1,27,-1
 143 750 l 1,28,-1
 319 614 l 1,29,-1
 277 564 l 1,30,-1
 90 681 l 1,27,-1
EndSplineSet
EndChar

StartChar: eacute
Encoding: 233 233 169
Width: 481
GlyphClass: 2
Flags: W
LayerCount: 2
Fore
SplineSet
269 537 m 0,0,1
 355 537 355 537 396 485 c 0,2,3
 430 443 430 443 438 344 c 0,4,5
 441 305 441 305 441 247 c 1,6,-1
 400 241 l 1,7,-1
 141 241 l 1,8,9
 141 115 141 115 208 82 c 0,10,11
 236 68 236 68 285 68 c 128,-1,12
 334 68 334 68 398 100 c 1,13,-1
 426 38 l 1,14,15
 343 -12 343 -12 259 -12 c 0,16,17
 45 -12 45 -12 45 258 c 0,18,19
 45 386 45 386 101.5 461.5 c 128,-1,20
 158 537 158 537 269 537 c 0,0,1
329 424.5 m 128,-1,22
 313 457 313 457 255.5 457 c 128,-1,23
 198 457 198 457 174 418.5 c 128,-1,24
 150 380 150 380 144 312 c 1,25,-1
 345 312 l 1,26,21
 345 392 345 392 329 424.5 c 128,-1,22
341 750 m 1,27,-1
 394 681 l 1,28,-1
 207 564 l 1,29,-1
 165 614 l 1,30,-1
 341 750 l 1,27,-1
EndSplineSet
EndChar

StartChar: ecircumflex
Encoding: 234 234 170
Width: 481
GlyphClass: 2
Flags: W
LayerCount: 2
Fore
SplineSet
269 537 m 0,0,1
 355 537 355 537 396 485 c 0,2,3
 430 443 430 443 438 344 c 0,4,5
 441 305 441 305 441 247 c 1,6,-1
 400 241 l 1,7,-1
 141 241 l 1,8,9
 141 115 141 115 208 82 c 0,10,11
 236 68 236 68 285 68 c 128,-1,12
 334 68 334 68 398 100 c 1,13,-1
 426 38 l 1,14,15
 343 -12 343 -12 259 -12 c 0,16,17
 45 -12 45 -12 45 258 c 0,18,19
 45 386 45 386 101.5 461.5 c 128,-1,20
 158 537 158 537 269 537 c 0,0,1
329 424.5 m 128,-1,22
 313 457 313 457 255.5 457 c 128,-1,23
 198 457 198 457 174 418.5 c 128,-1,24
 150 380 150 380 144 312 c 1,25,-1
 345 312 l 1,26,21
 345 392 345 392 329 424.5 c 128,-1,22
278 731 m 1,27,-1
 403 613 l 1,28,-1
 365 567 l 1,29,-1
 250 656 l 1,30,-1
 135 567 l 1,31,-1
 97 613 l 1,32,-1
 222 731 l 1,33,-1
 278 731 l 1,27,-1
EndSplineSet
EndChar

StartChar: edieresis
Encoding: 235 235 171
Width: 481
GlyphClass: 2
Flags: W
LayerCount: 2
Fore
SplineSet
269 537 m 0,0,1
 355 537 355 537 396 485 c 0,2,3
 430 443 430 443 438 344 c 0,4,5
 441 305 441 305 441 247 c 1,6,-1
 400 241 l 1,7,-1
 141 241 l 1,8,9
 141 115 141 115 208 82 c 0,10,11
 236 68 236 68 285 68 c 128,-1,12
 334 68 334 68 398 100 c 1,13,-1
 426 38 l 1,14,15
 343 -12 343 -12 259 -12 c 0,16,17
 45 -12 45 -12 45 258 c 0,18,19
 45 386 45 386 101.5 461.5 c 128,-1,20
 158 537 158 537 269 537 c 0,0,1
329 424.5 m 128,-1,22
 313 457 313 457 255.5 457 c 128,-1,23
 198 457 198 457 174 418.5 c 128,-1,24
 150 380 150 380 144 312 c 1,25,-1
 345 312 l 1,26,21
 345 392 345 392 329 424.5 c 128,-1,22
154 711 m 0,27,28
 206 711 206 711 206 652 c 0,29,30
 206 600 206 600 147 600 c 0,31,32
 94 600 94 600 94 659 c 0,33,34
 94 684 94 684 106.5 697.5 c 128,-1,35
 119 711 119 711 154 711 c 0,27,28
337 711 m 0,36,37
 390 711 390 711 390 652 c 0,38,39
 390 627 390 627 377.5 613.5 c 128,-1,40
 365 600 365 600 330 600 c 0,41,42
 278 600 278 600 278 659 c 0,43,44
 278 711 278 711 337 711 c 0,36,37
EndSplineSet
EndChar

StartChar: igrave
Encoding: 236 236 172
Width: 250
GlyphClass: 2
Flags: W
LayerCount: 2
Fore
SplineSet
80 0 m 1,0,-1
 80 520 l 1,1,-1
 170 530 l 1,2,-1
 170 0 l 1,3,-1
 80 0 l 1,0,-1
158 564 m 1,4,-1
 -29 681 l 1,5,-1
 24 750 l 1,6,-1
 200 614 l 1,7,-1
 158 564 l 1,4,-1
EndSplineSet
EndChar

StartChar: iacute
Encoding: 237 237 173
Width: 250
GlyphClass: 2
Flags: W
LayerCount: 2
Fore
SplineSet
223 750 m 1,0,-1
 276 681 l 1,1,-1
 89 564 l 1,2,-1
 47 614 l 1,3,-1
 223 750 l 1,0,-1
170 0 m 1,4,-1
 80 0 l 1,5,-1
 80 520 l 1,6,-1
 170 530 l 1,7,-1
 170 0 l 1,4,-1
EndSplineSet
EndChar

StartChar: icircumflex
Encoding: 238 238 174
Width: 250
GlyphClass: 2
Flags: W
LayerCount: 2
Fore
SplineSet
153 731 m 1,0,-1
 263 613 l 1,1,-1
 225 567 l 1,2,-1
 125 652 l 1,3,-1
 24 567 l 1,4,-1
 -14 613 l 1,5,-1
 97 731 l 1,6,-1
 153 731 l 1,0,-1
170 0 m 1,7,-1
 80 0 l 1,8,-1
 80 520 l 1,9,-1
 170 530 l 1,10,-1
 170 0 l 1,7,-1
EndSplineSet
EndChar

StartChar: idieresis
Encoding: 239 239 175
Width: 250
GlyphClass: 2
Flags: W
LayerCount: 2
Fore
SplineSet
60 711 m 0,0,1
 112 711 112 711 112 652 c 0,2,3
 112 600 112 600 53 600 c 0,4,5
 0 600 0 600 0 659 c 0,6,7
 0 684 0 684 12.5 697.5 c 128,-1,8
 25 711 25 711 60 711 c 0,0,1
197 711 m 0,9,10
 250 711 250 711 250 652 c 0,11,12
 250 627 250 627 237.5 613.5 c 128,-1,13
 225 600 225 600 190 600 c 0,14,15
 138 600 138 600 138 659 c 0,16,17
 138 711 138 711 197 711 c 0,9,10
170 0 m 1,18,-1
 80 0 l 1,19,-1
 80 520 l 1,20,-1
 170 530 l 1,21,-1
 170 0 l 1,18,-1
EndSplineSet
EndChar

StartChar: eth
Encoding: 240 240 176
Width: 519
GlyphClass: 2
Flags: W
LayerCount: 2
Fore
SplineSet
488 253 m 0,0,1
 488 134 488 134 432.5 60.5 c 128,-1,2
 377 -13 377 -13 260 -13 c 0,3,4
 164 -13 164 -13 109 44 c 128,-1,5
 54 101 54 101 54 190 c 128,-1,6
 54 279 54 279 104.5 337 c 128,-1,7
 155 395 155 395 259 395 c 0,8,9
 297 395 297 395 332 382 c 128,-1,10
 367 369 367 369 384 351 c 1,11,12
 358 511 358 511 238 596 c 1,13,-1
 156 527 l 1,14,-1
 112 571 l 1,15,-1
 174 636 l 1,16,17
 137 657 137 657 78 679 c 1,18,-1
 113 743 l 1,19,20
 192 717 192 717 240 690 c 1,21,-1
 312 749 l 1,22,-1
 356 705 l 1,23,-1
 303 651 l 1,24,25
 488 514 488 514 488 253 c 0,0,1
389 269 m 1,26,27
 346 315 346 315 279.5 315 c 128,-1,28
 213 315 213 315 181.5 281 c 128,-1,29
 150 247 150 247 150 191 c 128,-1,30
 150 135 150 135 180.5 101.5 c 128,-1,31
 211 68 211 68 271.5 68 c 128,-1,32
 332 68 332 68 362.5 108.5 c 128,-1,33
 393 149 393 149 393 220 c 0,34,35
 393 249 393 249 389 269 c 1,26,27
EndSplineSet
EndChar

StartChar: ntilde
Encoding: 241 241 177
Width: 543
GlyphClass: 2
Flags: W
LayerCount: 2
Fore
SplineSet
306 537 m 0,0,1
 380 537 380 537 424 494.5 c 128,-1,2
 468 452 468 452 468 360 c 2,3,-1
 468 0 l 1,4,-1
 378 0 l 1,5,-1
 378 354 l 2,6,7
 378 457 378 457 275 457 c 0,8,9
 245 457 245 457 216 442.5 c 128,-1,10
 187 428 187 428 170 409 c 1,11,-1
 170 0 l 1,12,-1
 80 0 l 1,13,-1
 80 381 l 1,14,-1
 72 520 l 1,15,-1
 145 530 l 1,16,-1
 158 471 l 1,17,-1
 162 471 l 1,18,19
 180 494 180 494 216.5 515.5 c 128,-1,20
 253 537 253 537 306 537 c 0,0,1
325 600 m 0,21,22
 299 600 299 600 260.5 616 c 128,-1,23
 222 632 222 632 195.5 632 c 128,-1,24
 169 632 169 632 123 600 c 1,25,-1
 102 661 l 1,26,27
 158 710 158 710 211 710 c 0,28,29
 237 710 237 710 275.5 694 c 128,-1,30
 314 678 314 678 340.5 678 c 128,-1,31
 367 678 367 678 413 710 c 1,32,-1
 434 649 l 1,33,34
 378 600 378 600 325 600 c 0,21,22
EndSplineSet
EndChar

StartChar: ograve
Encoding: 242 242 178
Width: 524
GlyphClass: 2
Flags: W
LayerCount: 2
Fore
SplineSet
335 614 m 1,0,-1
 293 564 l 1,1,-1
 106 681 l 1,2,-1
 159 750 l 1,3,-1
 335 614 l 1,0,-1
167.5 514 m 128,-1,5
 214 537 214 537 276.5 537 c 128,-1,6
 339 537 339 537 381.5 513 c 128,-1,7
 424 489 424 489 444 446 c 0,8,9
 479 369 479 369 479 257 c 0,10,11
 479 149 479 149 429 74 c 0,12,13
 403 34 403 34 356.5 11 c 128,-1,14
 310 -12 310 -12 247.5 -12 c 128,-1,15
 185 -12 185 -12 142.5 12 c 128,-1,16
 100 36 100 36 80 80 c 0,17,18
 45 156 45 156 45 268 c 0,19,20
 45 376 45 376 95 452 c 0,21,4
 121 491 121 491 167.5 514 c 128,-1,5
314 447 m 128,-1,23
 291 457 291 457 258.5 457 c 128,-1,24
 226 457 226 457 203 445 c 128,-1,25
 180 433 180 433 168 416.5 c 128,-1,26
 156 400 156 400 150 370 c 0,27,28
 141 325 141 325 141 273 c 128,-1,29
 141 221 141 221 143 196.5 c 128,-1,30
 145 172 145 172 152.5 146 c 128,-1,31
 160 120 160 120 174 104 c 0,32,33
 204 68 204 68 266 68 c 0,34,35
 298 68 298 68 321 80 c 128,-1,36
 344 92 344 92 356 108.5 c 128,-1,37
 368 125 368 125 374 155 c 0,38,39
 383 200 383 200 383 252 c 128,-1,40
 383 304 383 304 381 328.5 c 128,-1,41
 379 353 379 353 371.5 379 c 128,-1,42
 364 405 364 405 350.5 421 c 128,-1,22
 337 437 337 437 314 447 c 128,-1,23
EndSplineSet
EndChar

StartChar: oacute
Encoding: 243 243 179
Width: 524
GlyphClass: 2
Flags: W
LayerCount: 2
Fore
SplineSet
361 750 m 1,0,-1
 414 681 l 1,1,-1
 227 564 l 1,2,-1
 185 614 l 1,3,-1
 361 750 l 1,0,-1
356.5 11 m 128,-1,5
 310 -12 310 -12 247.5 -12 c 128,-1,6
 185 -12 185 -12 142.5 12 c 128,-1,7
 100 36 100 36 80 80 c 0,8,9
 45 156 45 156 45 268 c 0,10,11
 45 376 45 376 95 452 c 0,12,13
 121 491 121 491 167.5 514 c 128,-1,14
 214 537 214 537 276.5 537 c 128,-1,15
 339 537 339 537 381.5 513 c 128,-1,16
 424 489 424 489 444 446 c 0,17,18
 479 369 479 369 479 257 c 0,19,20
 479 149 479 149 429 74 c 0,21,4
 403 34 403 34 356.5 11 c 128,-1,5
210 78 m 128,-1,23
 233 68 233 68 265.5 68 c 128,-1,24
 298 68 298 68 321 80 c 128,-1,25
 344 92 344 92 356 108.5 c 128,-1,26
 368 125 368 125 374 155 c 0,27,28
 383 200 383 200 383 252 c 128,-1,29
 383 304 383 304 381 328.5 c 128,-1,30
 379 353 379 353 371.5 379 c 128,-1,31
 364 405 364 405 350 421 c 0,32,33
 320 457 320 457 258 457 c 0,34,35
 226 457 226 457 203 445 c 128,-1,36
 180 433 180 433 168 416.5 c 128,-1,37
 156 400 156 400 150 370 c 0,38,39
 141 325 141 325 141 273 c 128,-1,40
 141 221 141 221 143 196.5 c 128,-1,41
 145 172 145 172 152.5 146 c 128,-1,42
 160 120 160 120 173.5 104 c 128,-1,22
 187 88 187 88 210 78 c 128,-1,23
EndSplineSet
EndChar

StartChar: ocircumflex
Encoding: 244 244 180
Width: 524
GlyphClass: 2
Flags: W
LayerCount: 2
Fore
SplineSet
292 731 m 1,0,-1
 417 613 l 1,1,-1
 379 567 l 1,2,-1
 264 656 l 1,3,-1
 149 567 l 1,4,-1
 111 613 l 1,5,-1
 236 731 l 1,6,-1
 292 731 l 1,0,-1
167.5 514 m 128,-1,8
 214 537 214 537 276.5 537 c 128,-1,9
 339 537 339 537 381.5 513 c 128,-1,10
 424 489 424 489 444 446 c 0,11,12
 479 369 479 369 479 257 c 0,13,14
 479 149 479 149 429 74 c 0,15,16
 403 34 403 34 356.5 11 c 128,-1,17
 310 -12 310 -12 247.5 -12 c 128,-1,18
 185 -12 185 -12 142.5 12 c 128,-1,19
 100 36 100 36 80 80 c 0,20,21
 45 156 45 156 45 268 c 0,22,23
 45 376 45 376 95 452 c 0,24,7
 121 491 121 491 167.5 514 c 128,-1,8
314 447 m 128,-1,26
 291 457 291 457 258.5 457 c 128,-1,27
 226 457 226 457 203 445 c 128,-1,28
 180 433 180 433 168 416.5 c 128,-1,29
 156 400 156 400 150 370 c 0,30,31
 141 325 141 325 141 273 c 128,-1,32
 141 221 141 221 143 196.5 c 128,-1,33
 145 172 145 172 152.5 146 c 128,-1,34
 160 120 160 120 174 104 c 0,35,36
 204 68 204 68 266 68 c 0,37,38
 298 68 298 68 321 80 c 128,-1,39
 344 92 344 92 356 108.5 c 128,-1,40
 368 125 368 125 374 155 c 0,41,42
 383 200 383 200 383 252 c 128,-1,43
 383 304 383 304 381 328.5 c 128,-1,44
 379 353 379 353 371.5 379 c 128,-1,45
 364 405 364 405 350.5 421 c 128,-1,25
 337 437 337 437 314 447 c 128,-1,26
EndSplineSet
EndChar

StartChar: otilde
Encoding: 245 245 181
Width: 524
GlyphClass: 2
Flags: W
LayerCount: 2
Fore
SplineSet
317 600 m 0,0,1
 291 600 291 600 252.5 616 c 128,-1,2
 214 632 214 632 187.5 632 c 128,-1,3
 161 632 161 632 115 600 c 1,4,-1
 94 661 l 1,5,6
 150 710 150 710 203 710 c 0,7,8
 229 710 229 710 267.5 694 c 128,-1,9
 306 678 306 678 332.5 678 c 128,-1,10
 359 678 359 678 405 710 c 1,11,-1
 426 649 l 1,12,13
 370 600 370 600 317 600 c 0,0,1
167.5 514 m 128,-1,15
 214 537 214 537 276.5 537 c 128,-1,16
 339 537 339 537 381.5 513 c 128,-1,17
 424 489 424 489 444 446 c 0,18,19
 479 369 479 369 479 257 c 0,20,21
 479 149 479 149 429 74 c 0,22,23
 403 34 403 34 356.5 11 c 128,-1,24
 310 -12 310 -12 247.5 -12 c 128,-1,25
 185 -12 185 -12 142.5 12 c 128,-1,26
 100 36 100 36 80 80 c 0,27,28
 45 156 45 156 45 268 c 0,29,30
 45 376 45 376 95 452 c 0,31,14
 121 491 121 491 167.5 514 c 128,-1,15
314 447 m 128,-1,33
 291 457 291 457 258.5 457 c 128,-1,34
 226 457 226 457 203 445 c 128,-1,35
 180 433 180 433 168 416.5 c 128,-1,36
 156 400 156 400 150 370 c 0,37,38
 141 325 141 325 141 273 c 128,-1,39
 141 221 141 221 143 196.5 c 128,-1,40
 145 172 145 172 152.5 146 c 128,-1,41
 160 120 160 120 174 104 c 0,42,43
 204 68 204 68 266 68 c 0,44,45
 298 68 298 68 321 80 c 128,-1,46
 344 92 344 92 356 108.5 c 128,-1,47
 368 125 368 125 374 155 c 0,48,49
 383 200 383 200 383 252 c 128,-1,50
 383 304 383 304 381 328.5 c 128,-1,51
 379 353 379 353 371.5 379 c 128,-1,52
 364 405 364 405 350.5 421 c 128,-1,32
 337 437 337 437 314 447 c 128,-1,33
EndSplineSet
EndChar

StartChar: odieresis
Encoding: 246 246 182
Width: 524
GlyphClass: 2
Flags: W
LayerCount: 2
Fore
SplineSet
175 711 m 0,0,1
 227 711 227 711 227 652 c 0,2,3
 227 600 227 600 168 600 c 0,4,5
 115 600 115 600 115 659 c 0,6,7
 115 684 115 684 127.5 697.5 c 128,-1,8
 140 711 140 711 175 711 c 0,0,1
358 711 m 0,9,10
 411 711 411 711 411 652 c 0,11,12
 411 627 411 627 398.5 613.5 c 128,-1,13
 386 600 386 600 351 600 c 0,14,15
 299 600 299 600 299 659 c 0,16,17
 299 711 299 711 358 711 c 0,9,10
167.5 514 m 128,-1,19
 214 537 214 537 276.5 537 c 128,-1,20
 339 537 339 537 381.5 513 c 128,-1,21
 424 489 424 489 444 446 c 0,22,23
 479 369 479 369 479 257 c 0,24,25
 479 149 479 149 429 74 c 0,26,27
 403 34 403 34 356.5 11 c 128,-1,28
 310 -12 310 -12 247.5 -12 c 128,-1,29
 185 -12 185 -12 142.5 12 c 128,-1,30
 100 36 100 36 80 80 c 0,31,32
 45 156 45 156 45 268 c 0,33,34
 45 376 45 376 95 452 c 0,35,18
 121 491 121 491 167.5 514 c 128,-1,19
314 447 m 128,-1,37
 291 457 291 457 258.5 457 c 128,-1,38
 226 457 226 457 203 445 c 128,-1,39
 180 433 180 433 168 416.5 c 128,-1,40
 156 400 156 400 150 370 c 0,41,42
 141 325 141 325 141 273 c 128,-1,43
 141 221 141 221 143 196.5 c 128,-1,44
 145 172 145 172 152.5 146 c 128,-1,45
 160 120 160 120 174 104 c 0,46,47
 204 68 204 68 266 68 c 0,48,49
 298 68 298 68 321 80 c 128,-1,50
 344 92 344 92 356 108.5 c 128,-1,51
 368 125 368 125 374 155 c 0,52,53
 383 200 383 200 383 252 c 128,-1,54
 383 304 383 304 381 328.5 c 128,-1,55
 379 353 379 353 371.5 379 c 128,-1,56
 364 405 364 405 350.5 421 c 128,-1,36
 337 437 337 437 314 447 c 128,-1,37
EndSplineSet
EndChar

StartChar: divide
Encoding: 247 247 183
Width: 572
GlyphClass: 2
Flags: W
LayerCount: 2
Fore
SplineSet
230 108 m 0,0,1
 230 133 230 133 246 150.5 c 128,-1,2
 262 168 262 168 296 168 c 0,3,4
 355 168 355 168 355 102 c 0,5,6
 355 78 355 78 338.5 60.5 c 128,-1,7
 322 43 322 43 289 43 c 0,8,9
 230 43 230 43 230 108 c 0,0,1
230 475 m 0,10,11
 230 500 230 500 246 517 c 128,-1,12
 262 534 262 534 296 534 c 0,13,14
 355 534 355 534 355 468 c 0,15,16
 355 444 355 444 338.5 426.5 c 128,-1,17
 322 409 322 409 289 409 c 0,18,19
 230 409 230 409 230 475 c 0,10,11
532 328 m 1,20,-1
 520 253 l 1,21,-1
 40 253 l 1,22,-1
 52 328 l 1,23,-1
 532 328 l 1,20,-1
EndSplineSet
EndChar

StartChar: oslash
Encoding: 248 248 184
Width: 524
GlyphClass: 2
Flags: W
LayerCount: 2
Fore
SplineSet
45 268 m 0,0,1
 45 376 45 376 95 452 c 0,2,3
 121 491 121 491 167.5 514 c 128,-1,4
 214 537 214 537 277 537 c 0,5,6
 305 537 305 537 329 531 c 1,7,-1
 357 612 l 1,8,-1
 409 594 l 1,9,-1
 381 513 l 1,10,11
 479 456 479 456 479 257 c 0,12,13
 479 149 479 149 429 74 c 0,14,15
 403 34 403 34 356.5 11 c 128,-1,16
 310 -12 310 -12 247 -12 c 0,17,18
 230 -12 230 -12 202 -8 c 1,19,-1
 175 -87 l 1,20,-1
 123 -69 l 1,21,-1
 149 8 l 1,22,23
 45 62 45 62 45 268 c 0,0,1
141 256 m 0,24,25
 141 136 141 136 180 97 c 1,26,-1
 302 451 l 1,27,28
 282 457 282 457 254 457 c 128,-1,29
 226 457 226 457 203 445 c 128,-1,30
 180 433 180 433 168 416.5 c 128,-1,31
 156 400 156 400 150 370 c 0,32,33
 141 325 141 325 141 256 c 0,24,25
229 72 m 1,34,35
 244 68 244 68 271 68 c 128,-1,36
 298 68 298 68 321 80 c 128,-1,37
 344 92 344 92 356 108.5 c 128,-1,38
 368 125 368 125 374 155 c 0,39,40
 383 200 383 200 383 269 c 0,41,42
 383 381 383 381 349 421 c 1,43,-1
 229 72 l 1,34,35
EndSplineSet
EndChar

StartChar: ugrave
Encoding: 249 249 185
Width: 543
GlyphClass: 2
Flags: W
LayerCount: 2
Fore
SplineSet
231 -12 m 0,0,1
 163 -12 163 -12 119 30 c 128,-1,2
 75 72 75 72 75 160 c 2,3,-1
 75 521 l 1,4,-1
 165 530 l 1,5,-1
 165 171 l 2,6,7
 165 68 165 68 262 68 c 0,8,9
 326 68 326 68 373 115 c 1,10,-1
 373 521 l 1,11,-1
 463 530 l 1,12,-1
 463 144 l 1,13,-1
 471 5 l 1,14,-1
 398 -5 l 1,15,-1
 387 56 l 1,16,-1
 383 56 l 1,17,18
 326 -12 326 -12 231 -12 c 0,0,1
347 614 m 1,19,-1
 305 564 l 1,20,-1
 118 681 l 1,21,-1
 171 750 l 1,22,-1
 347 614 l 1,19,-1
EndSplineSet
EndChar

StartChar: uacute
Encoding: 250 250 186
Width: 543
GlyphClass: 2
Flags: W
LayerCount: 2
Fore
SplineSet
231 -12 m 0,0,1
 163 -12 163 -12 119 30 c 128,-1,2
 75 72 75 72 75 160 c 2,3,-1
 75 521 l 1,4,-1
 165 530 l 1,5,-1
 165 171 l 2,6,7
 165 68 165 68 262 68 c 0,8,9
 326 68 326 68 373 115 c 1,10,-1
 373 521 l 1,11,-1
 463 530 l 1,12,-1
 463 144 l 1,13,-1
 471 5 l 1,14,-1
 398 -5 l 1,15,-1
 387 56 l 1,16,-1
 383 56 l 1,17,18
 326 -12 326 -12 231 -12 c 0,0,1
368 750 m 1,19,-1
 421 681 l 1,20,-1
 234 564 l 1,21,-1
 192 614 l 1,22,-1
 368 750 l 1,19,-1
EndSplineSet
EndChar

StartChar: ucircumflex
Encoding: 251 251 187
Width: 543
GlyphClass: 2
Flags: W
LayerCount: 2
Fore
SplineSet
231 -12 m 0,0,1
 163 -12 163 -12 119 30 c 128,-1,2
 75 72 75 72 75 160 c 2,3,-1
 75 521 l 1,4,-1
 165 530 l 1,5,-1
 165 171 l 2,6,7
 165 68 165 68 262 68 c 0,8,9
 326 68 326 68 373 115 c 1,10,-1
 373 521 l 1,11,-1
 463 530 l 1,12,-1
 463 144 l 1,13,-1
 471 5 l 1,14,-1
 398 -5 l 1,15,-1
 387 56 l 1,16,-1
 383 56 l 1,17,18
 326 -12 326 -12 231 -12 c 0,0,1
298 731 m 1,19,-1
 423 613 l 1,20,-1
 385 567 l 1,21,-1
 270 656 l 1,22,-1
 155 567 l 1,23,-1
 117 613 l 1,24,-1
 242 731 l 1,25,-1
 298 731 l 1,19,-1
EndSplineSet
EndChar

StartChar: udieresis
Encoding: 252 252 188
Width: 543
GlyphClass: 2
Flags: W
LayerCount: 2
Fore
SplineSet
231 -12 m 0,0,1
 163 -12 163 -12 119 30 c 128,-1,2
 75 72 75 72 75 160 c 2,3,-1
 75 521 l 1,4,-1
 165 530 l 1,5,-1
 165 171 l 2,6,7
 165 68 165 68 262 68 c 0,8,9
 326 68 326 68 373 115 c 1,10,-1
 373 521 l 1,11,-1
 463 530 l 1,12,-1
 463 144 l 1,13,-1
 471 5 l 1,14,-1
 398 -5 l 1,15,-1
 387 56 l 1,16,-1
 383 56 l 1,17,18
 326 -12 326 -12 231 -12 c 0,0,1
181 711 m 0,19,20
 233 711 233 711 233 652 c 0,21,22
 233 600 233 600 174 600 c 0,23,24
 121 600 121 600 121 659 c 0,25,26
 121 684 121 684 133.5 697.5 c 128,-1,27
 146 711 146 711 181 711 c 0,19,20
364 711 m 0,28,29
 417 711 417 711 417 652 c 0,30,31
 417 627 417 627 404.5 613.5 c 128,-1,32
 392 600 392 600 357 600 c 0,33,34
 305 600 305 600 305 659 c 0,35,36
 305 711 305 711 364 711 c 0,28,29
EndSplineSet
EndChar

StartChar: yacute
Encoding: 253 253 189
Width: 430
GlyphClass: 2
Flags: W
LayerCount: 2
Fore
SplineSet
333 529 m 1,0,-1
 420 519 l 1,1,-1
 297 104 l 2,2,3
 256 -36 256 -36 221 -99 c 0,4,5
 199 -138 199 -138 150 -168.5 c 128,-1,6
 101 -199 101 -199 65 -200 c 1,7,-1
 28 -127 l 1,8,9
 76 -123 76 -123 119.5 -91 c 128,-1,10
 163 -59 163 -59 172 -8 c 1,11,12
 100 217 100 217 5 520 c 1,13,-1
 99 530 l 1,14,-1
 213 101 l 1,15,-1
 219 101 l 1,16,-1
 333 529 l 1,0,-1
307 750 m 1,17,-1
 360 681 l 1,18,-1
 173 564 l 1,19,-1
 131 614 l 1,20,-1
 307 750 l 1,17,-1
EndSplineSet
EndChar

StartChar: thorn
Encoding: 254 254 190
Width: 533
GlyphClass: 2
Flags: W
LayerCount: 2
Fore
SplineSet
170 94 m 1,0,1
 213 68 213 68 270.5 68 c 128,-1,2
 328 68 328 68 360 110.5 c 128,-1,3
 392 153 392 153 392 265.5 c 128,-1,4
 392 378 392 378 362.5 417.5 c 128,-1,5
 333 457 333 457 268 457 c 128,-1,6
 203 457 203 457 170 408 c 1,7,-1
 170 94 l 1,0,1
301 537 m 0,8,9
 488 537 488 537 488 265 c 0,10,11
 488 200 488 200 473.5 149.5 c 128,-1,12
 459 99 459 99 436.5 69.5 c 128,-1,13
 414 40 414 40 384 21 c 0,14,15
 333 -12 333 -12 268.5 -12 c 128,-1,16
 204 -12 204 -12 170 20 c 1,17,-1
 167 19 l 1,18,-1
 170 -6 l 1,19,-1
 170 -184 l 1,20,-1
 80 -194 l 1,21,-1
 80 745 l 1,22,-1
 170 755 l 1,23,-1
 170 531 l 1,24,-1
 165 481 l 1,25,-1
 168 478 l 1,26,27
 212 537 212 537 301 537 c 0,8,9
EndSplineSet
EndChar

StartChar: ydieresis
Encoding: 255 255 191
Width: 430
GlyphClass: 2
Flags: W
LayerCount: 2
Fore
SplineSet
333 529 m 1,0,-1
 420 519 l 1,1,-1
 297 104 l 2,2,3
 256 -36 256 -36 221 -99 c 0,4,5
 199 -138 199 -138 150 -168.5 c 128,-1,6
 101 -199 101 -199 65 -200 c 1,7,-1
 28 -127 l 1,8,9
 76 -123 76 -123 119.5 -91 c 128,-1,10
 163 -59 163 -59 172 -8 c 1,11,12
 100 217 100 217 5 520 c 1,13,-1
 99 530 l 1,14,-1
 213 101 l 1,15,-1
 219 101 l 1,16,-1
 333 529 l 1,0,-1
130 711 m 0,17,18
 182 711 182 711 182 652 c 0,19,20
 182 600 182 600 123 600 c 0,21,22
 70 600 70 600 70 659 c 0,23,24
 70 684 70 684 82.5 697.5 c 128,-1,25
 95 711 95 711 130 711 c 0,17,18
313 711 m 0,26,27
 366 711 366 711 366 652 c 0,28,29
 366 627 366 627 353.5 613.5 c 128,-1,30
 341 600 341 600 306 600 c 0,31,32
 254 600 254 600 254 659 c 0,33,34
 254 711 254 711 313 711 c 0,26,27
EndSplineSet
EndChar

StartChar: Amacron
Encoding: 256 256 192
Width: 534
GlyphClass: 2
Flags: W
LayerCount: 2
Fore
SplineSet
328 705 m 1,0,-1
 522 0 l 1,1,-1
 421 0 l 1,2,-1
 374 185 l 1,3,-1
 152 185 l 1,4,-1
 103 0 l 1,5,-1
 10 0 l 1,6,-1
 205 693 l 1,7,-1
 328 705 l 1,0,-1
262 615 m 1,8,-1
 175 267 l 1,9,-1
 354 267 l 1,10,-1
 269 615 l 1,11,-1
 262 615 l 1,8,-1
397 868 m 1,12,-1
 397 794 l 1,13,-1
 137 794 l 1,14,-1
 137 868 l 1,15,-1
 397 868 l 1,12,-1
EndSplineSet
EndChar

StartChar: amacron
Encoding: 257 257 193
Width: 481
GlyphClass: 2
Flags: W
LayerCount: 2
Fore
SplineSet
108 691 m 1,0,-1
 368 691 l 1,1,-1
 368 621 l 1,2,-1
 108 621 l 1,3,-1
 108 691 l 1,0,-1
311 366 m 2,4,5
 311 457 311 457 228 457 c 0,6,7
 175 457 175 457 85 429 c 1,8,-1
 53 492 l 1,9,10
 139 537 139 537 239 537 c 0,11,12
 360 537 360 537 387 465 c 0,13,14
 401 428 401 428 401 367 c 2,15,-1
 401 154 l 2,16,17
 401 82 401 82 442 40 c 1,18,-1
 389 -12 l 1,19,20
 371 -1 371 -1 352.5 20.5 c 128,-1,21
 334 42 334 42 327 63 c 1,22,-1
 324 62 l 1,23,24
 268 -12 268 -12 172 -12 c 0,25,26
 29 -12 29 -12 29 137 c 0,27,28
 29 269 29 269 215 296 c 2,29,-1
 311 310 l 1,30,-1
 311 366 l 2,4,5
125 134 m 0,31,32
 125 68 125 68 196 68 c 128,-1,33
 267 68 267 68 311 114 c 1,34,-1
 311 240 l 1,35,36
 185 223 185 223 156 200 c 0,37,38
 125 175 125 175 125 134 c 0,31,32
EndSplineSet
EndChar

StartChar: Abreve
Encoding: 258 258 194
Width: 534
GlyphClass: 2
Flags: W
LayerCount: 2
Fore
SplineSet
328 705 m 1,0,-1
 522 0 l 1,1,-1
 421 0 l 1,2,-1
 374 185 l 1,3,-1
 152 185 l 1,4,-1
 103 0 l 1,5,-1
 10 0 l 1,6,-1
 205 693 l 1,7,-1
 328 705 l 1,0,-1
262 615 m 1,8,-1
 175 267 l 1,9,-1
 354 267 l 1,10,-1
 269 615 l 1,11,-1
 262 615 l 1,8,-1
418 843 m 1,12,13
 361 770 361 770 267 770 c 128,-1,14
 173 770 173 770 116 843 c 1,15,-1
 156 886 l 1,16,17
 209 842 209 842 268 842 c 128,-1,18
 327 842 327 842 380 886 c 1,19,-1
 418 843 l 1,12,13
EndSplineSet
EndChar

StartChar: abreve
Encoding: 259 259 195
Width: 481
GlyphClass: 2
Flags: W
LayerCount: 2
Fore
SplineSet
311 366 m 2,0,1
 311 457 311 457 228 457 c 0,2,3
 175 457 175 457 85 429 c 1,4,-1
 53 492 l 1,5,6
 139 537 139 537 239 537 c 0,7,8
 360 537 360 537 387 465 c 0,9,10
 401 428 401 428 401 367 c 2,11,-1
 401 154 l 2,12,13
 401 82 401 82 442 40 c 1,14,-1
 389 -12 l 1,15,16
 371 -1 371 -1 352.5 20.5 c 128,-1,17
 334 42 334 42 327 63 c 1,18,-1
 324 62 l 1,19,20
 268 -12 268 -12 172 -12 c 0,21,22
 29 -12 29 -12 29 137 c 0,23,24
 29 269 29 269 215 296 c 2,25,-1
 311 310 l 1,26,-1
 311 366 l 2,0,1
125 134 m 0,27,28
 125 68 125 68 196 68 c 128,-1,29
 267 68 267 68 311 114 c 1,30,-1
 311 240 l 1,31,32
 185 223 185 223 156 200 c 0,33,34
 125 175 125 175 125 134 c 0,27,28
389 668 m 1,35,36
 332 595 332 595 238 595 c 128,-1,37
 144 595 144 595 87 668 c 1,38,-1
 127 711 l 1,39,40
 180 667 180 667 239 667 c 128,-1,41
 298 667 298 667 351 711 c 1,42,-1
 389 668 l 1,35,36
EndSplineSet
EndChar

StartChar: Aogonek
Encoding: 260 260 196
Width: 534
GlyphClass: 2
Flags: W
LayerCount: 2
Fore
SplineSet
530 -168 m 1,0,1
 496 -188 496 -188 462.5 -188 c 128,-1,2
 429 -188 429 -188 406 -167.5 c 128,-1,3
 383 -147 383 -147 383 -117 c 128,-1,4
 383 -87 383 -87 397 -63.5 c 128,-1,5
 411 -40 411 -40 421 -31 c 128,-1,6
 431 -22 431 -22 458 0 c 1,7,-1
 421 0 l 1,8,-1
 374 185 l 1,9,-1
 152 185 l 1,10,-1
 103 0 l 1,11,-1
 10 0 l 1,12,-1
 205 693 l 1,13,-1
 328 705 l 1,14,-1
 522 0 l 1,15,16
 451 -66 451 -66 451 -103 c 0,17,18
 451 -117 451 -117 459.5 -127 c 128,-1,19
 468 -137 468 -137 485.5 -137 c 128,-1,20
 503 -137 503 -137 519 -130 c 1,21,-1
 530 -168 l 1,0,1
354 267 m 1,22,-1
 269 615 l 1,23,-1
 262 615 l 1,24,-1
 175 267 l 1,25,-1
 354 267 l 1,22,-1
EndSplineSet
EndChar

StartChar: aogonek
Encoding: 261 261 197
Width: 481
GlyphClass: 2
Flags: W
LayerCount: 2
Fore
SplineSet
311 366 m 2,0,1
 311 457 311 457 228 457 c 0,2,3
 175 457 175 457 85 429 c 1,4,-1
 53 492 l 1,5,6
 139 537 139 537 239 537 c 0,7,8
 360 537 360 537 387 465 c 0,9,10
 401 428 401 428 401 367 c 2,11,-1
 401 154 l 2,12,13
 401 82 401 82 442 40 c 1,14,15
 369 -33 369 -33 362 -42 c 0,16,17
 331 -81 331 -81 331 -99 c 128,-1,18
 331 -117 331 -117 339.5 -127 c 128,-1,19
 348 -137 348 -137 365.5 -137 c 128,-1,20
 383 -137 383 -137 399 -130 c 1,21,-1
 410 -168 l 1,22,23
 376 -188 376 -188 342.5 -188 c 128,-1,24
 309 -188 309 -188 286 -167.5 c 128,-1,25
 263 -147 263 -147 263 -112.5 c 128,-1,26
 263 -78 263 -78 295 -41 c 1,27,-1
 354 18 l 1,28,29
 334 39 334 39 327 63 c 1,30,-1
 324 62 l 1,31,32
 268 -12 268 -12 172 -12 c 0,33,34
 29 -12 29 -12 29 137 c 0,35,36
 29 269 29 269 215 296 c 2,37,-1
 311 310 l 1,38,-1
 311 366 l 2,0,1
125 134 m 0,39,40
 125 68 125 68 196 68 c 128,-1,41
 267 68 267 68 311 114 c 1,42,-1
 311 240 l 1,43,44
 185 223 185 223 156 200 c 0,45,46
 125 175 125 175 125 134 c 0,39,40
EndSplineSet
EndChar

StartChar: Cacute
Encoding: 262 262 198
Width: 542
GlyphClass: 2
Flags: W
LayerCount: 2
Fore
SplineSet
324 712 m 0,0,1
 428 712 428 712 472 661 c 128,-1,2
 516 610 516 610 516 508 c 1,3,-1
 414 498 l 1,4,5
 414 571 414 571 388 598.5 c 128,-1,6
 362 626 362 626 313.5 626 c 128,-1,7
 265 626 265 626 236.5 610.5 c 128,-1,8
 208 595 208 595 191.5 570 c 128,-1,9
 175 545 175 545 166 503 c 0,10,11
 152 438 152 438 152 317 c 128,-1,12
 152 196 152 196 198 135 c 128,-1,13
 244 74 244 74 340 74 c 0,14,15
 385 74 385 74 466 102 c 0,16,17
 485 109 485 109 488 110 c 1,18,-1
 516 38 l 1,19,20
 423 -12 423 -12 322 -12 c 0,21,22
 254 -12 254 -12 204 9 c 128,-1,23
 154 30 154 30 125 62.5 c 128,-1,24
 96 95 96 95 78 144 c 0,25,26
 50 224 50 224 50 322.5 c 128,-1,27
 50 421 50 421 65 484.5 c 128,-1,28
 80 548 80 548 111.5 600.5 c 128,-1,29
 143 653 143 653 197.5 682.5 c 128,-1,30
 252 712 252 712 324 712 c 0,0,1
404 898 m 1,31,-1
 442 821 l 1,32,-1
 234 736 l 1,33,-1
 201 792 l 1,34,-1
 404 898 l 1,31,-1
EndSplineSet
EndChar

StartChar: cacute
Encoding: 263 263 199
Width: 459
GlyphClass: 2
Flags: W
LayerCount: 2
Fore
SplineSet
103.5 460.5 m 128,-1,1
 162 537 162 537 259.5 537 c 128,-1,2
 357 537 357 537 389.5 491.5 c 128,-1,3
 422 446 422 446 422 359 c 1,4,-1
 332 353 l 1,5,6
 332 410 332 410 315 433.5 c 128,-1,7
 298 457 298 457 246 457 c 0,8,9
 141 457 141 457 141 262.5 c 128,-1,10
 141 68 141 68 275 68 c 0,11,12
 334 68 334 68 400 101 c 1,13,-1
 427 41 l 1,14,15
 402 19 402 19 356 3.5 c 128,-1,16
 310 -12 310 -12 257 -12 c 0,17,18
 45 -12 45 -12 45 259 c 0,19,0
 45 384 45 384 103.5 460.5 c 128,-1,1
331 750 m 1,20,-1
 384 681 l 1,21,-1
 197 564 l 1,22,-1
 155 614 l 1,23,-1
 331 750 l 1,20,-1
EndSplineSet
EndChar

StartChar: Ccircumflex
Encoding: 264 264 200
Width: 542
GlyphClass: 2
Flags: W
LayerCount: 2
Fore
SplineSet
324 712 m 0,0,1
 428 712 428 712 472 661 c 128,-1,2
 516 610 516 610 516 508 c 1,3,-1
 414 498 l 1,4,5
 414 571 414 571 388 598.5 c 128,-1,6
 362 626 362 626 313.5 626 c 128,-1,7
 265 626 265 626 236.5 610.5 c 128,-1,8
 208 595 208 595 191.5 570 c 128,-1,9
 175 545 175 545 166 503 c 0,10,11
 152 438 152 438 152 317 c 128,-1,12
 152 196 152 196 198 135 c 128,-1,13
 244 74 244 74 340 74 c 0,14,15
 385 74 385 74 466 102 c 0,16,17
 485 109 485 109 488 110 c 1,18,-1
 516 38 l 1,19,20
 423 -12 423 -12 322 -12 c 0,21,22
 254 -12 254 -12 204 9 c 128,-1,23
 154 30 154 30 125 62.5 c 128,-1,24
 96 95 96 95 78 144 c 0,25,26
 50 224 50 224 50 322.5 c 128,-1,27
 50 421 50 421 65 484.5 c 128,-1,28
 80 548 80 548 111.5 600.5 c 128,-1,29
 143 653 143 653 197.5 682.5 c 128,-1,30
 252 712 252 712 324 712 c 0,0,1
329 885 m 1,31,-1
 456 779 l 1,32,-1
 418 735 l 1,33,-1
 303 812 l 1,34,-1
 188 735 l 1,35,-1
 150 779 l 1,36,-1
 277 885 l 1,37,-1
 329 885 l 1,31,-1
EndSplineSet
EndChar

StartChar: Cdotaccent
Encoding: 266 266 201
Width: 542
GlyphClass: 2
Flags: W
LayerCount: 2
Fore
SplineSet
324 712 m 0,0,1
 428 712 428 712 472 661 c 128,-1,2
 516 610 516 610 516 508 c 1,3,-1
 414 498 l 1,4,5
 414 571 414 571 388 598.5 c 128,-1,6
 362 626 362 626 313.5 626 c 128,-1,7
 265 626 265 626 236.5 610.5 c 128,-1,8
 208 595 208 595 191.5 570 c 128,-1,9
 175 545 175 545 166 503 c 0,10,11
 152 438 152 438 152 317 c 128,-1,12
 152 196 152 196 198 135 c 128,-1,13
 244 74 244 74 340 74 c 0,14,15
 385 74 385 74 466 102 c 0,16,17
 485 109 485 109 488 110 c 1,18,-1
 516 38 l 1,19,20
 423 -12 423 -12 322 -12 c 0,21,22
 254 -12 254 -12 204 9 c 128,-1,23
 154 30 154 30 125 62.5 c 128,-1,24
 96 95 96 95 78 144 c 0,25,26
 50 224 50 224 50 322.5 c 128,-1,27
 50 421 50 421 65 484.5 c 128,-1,28
 80 548 80 548 111.5 600.5 c 128,-1,29
 143 653 143 653 197.5 682.5 c 128,-1,30
 252 712 252 712 324 712 c 0,0,1
306 892 m 0,31,32
 367 892 367 892 367 824 c 0,33,34
 367 799 367 799 350.5 781 c 128,-1,35
 334 763 334 763 299 763 c 0,36,37
 238 763 238 763 238 831 c 0,38,39
 238 856 238 856 254.5 874 c 128,-1,40
 271 892 271 892 306 892 c 0,31,32
EndSplineSet
EndChar

StartChar: cdotaccent
Encoding: 267 267 202
Width: 459
GlyphClass: 2
Flags: W
LayerCount: 2
Fore
SplineSet
103.5 460.5 m 128,-1,1
 162 537 162 537 259.5 537 c 128,-1,2
 357 537 357 537 389.5 491.5 c 128,-1,3
 422 446 422 446 422 359 c 1,4,-1
 332 353 l 1,5,6
 332 410 332 410 315 433.5 c 128,-1,7
 298 457 298 457 246 457 c 0,8,9
 141 457 141 457 141 262.5 c 128,-1,10
 141 68 141 68 275 68 c 0,11,12
 334 68 334 68 400 101 c 1,13,-1
 427 41 l 1,14,15
 402 19 402 19 356 3.5 c 128,-1,16
 310 -12 310 -12 257 -12 c 0,17,18
 45 -12 45 -12 45 259 c 0,19,0
 45 384 45 384 103.5 460.5 c 128,-1,1
257 559 m 0,20,21
 196 559 196 559 196 627 c 0,22,23
 196 652 196 652 212.5 670 c 128,-1,24
 229 688 229 688 264 688 c 0,25,26
 325 688 325 688 325 620 c 0,27,28
 325 595 325 595 308.5 577 c 128,-1,29
 292 559 292 559 257 559 c 0,20,21
EndSplineSet
EndChar

StartChar: Ccaron
Encoding: 268 268 203
Width: 542
GlyphClass: 2
Flags: W
LayerCount: 2
Fore
SplineSet
324 712 m 0,0,1
 428 712 428 712 472 661 c 128,-1,2
 516 610 516 610 516 508 c 1,3,-1
 414 498 l 1,4,5
 414 571 414 571 388 598.5 c 128,-1,6
 362 626 362 626 313.5 626 c 128,-1,7
 265 626 265 626 236.5 610.5 c 128,-1,8
 208 595 208 595 191.5 570 c 128,-1,9
 175 545 175 545 166 503 c 0,10,11
 152 438 152 438 152 317 c 128,-1,12
 152 196 152 196 198 135 c 128,-1,13
 244 74 244 74 340 74 c 0,14,15
 385 74 385 74 466 102 c 0,16,17
 485 109 485 109 488 110 c 1,18,-1
 516 38 l 1,19,20
 423 -12 423 -12 322 -12 c 0,21,22
 254 -12 254 -12 204 9 c 128,-1,23
 154 30 154 30 125 62.5 c 128,-1,24
 96 95 96 95 78 144 c 0,25,26
 50 224 50 224 50 322.5 c 128,-1,27
 50 421 50 421 65 484.5 c 128,-1,28
 80 548 80 548 111.5 600.5 c 128,-1,29
 143 653 143 653 197.5 682.5 c 128,-1,30
 252 712 252 712 324 712 c 0,0,1
456 841 m 1,31,-1
 329 735 l 1,32,-1
 277 735 l 1,33,-1
 150 841 l 1,34,-1
 188 885 l 1,35,-1
 303 808 l 1,36,-1
 418 885 l 1,37,-1
 456 841 l 1,31,-1
EndSplineSet
EndChar

StartChar: ccaron
Encoding: 269 269 204
Width: 459
GlyphClass: 2
Flags: W
LayerCount: 2
Fore
SplineSet
103.5 460.5 m 128,-1,1
 162 537 162 537 259.5 537 c 128,-1,2
 357 537 357 537 389.5 491.5 c 128,-1,3
 422 446 422 446 422 359 c 1,4,-1
 332 353 l 1,5,6
 332 410 332 410 315 433.5 c 128,-1,7
 298 457 298 457 246 457 c 0,8,9
 141 457 141 457 141 262.5 c 128,-1,10
 141 68 141 68 275 68 c 0,11,12
 334 68 334 68 400 101 c 1,13,-1
 427 41 l 1,14,15
 402 19 402 19 356 3.5 c 128,-1,16
 310 -12 310 -12 257 -12 c 0,17,18
 45 -12 45 -12 45 259 c 0,19,0
 45 384 45 384 103.5 460.5 c 128,-1,1
414 687 m 1,20,-1
 289 569 l 1,21,-1
 233 569 l 1,22,-1
 108 687 l 1,23,-1
 146 733 l 1,24,-1
 261 646 l 1,25,-1
 376 733 l 1,26,-1
 414 687 l 1,20,-1
EndSplineSet
EndChar

StartChar: Dcaron
Encoding: 270 270 205
Width: 612
GlyphClass: 2
Flags: W
LayerCount: 2
Fore
SplineSet
90 700 m 1,0,-1
 294 700 l 2,1,2
 360 700 360 700 409.5 678.5 c 128,-1,3
 459 657 459 657 487.5 624 c 128,-1,4
 516 591 516 591 534 542 c 0,5,6
 562 462 562 462 562 344 c 0,7,8
 562 204 562 204 504 107 c 0,9,10
 474 57 474 57 421 28.5 c 128,-1,11
 368 0 368 0 297 0 c 2,12,-1
 90 0 l 1,13,-1
 90 700 l 1,0,-1
186 614 m 1,14,-1
 186 86 l 1,15,-1
 286 86 l 2,16,17
 410 86 410 86 442 199 c 0,18,19
 460 261 460 261 460 369 c 128,-1,20
 460 477 460 477 419.5 545.5 c 128,-1,21
 379 614 379 614 278 614 c 2,22,-1
 186 614 l 1,14,-1
452 841 m 1,23,-1
 325 735 l 1,24,-1
 273 735 l 1,25,-1
 146 841 l 1,26,-1
 184 885 l 1,27,-1
 299 808 l 1,28,-1
 414 885 l 1,29,-1
 452 841 l 1,23,-1
EndSplineSet
EndChar

StartChar: dcaron
Encoding: 271 271 206
Width: 593
GlyphClass: 2
Flags: W
LayerCount: 2
Fore
SplineSet
620 749 m 1,0,1
 629 674 629 674 629 648.5 c 128,-1,2
 629 623 629 623 610 590.5 c 128,-1,3
 591 558 591 558 533 507 c 1,4,-1
 493 548 l 1,5,6
 526 582 526 582 535.5 598.5 c 128,-1,7
 545 615 545 615 545 640.5 c 128,-1,8
 545 666 545 666 530 730 c 1,9,-1
 620 749 l 1,0,1
269 457 m 0,10,11
 242 457 242 457 223 450.5 c 128,-1,12
 204 444 204 444 184 426 c 0,13,14
 141 387 141 387 141 267.5 c 128,-1,15
 141 148 141 148 168.5 108 c 128,-1,16
 196 68 196 68 257 68 c 0,17,18
 291 68 291 68 320 83.5 c 128,-1,19
 349 99 349 99 363 117 c 1,20,-1
 363 429 l 1,21,22
 324 457 324 457 269 457 c 0,10,11
363 505 m 1,23,-1
 366 506 l 1,24,-1
 363 532 l 1,25,-1
 363 745 l 1,26,-1
 453 755 l 1,27,-1
 453 144 l 1,28,-1
 461 5 l 1,29,-1
 388 -5 l 1,30,-1
 377 56 l 1,31,-1
 373 56 l 1,32,33
 313 -12 313 -12 229 -12 c 128,-1,34
 145 -12 145 -12 95 47.5 c 128,-1,35
 45 107 45 107 45 259 c 0,36,37
 45 321 45 321 59 371 c 128,-1,38
 73 421 73 421 95 451 c 128,-1,39
 117 481 117 481 146 501 c 0,40,41
 197 537 197 537 260 537 c 128,-1,42
 323 537 323 537 363 505 c 1,23,-1
EndSplineSet
EndChar

StartChar: Dcroat
Encoding: 272 272 207
Width: 612
GlyphClass: 2
Flags: W
LayerCount: 2
Fore
SplineSet
90 700 m 1,0,-1
 294 700 l 2,1,2
 360 700 360 700 409.5 678.5 c 128,-1,3
 459 657 459 657 487.5 624 c 128,-1,4
 516 591 516 591 534 542 c 0,5,6
 562 462 562 462 562 344 c 0,7,8
 562 204 562 204 504 107 c 0,9,10
 474 57 474 57 421 28.5 c 128,-1,11
 368 0 368 0 297 0 c 2,12,-1
 90 0 l 1,13,-1
 90 318 l 1,14,-1
 11 318 l 1,15,-1
 21 388 l 1,16,-1
 90 394 l 1,17,-1
 90 700 l 1,0,-1
278 616 m 2,18,-1
 186 616 l 1,19,-1
 186 394 l 1,20,-1
 341 394 l 1,21,-1
 329 318 l 1,22,-1
 186 318 l 1,23,-1
 186 84 l 1,24,-1
 286 84 l 2,25,26
 410 84 410 84 442 198 c 0,27,28
 460 260 460 260 460 337 c 128,-1,29
 460 414 460 414 451.5 458.5 c 128,-1,30
 443 503 443 503 424 540 c 0,31,32
 383 616 383 616 278 616 c 2,18,-1
EndSplineSet
EndChar

StartChar: dcroat
Encoding: 273 273 208
Width: 538
GlyphClass: 2
Flags: W
LayerCount: 2
Fore
SplineSet
368 505 m 1,0,-1
 371 506 l 1,1,-1
 368 532 l 1,2,-1
 368 610 l 1,3,-1
 205 610 l 1,4,-1
 205 675 l 1,5,-1
 368 675 l 1,6,-1
 368 745 l 1,7,-1
 458 755 l 1,8,-1
 458 675 l 1,9,-1
 532 675 l 1,10,-1
 532 610 l 1,11,-1
 458 610 l 1,12,-1
 458 144 l 1,13,-1
 466 5 l 1,14,-1
 393 -5 l 1,15,-1
 382 56 l 1,16,-1
 378 56 l 1,17,18
 318 -12 318 -12 234 -12 c 128,-1,19
 150 -12 150 -12 100 47.5 c 128,-1,20
 50 107 50 107 50 259 c 0,21,22
 50 321 50 321 64 371 c 128,-1,23
 78 421 78 421 100 451 c 128,-1,24
 122 481 122 481 150 501 c 0,25,26
 202 537 202 537 265 537 c 128,-1,27
 328 537 328 537 368 505 c 1,0,-1
274 457 m 0,28,29
 247 457 247 457 228 450.5 c 128,-1,30
 209 444 209 444 188 426 c 1,31,32
 146 387 146 387 146 267.5 c 128,-1,33
 146 148 146 148 173.5 108 c 128,-1,34
 201 68 201 68 262 68 c 0,35,36
 296 68 296 68 325 83.5 c 128,-1,37
 354 99 354 99 368 117 c 1,38,-1
 368 429 l 1,39,40
 329 457 329 457 274 457 c 0,28,29
EndSplineSet
EndChar

StartChar: Emacron
Encoding: 274 274 209
Width: 499
GlyphClass: 2
Flags: W
LayerCount: 2
Fore
SplineSet
186 614 m 1,0,-1
 186 399 l 1,1,-1
 425 399 l 1,2,-1
 413 315 l 1,3,-1
 186 315 l 1,4,-1
 186 86 l 1,5,-1
 474 86 l 1,6,-1
 462 0 l 1,7,-1
 90 0 l 1,8,-1
 90 700 l 1,9,-1
 469 700 l 1,10,-1
 457 614 l 1,11,-1
 186 614 l 1,0,-1
146 868 m 1,12,-1
 406 868 l 1,13,-1
 406 794 l 1,14,-1
 146 794 l 1,15,-1
 146 868 l 1,12,-1
EndSplineSet
EndChar

StartChar: emacron
Encoding: 275 275 210
Width: 481
GlyphClass: 2
Flags: W
LayerCount: 2
Fore
SplineSet
269 537 m 0,0,1
 355 537 355 537 396 485 c 0,2,3
 430 443 430 443 438 344 c 0,4,5
 441 305 441 305 441 247 c 1,6,-1
 400 241 l 1,7,-1
 141 241 l 1,8,9
 141 115 141 115 208 82 c 0,10,11
 236 68 236 68 285 68 c 128,-1,12
 334 68 334 68 398 100 c 1,13,-1
 426 38 l 1,14,15
 343 -12 343 -12 259 -12 c 0,16,17
 45 -12 45 -12 45 258 c 0,18,19
 45 386 45 386 101.5 461.5 c 128,-1,20
 158 537 158 537 269 537 c 0,0,1
329 424.5 m 128,-1,22
 313 457 313 457 255.5 457 c 128,-1,23
 198 457 198 457 174 418.5 c 128,-1,24
 150 380 150 380 144 312 c 1,25,-1
 345 312 l 1,26,21
 345 392 345 392 329 424.5 c 128,-1,22
130 691 m 1,27,-1
 390 691 l 1,28,-1
 390 621 l 1,29,-1
 130 621 l 1,30,-1
 130 691 l 1,27,-1
EndSplineSet
EndChar

StartChar: Ebreve
Encoding: 276 276 211
Width: 499
GlyphClass: 2
Flags: W
LayerCount: 2
Fore
SplineSet
90 700 m 1,0,-1
 469 700 l 1,1,-1
 457 614 l 1,2,-1
 186 614 l 1,3,-1
 186 399 l 1,4,-1
 425 399 l 1,5,-1
 413 315 l 1,6,-1
 186 315 l 1,7,-1
 186 86 l 1,8,-1
 474 86 l 1,9,-1
 462 0 l 1,10,-1
 90 0 l 1,11,-1
 90 700 l 1,0,-1
427 843 m 1,12,13
 370 770 370 770 276 770 c 128,-1,14
 182 770 182 770 125 843 c 1,15,-1
 165 886 l 1,16,17
 218 842 218 842 277 842 c 128,-1,18
 336 842 336 842 389 886 c 1,19,-1
 427 843 l 1,12,13
EndSplineSet
EndChar

StartChar: ebreve
Encoding: 277 277 212
Width: 481
GlyphClass: 2
Flags: W
LayerCount: 2
Fore
SplineSet
269 537 m 0,0,1
 355 537 355 537 396 485 c 0,2,3
 430 443 430 443 438 344 c 0,4,5
 441 305 441 305 441 247 c 1,6,-1
 400 241 l 1,7,-1
 141 241 l 1,8,9
 141 115 141 115 208 82 c 0,10,11
 236 68 236 68 285 68 c 128,-1,12
 334 68 334 68 398 100 c 1,13,-1
 426 38 l 1,14,15
 343 -12 343 -12 259 -12 c 0,16,17
 45 -12 45 -12 45 258 c 0,18,19
 45 386 45 386 101.5 461.5 c 128,-1,20
 158 537 158 537 269 537 c 0,0,1
329 424.5 m 128,-1,22
 313 457 313 457 255.5 457 c 128,-1,23
 198 457 198 457 174 418.5 c 128,-1,24
 150 380 150 380 144 312 c 1,25,-1
 345 312 l 1,26,21
 345 392 345 392 329 424.5 c 128,-1,22
411 668 m 1,27,28
 354 595 354 595 260 595 c 128,-1,29
 166 595 166 595 109 668 c 1,30,-1
 149 711 l 1,31,32
 202 667 202 667 261 667 c 128,-1,33
 320 667 320 667 373 711 c 1,34,-1
 411 668 l 1,27,28
EndSplineSet
EndChar

StartChar: Edotaccent
Encoding: 278 278 213
Width: 499
GlyphClass: 2
Flags: W
LayerCount: 2
Fore
SplineSet
186 614 m 1,0,-1
 186 399 l 1,1,-1
 425 399 l 1,2,-1
 413 315 l 1,3,-1
 186 315 l 1,4,-1
 186 86 l 1,5,-1
 474 86 l 1,6,-1
 462 0 l 1,7,-1
 90 0 l 1,8,-1
 90 700 l 1,9,-1
 469 700 l 1,10,-1
 457 614 l 1,11,-1
 186 614 l 1,0,-1
279 892 m 0,12,13
 340 892 340 892 340 824 c 0,14,15
 340 799 340 799 323.5 781 c 128,-1,16
 307 763 307 763 272 763 c 0,17,18
 211 763 211 763 211 831 c 0,19,20
 211 856 211 856 227.5 874 c 128,-1,21
 244 892 244 892 279 892 c 0,12,13
EndSplineSet
EndChar

StartChar: edotaccent
Encoding: 279 279 214
Width: 481
GlyphClass: 2
Flags: W
LayerCount: 2
Fore
SplineSet
269 537 m 0,0,1
 355 537 355 537 396 485 c 0,2,3
 430 443 430 443 438 344 c 0,4,5
 441 305 441 305 441 247 c 1,6,-1
 400 241 l 1,7,-1
 141 241 l 1,8,9
 141 115 141 115 208 82 c 0,10,11
 236 68 236 68 285 68 c 128,-1,12
 334 68 334 68 398 100 c 1,13,-1
 426 38 l 1,14,15
 343 -12 343 -12 259 -12 c 0,16,17
 45 -12 45 -12 45 258 c 0,18,19
 45 386 45 386 101.5 461.5 c 128,-1,20
 158 537 158 537 269 537 c 0,0,1
329 424.5 m 128,-1,22
 313 457 313 457 255.5 457 c 128,-1,23
 198 457 198 457 174 418.5 c 128,-1,24
 150 380 150 380 144 312 c 1,25,-1
 345 312 l 1,26,21
 345 392 345 392 329 424.5 c 128,-1,22
256 559 m 0,27,28
 195 559 195 559 195 627 c 0,29,30
 195 652 195 652 211.5 670 c 128,-1,31
 228 688 228 688 263 688 c 0,32,33
 324 688 324 688 324 620 c 0,34,35
 324 595 324 595 307.5 577 c 128,-1,36
 291 559 291 559 256 559 c 0,27,28
EndSplineSet
EndChar

StartChar: Eogonek
Encoding: 280 280 215
Width: 499
GlyphClass: 2
Flags: W
LayerCount: 2
Fore
SplineSet
186 614 m 1,0,-1
 186 399 l 1,1,-1
 425 399 l 1,2,-1
 413 315 l 1,3,-1
 186 315 l 1,4,-1
 186 86 l 1,5,-1
 474 86 l 1,6,-1
 462 0 l 1,7,8
 391 -66 391 -66 391 -103 c 0,9,10
 391 -117 391 -117 399.5 -127 c 128,-1,11
 408 -137 408 -137 425.5 -137 c 128,-1,12
 443 -137 443 -137 459 -130 c 1,13,-1
 470 -168 l 1,14,15
 436 -188 436 -188 402.5 -188 c 128,-1,16
 369 -188 369 -188 346 -167.5 c 128,-1,17
 323 -147 323 -147 323 -111 c 128,-1,18
 323 -75 323 -75 355 -41 c 1,19,20
 367 -26 367 -26 398 0 c 1,21,-1
 90 0 l 1,22,-1
 90 700 l 1,23,-1
 469 700 l 1,24,-1
 457 614 l 1,25,-1
 186 614 l 1,0,-1
EndSplineSet
EndChar

StartChar: eogonek
Encoding: 281 281 216
Width: 481
GlyphClass: 2
Flags: W
LayerCount: 2
Fore
SplineSet
284 -11 m 1,0,-1
 259 -12 l 1,1,2
 45 -12 45 -12 45 258 c 0,3,4
 45 386 45 386 101.5 461.5 c 128,-1,5
 158 537 158 537 269 537 c 0,6,7
 355 537 355 537 396 485 c 0,8,9
 430 443 430 443 438 344 c 0,10,11
 441 305 441 305 441 247 c 1,12,-1
 357 241 l 1,13,-1
 141 241 l 1,14,15
 141 115 141 115 208 82 c 0,16,17
 236 68 236 68 285 68 c 128,-1,18
 334 68 334 68 398 100 c 1,19,-1
 426 38 l 1,20,21
 425 37 425 37 409.5 28.5 c 128,-1,22
 394 20 394 20 380.5 12.5 c 128,-1,23
 367 5 367 5 348.5 -9.5 c 128,-1,24
 330 -24 330 -24 316 -37 c 0,25,26
 284 -68 284 -68 284 -103 c 0,27,28
 284 -117 284 -117 292 -127 c 128,-1,29
 300 -137 300 -137 318 -137 c 128,-1,30
 336 -137 336 -137 352 -130 c 1,31,-1
 363 -168 l 1,32,33
 329 -188 329 -188 295.5 -188 c 128,-1,34
 262 -188 262 -188 239 -167.5 c 128,-1,35
 216 -147 216 -147 216 -117 c 128,-1,36
 216 -87 216 -87 228 -66.5 c 128,-1,37
 240 -46 240 -46 251.5 -36 c 128,-1,38
 263 -26 263 -26 284 -11 c 1,0,-1
329 424.5 m 128,-1,40
 313 457 313 457 255.5 457 c 128,-1,41
 198 457 198 457 174 418.5 c 128,-1,42
 150 380 150 380 144 312 c 1,43,-1
 345 312 l 1,44,39
 345 392 345 392 329 424.5 c 128,-1,40
EndSplineSet
EndChar

StartChar: Ecaron
Encoding: 282 282 217
Width: 499
GlyphClass: 2
Flags: W
LayerCount: 2
Fore
SplineSet
186 614 m 1,0,-1
 186 399 l 1,1,-1
 425 399 l 1,2,-1
 413 315 l 1,3,-1
 186 315 l 1,4,-1
 186 86 l 1,5,-1
 474 86 l 1,6,-1
 462 0 l 1,7,-1
 90 0 l 1,8,-1
 90 700 l 1,9,-1
 469 700 l 1,10,-1
 457 614 l 1,11,-1
 186 614 l 1,0,-1
429 841 m 1,12,-1
 302 735 l 1,13,-1
 250 735 l 1,14,-1
 123 841 l 1,15,-1
 161 885 l 1,16,-1
 276 808 l 1,17,-1
 391 885 l 1,18,-1
 429 841 l 1,12,-1
EndSplineSet
EndChar

StartChar: ecaron
Encoding: 283 283 218
Width: 481
GlyphClass: 2
Flags: W
LayerCount: 2
Fore
SplineSet
269 537 m 0,0,1
 355 537 355 537 396 485 c 0,2,3
 430 443 430 443 438 344 c 0,4,5
 441 305 441 305 441 247 c 1,6,-1
 400 241 l 1,7,-1
 141 241 l 1,8,9
 141 115 141 115 208 82 c 0,10,11
 236 68 236 68 285 68 c 128,-1,12
 334 68 334 68 398 100 c 1,13,-1
 426 38 l 1,14,15
 343 -12 343 -12 259 -12 c 0,16,17
 45 -12 45 -12 45 258 c 0,18,19
 45 386 45 386 101.5 461.5 c 128,-1,20
 158 537 158 537 269 537 c 0,0,1
329 424.5 m 128,-1,22
 313 457 313 457 255.5 457 c 128,-1,23
 198 457 198 457 174 418.5 c 128,-1,24
 150 380 150 380 144 312 c 1,25,-1
 345 312 l 1,26,21
 345 392 345 392 329 424.5 c 128,-1,22
232 569 m 1,27,-1
 107 687 l 1,28,-1
 145 733 l 1,29,-1
 260 646 l 1,30,-1
 375 733 l 1,31,-1
 413 687 l 1,32,-1
 288 569 l 1,33,-1
 232 569 l 1,27,-1
EndSplineSet
EndChar

StartChar: Gcircumflex
Encoding: 284 284 219
Width: 602
GlyphClass: 2
Flags: W
LayerCount: 2
Fore
SplineSet
327 712 m 0,0,1
 438 712 438 712 483 661 c 128,-1,2
 528 610 528 610 528 509 c 1,3,-1
 426 499 l 1,4,5
 426 570 426 570 399.5 598 c 128,-1,6
 373 626 373 626 324.5 626 c 128,-1,7
 276 626 276 626 246.5 611.5 c 128,-1,8
 217 597 217 597 200 573 c 128,-1,9
 183 549 183 549 173 510 c 0,10,11
 157 446 157 446 157 321.5 c 128,-1,12
 157 197 157 197 200.5 135.5 c 128,-1,13
 244 74 244 74 341 74 c 0,14,15
 396 74 396 74 443 92 c 1,16,-1
 443 251 l 1,17,-1
 308 251 l 1,18,-1
 318 335 l 1,19,-1
 533 335 l 1,20,-1
 533 35 l 1,21,22
 431 -12 431 -12 325 -12 c 0,23,24
 172 -12 172 -12 112 81 c 0,25,26
 63 158 63 158 56 282 c 0,27,28
 55 313 55 313 55 355 c 0,29,30
 55 515 55 515 125.5 613.5 c 128,-1,31
 196 712 196 712 327 712 c 0,0,1
347 885 m 1,32,-1
 474 779 l 1,33,-1
 436 735 l 1,34,-1
 321 812 l 1,35,-1
 206 735 l 1,36,-1
 168 779 l 1,37,-1
 295 885 l 1,38,-1
 347 885 l 1,32,-1
EndSplineSet
EndChar

StartChar: gcircumflex
Encoding: 285 285 220
Width: 490
GlyphClass: 2
Flags: W
LayerCount: 2
Fore
SplineSet
271 731 m 1,0,-1
 396 613 l 1,1,-1
 358 567 l 1,2,-1
 243 656 l 1,3,-1
 128 567 l 1,4,-1
 90 613 l 1,5,-1
 215 731 l 1,6,-1
 271 731 l 1,0,-1
244 537 m 0,7,8
 260 537 260 537 271.5 536 c 128,-1,9
 283 535 283 535 330 533 c 0,10,11
 469 527 469 527 482 527 c 1,12,-1
 471 469 l 1,13,-1
 402 462 l 1,14,15
 427 420 427 420 427 362 c 0,16,17
 427 276 427 276 375 226 c 128,-1,18
 323 176 323 176 227 176 c 0,19,20
 212 176 212 176 188 178 c 1,21,22
 168 162 168 162 162 155 c 128,-1,23
 156 148 156 148 156 139 c 0,24,25
 156 110 156 110 219 104 c 2,26,-1
 294 97 l 1,27,28
 374 92 374 92 419.5 64.5 c 128,-1,29
 465 37 465 37 465 -26.5 c 128,-1,30
 465 -90 465 -90 428 -128 c 0,31,32
 359 -200 359 -200 223 -200 c 0,33,34
 18 -200 18 -200 18 -76 c 0,35,36
 18 -27 18 -27 80 26 c 0,37,38
 87 32 87 32 90.5 34.5 c 128,-1,39
 94 37 94 37 100 41.5 c 128,-1,40
 106 46 106 46 107 46 c 1,41,42
 68 69 68 69 68 112 c 0,43,44
 68 138 68 138 82 155 c 128,-1,45
 96 172 96 172 129 195 c 1,46,47
 44 236 44 236 44 348 c 0,48,49
 44 436 44 436 96 486.5 c 128,-1,50
 148 537 148 537 244 537 c 0,7,8
142.5 -107.5 m 128,-1,52
 179 -125 179 -125 237 -125 c 128,-1,53
 295 -125 295 -125 337 -107.5 c 128,-1,54
 379 -90 379 -90 379 -54 c 0,55,56
 379 -23 379 -23 360 -11 c 0,57,58
 350 -4 350 -4 341.5 0.5 c 128,-1,59
 333 5 333 5 313 8 c 0,60,61
 277 13 277 13 237.5 16 c 128,-1,62
 198 19 198 19 165 26 c 1,63,64
 125 -5 125 -5 115.5 -21.5 c 128,-1,65
 106 -38 106 -38 106 -55 c 0,66,51
 106 -90 106 -90 142.5 -107.5 c 128,-1,52
230 461 m 0,67,68
 178 461 178 461 157 436.5 c 128,-1,69
 136 412 136 412 136 356 c 0,70,71
 136 251 136 251 241 251 c 0,72,73
 294 251 294 251 314.5 276 c 128,-1,74
 335 301 335 301 335 358 c 0,75,76
 335 461 335 461 230 461 c 0,67,68
EndSplineSet
EndChar

StartChar: Gbreve
Encoding: 286 286 221
Width: 602
GlyphClass: 2
Flags: W
LayerCount: 2
Fore
SplineSet
327 712 m 0,0,1
 438 712 438 712 483 661 c 128,-1,2
 528 610 528 610 528 509 c 1,3,-1
 426 499 l 1,4,5
 426 570 426 570 399.5 598 c 128,-1,6
 373 626 373 626 324.5 626 c 128,-1,7
 276 626 276 626 246.5 611.5 c 128,-1,8
 217 597 217 597 200 573 c 128,-1,9
 183 549 183 549 173 510 c 0,10,11
 157 446 157 446 157 321.5 c 128,-1,12
 157 197 157 197 200.5 135.5 c 128,-1,13
 244 74 244 74 341 74 c 0,14,15
 396 74 396 74 443 92 c 1,16,-1
 443 251 l 1,17,-1
 308 251 l 1,18,-1
 318 335 l 1,19,-1
 533 335 l 1,20,-1
 533 35 l 1,21,22
 431 -12 431 -12 325 -12 c 0,23,24
 172 -12 172 -12 112 81 c 0,25,26
 63 158 63 158 56 282 c 0,27,28
 55 313 55 313 55 355 c 0,29,30
 55 515 55 515 125.5 613.5 c 128,-1,31
 196 712 196 712 327 712 c 0,0,1
472 843 m 1,32,33
 415 770 415 770 321 770 c 128,-1,34
 227 770 227 770 170 843 c 1,35,-1
 210 886 l 1,36,37
 263 842 263 842 322 842 c 128,-1,38
 381 842 381 842 434 886 c 1,39,-1
 472 843 l 1,32,33
EndSplineSet
EndChar

StartChar: gbreve
Encoding: 287 287 222
Width: 490
GlyphClass: 2
Flags: W
LayerCount: 2
Fore
SplineSet
394 668 m 1,0,1
 337 595 337 595 243 595 c 128,-1,2
 149 595 149 595 92 668 c 1,3,-1
 132 711 l 1,4,5
 185 667 185 667 244 667 c 128,-1,6
 303 667 303 667 356 711 c 1,7,-1
 394 668 l 1,0,1
244 537 m 0,8,9
 260 537 260 537 271.5 536 c 128,-1,10
 283 535 283 535 330 533 c 0,11,12
 469 527 469 527 482 527 c 1,13,-1
 471 469 l 1,14,-1
 402 462 l 1,15,16
 427 420 427 420 427 362 c 0,17,18
 427 276 427 276 375 226 c 128,-1,19
 323 176 323 176 227 176 c 0,20,21
 212 176 212 176 188 178 c 1,22,23
 168 162 168 162 162 155 c 128,-1,24
 156 148 156 148 156 139 c 0,25,26
 156 110 156 110 219 104 c 2,27,-1
 294 97 l 1,28,29
 374 92 374 92 419.5 64.5 c 128,-1,30
 465 37 465 37 465 -26.5 c 128,-1,31
 465 -90 465 -90 428 -128 c 0,32,33
 359 -200 359 -200 223 -200 c 0,34,35
 18 -200 18 -200 18 -76 c 0,36,37
 18 -27 18 -27 80 26 c 0,38,39
 87 32 87 32 90.5 34.5 c 128,-1,40
 94 37 94 37 100 41.5 c 128,-1,41
 106 46 106 46 107 46 c 1,42,43
 68 69 68 69 68 112 c 0,44,45
 68 138 68 138 82 155 c 128,-1,46
 96 172 96 172 129 195 c 1,47,48
 44 236 44 236 44 348 c 0,49,50
 44 436 44 436 96 486.5 c 128,-1,51
 148 537 148 537 244 537 c 0,8,9
142.5 -107.5 m 128,-1,53
 179 -125 179 -125 237 -125 c 128,-1,54
 295 -125 295 -125 337 -107.5 c 128,-1,55
 379 -90 379 -90 379 -54 c 0,56,57
 379 -23 379 -23 360 -11 c 0,58,59
 350 -4 350 -4 341.5 0.5 c 128,-1,60
 333 5 333 5 313 8 c 0,61,62
 277 13 277 13 237.5 16 c 128,-1,63
 198 19 198 19 165 26 c 1,64,65
 125 -5 125 -5 115.5 -21.5 c 128,-1,66
 106 -38 106 -38 106 -55 c 0,67,52
 106 -90 106 -90 142.5 -107.5 c 128,-1,53
230 461 m 0,68,69
 178 461 178 461 157 436.5 c 128,-1,70
 136 412 136 412 136 356 c 0,71,72
 136 251 136 251 241 251 c 0,73,74
 294 251 294 251 314.5 276 c 128,-1,75
 335 301 335 301 335 358 c 0,76,77
 335 461 335 461 230 461 c 0,68,69
EndSplineSet
EndChar

StartChar: Gdotaccent
Encoding: 288 288 223
Width: 602
GlyphClass: 2
Flags: W
LayerCount: 2
Fore
SplineSet
327 712 m 0,0,1
 438 712 438 712 483 661 c 128,-1,2
 528 610 528 610 528 509 c 1,3,-1
 426 499 l 1,4,5
 426 570 426 570 399.5 598 c 128,-1,6
 373 626 373 626 324.5 626 c 128,-1,7
 276 626 276 626 246.5 611.5 c 128,-1,8
 217 597 217 597 200 573 c 128,-1,9
 183 549 183 549 173 510 c 0,10,11
 157 446 157 446 157 321.5 c 128,-1,12
 157 197 157 197 200.5 135.5 c 128,-1,13
 244 74 244 74 341 74 c 0,14,15
 396 74 396 74 443 92 c 1,16,-1
 443 251 l 1,17,-1
 308 251 l 1,18,-1
 318 335 l 1,19,-1
 533 335 l 1,20,-1
 533 35 l 1,21,22
 431 -12 431 -12 325 -12 c 0,23,24
 172 -12 172 -12 112 81 c 0,25,26
 63 158 63 158 56 282 c 0,27,28
 55 313 55 313 55 355 c 0,29,30
 55 515 55 515 125.5 613.5 c 128,-1,31
 196 712 196 712 327 712 c 0,0,1
324 892 m 0,32,33
 385 892 385 892 385 824 c 0,34,35
 385 799 385 799 368.5 781 c 128,-1,36
 352 763 352 763 317 763 c 0,37,38
 256 763 256 763 256 831 c 0,39,40
 256 856 256 856 272.5 874 c 128,-1,41
 289 892 289 892 324 892 c 0,32,33
EndSplineSet
EndChar

StartChar: gdotaccent
Encoding: 289 289 224
Width: 490
GlyphClass: 2
Flags: W
LayerCount: 2
Fore
SplineSet
239 559 m 0,0,1
 178 559 178 559 178 627 c 0,2,3
 178 652 178 652 194.5 670 c 128,-1,4
 211 688 211 688 246 688 c 0,5,6
 307 688 307 688 307 620 c 0,7,8
 307 595 307 595 290.5 577 c 128,-1,9
 274 559 274 559 239 559 c 0,0,1
244 537 m 0,10,11
 260 537 260 537 271.5 536 c 128,-1,12
 283 535 283 535 330 533 c 0,13,14
 469 527 469 527 482 527 c 1,15,-1
 471 469 l 1,16,-1
 402 462 l 1,17,18
 427 420 427 420 427 362 c 0,19,20
 427 276 427 276 375 226 c 128,-1,21
 323 176 323 176 227 176 c 0,22,23
 212 176 212 176 188 178 c 1,24,25
 168 162 168 162 162 155 c 128,-1,26
 156 148 156 148 156 139 c 0,27,28
 156 110 156 110 219 104 c 2,29,-1
 294 97 l 1,30,31
 374 92 374 92 419.5 64.5 c 128,-1,32
 465 37 465 37 465 -26.5 c 128,-1,33
 465 -90 465 -90 428 -128 c 0,34,35
 359 -200 359 -200 223 -200 c 0,36,37
 18 -200 18 -200 18 -76 c 0,38,39
 18 -27 18 -27 80 26 c 0,40,41
 87 32 87 32 90.5 34.5 c 128,-1,42
 94 37 94 37 100 41.5 c 128,-1,43
 106 46 106 46 107 46 c 1,44,45
 68 69 68 69 68 112 c 0,46,47
 68 138 68 138 82 155 c 128,-1,48
 96 172 96 172 129 195 c 1,49,50
 44 236 44 236 44 348 c 0,51,52
 44 436 44 436 96 486.5 c 128,-1,53
 148 537 148 537 244 537 c 0,10,11
142.5 -107.5 m 128,-1,55
 179 -125 179 -125 237 -125 c 128,-1,56
 295 -125 295 -125 337 -107.5 c 128,-1,57
 379 -90 379 -90 379 -54 c 0,58,59
 379 -23 379 -23 360 -11 c 0,60,61
 350 -4 350 -4 341.5 0.5 c 128,-1,62
 333 5 333 5 313 8 c 0,63,64
 277 13 277 13 237.5 16 c 128,-1,65
 198 19 198 19 165 26 c 1,66,67
 125 -5 125 -5 115.5 -21.5 c 128,-1,68
 106 -38 106 -38 106 -55 c 0,69,54
 106 -90 106 -90 142.5 -107.5 c 128,-1,55
230 461 m 0,70,71
 178 461 178 461 157 436.5 c 128,-1,72
 136 412 136 412 136 356 c 0,73,74
 136 251 136 251 241 251 c 0,75,76
 294 251 294 251 314.5 276 c 128,-1,77
 335 301 335 301 335 358 c 0,78,79
 335 461 335 461 230 461 c 0,70,71
EndSplineSet
EndChar

StartChar: Gcommaaccent
Encoding: 290 290 225
Width: 602
GlyphClass: 2
Flags: W
LayerCount: 2
Fore
SplineSet
327 712 m 0,0,1
 438 712 438 712 483 661 c 128,-1,2
 528 610 528 610 528 509 c 1,3,-1
 426 499 l 1,4,5
 426 570 426 570 399.5 598 c 128,-1,6
 373 626 373 626 324.5 626 c 128,-1,7
 276 626 276 626 246.5 611.5 c 128,-1,8
 217 597 217 597 200 573 c 128,-1,9
 183 549 183 549 173 510 c 0,10,11
 157 446 157 446 157 321.5 c 128,-1,12
 157 197 157 197 200.5 135.5 c 128,-1,13
 244 74 244 74 341 74 c 0,14,15
 396 74 396 74 443 92 c 1,16,-1
 443 251 l 1,17,-1
 308 251 l 1,18,-1
 318 335 l 1,19,-1
 533 335 l 1,20,-1
 533 35 l 1,21,22
 431 -12 431 -12 325 -12 c 0,23,24
 172 -12 172 -12 112 81 c 0,25,26
 63 158 63 158 56 282 c 0,27,28
 55 313 55 313 55 355 c 0,29,30
 55 515 55 515 125.5 613.5 c 128,-1,31
 196 712 196 712 327 712 c 0,0,1
358 -31 m 1,32,33
 366 -95 366 -95 366 -121 c 128,-1,34
 366 -147 366 -147 347.5 -171.5 c 128,-1,35
 329 -196 329 -196 271 -247 c 1,36,-1
 234 -207 l 1,37,38
 268 -165 268 -165 276 -149.5 c 128,-1,39
 284 -134 284 -134 284 -122 c 128,-1,40
 284 -110 284 -110 274 -43 c 1,41,-1
 358 -31 l 1,32,33
EndSplineSet
EndChar

StartChar: gcommaaccent
Encoding: 291 291 226
Width: 490
GlyphClass: 2
Flags: W
LayerCount: 2
Fore
SplineSet
288.5 669 m 128,-1,1
 279 652 279 652 279 636 c 128,-1,2
 279 620 279 620 283 564 c 1,3,-1
 198 557 l 1,4,5
 198 564 198 564 195 624 c 1,6,7
 195 663 195 663 211 686 c 128,-1,8
 227 709 227 709 299 767 c 1,9,-1
 334 724 l 1,10,0
 298 686 298 686 288.5 669 c 128,-1,1
244 537 m 0,11,12
 260 537 260 537 271.5 536 c 128,-1,13
 283 535 283 535 330 533 c 0,14,15
 469 527 469 527 482 527 c 1,16,-1
 471 469 l 1,17,-1
 402 462 l 1,18,19
 427 420 427 420 427 362 c 0,20,21
 427 276 427 276 375 226 c 128,-1,22
 323 176 323 176 227 176 c 0,23,24
 212 176 212 176 188 178 c 1,25,26
 168 162 168 162 162 155 c 128,-1,27
 156 148 156 148 156 139 c 0,28,29
 156 110 156 110 219 104 c 2,30,-1
 294 97 l 1,31,32
 374 92 374 92 419.5 64.5 c 128,-1,33
 465 37 465 37 465 -26.5 c 128,-1,34
 465 -90 465 -90 428 -128 c 0,35,36
 359 -200 359 -200 223 -200 c 0,37,38
 18 -200 18 -200 18 -76 c 0,39,40
 18 -27 18 -27 80 26 c 0,41,42
 87 32 87 32 90.5 34.5 c 128,-1,43
 94 37 94 37 100 41.5 c 128,-1,44
 106 46 106 46 107 46 c 1,45,46
 68 69 68 69 68 112 c 0,47,48
 68 138 68 138 82 155 c 128,-1,49
 96 172 96 172 129 195 c 1,50,51
 44 236 44 236 44 348 c 0,52,53
 44 436 44 436 96 486.5 c 128,-1,54
 148 537 148 537 244 537 c 0,11,12
142.5 -107.5 m 128,-1,56
 179 -125 179 -125 237 -125 c 128,-1,57
 295 -125 295 -125 337 -107.5 c 128,-1,58
 379 -90 379 -90 379 -54 c 0,59,60
 379 -23 379 -23 360 -11 c 0,61,62
 350 -4 350 -4 341.5 0.5 c 128,-1,63
 333 5 333 5 313 8 c 0,64,65
 277 13 277 13 237.5 16 c 128,-1,66
 198 19 198 19 165 26 c 1,67,68
 125 -5 125 -5 115.5 -21.5 c 128,-1,69
 106 -38 106 -38 106 -55 c 0,70,55
 106 -90 106 -90 142.5 -107.5 c 128,-1,56
230 461 m 0,71,72
 178 461 178 461 157 436.5 c 128,-1,73
 136 412 136 412 136 356 c 0,74,75
 136 251 136 251 241 251 c 0,76,77
 294 251 294 251 314.5 276 c 128,-1,78
 335 301 335 301 335 358 c 0,79,80
 335 461 335 461 230 461 c 0,71,72
EndSplineSet
EndChar

StartChar: Hcircumflex
Encoding: 292 292 227
Width: 627
GlyphClass: 2
Flags: W
LayerCount: 2
Fore
SplineSet
537 700 m 1,0,-1
 537 0 l 1,1,-1
 441 0 l 1,2,-1
 441 321 l 1,3,-1
 186 321 l 1,4,-1
 186 0 l 1,5,-1
 90 0 l 1,6,-1
 90 700 l 1,7,-1
 186 700 l 1,8,-1
 186 405 l 1,9,-1
 441 405 l 1,10,-1
 441 700 l 1,11,-1
 537 700 l 1,0,-1
339 885 m 1,12,-1
 466 779 l 1,13,-1
 428 735 l 1,14,-1
 313 812 l 1,15,-1
 198 735 l 1,16,-1
 160 779 l 1,17,-1
 287 885 l 1,18,-1
 339 885 l 1,12,-1
EndSplineSet
EndChar

StartChar: hcircumflex
Encoding: 293 293 228
Width: 543
GlyphClass: 2
Flags: W
LayerCount: 2
Fore
SplineSet
354 731 m 1,0,-1
 466 613 l 1,1,-1
 428 567 l 1,2,-1
 326 656 l 1,3,-1
 224 567 l 1,4,-1
 186 613 l 1,5,-1
 298 731 l 1,6,-1
 354 731 l 1,0,-1
169 480 m 1,7,8
 228 537 228 537 303.5 537 c 128,-1,9
 379 537 379 537 423.5 494.5 c 128,-1,10
 468 452 468 452 468 360 c 2,11,-1
 468 0 l 1,12,-1
 377 0 l 1,13,-1
 377 354 l 2,14,15
 377 457 377 457 274 457 c 0,16,17
 244 457 244 457 215 442.5 c 128,-1,18
 186 428 186 428 169 409 c 1,19,-1
 169 0 l 1,20,-1
 80 0 l 1,21,-1
 80 745 l 1,22,-1
 169 755 l 1,23,-1
 169 527 l 1,24,-1
 165 481 l 1,25,-1
 169 480 l 1,7,8
EndSplineSet
EndChar

StartChar: Hbar
Encoding: 294 294 229
Width: 637
GlyphClass: 2
Flags: W
LayerCount: 2
Fore
SplineSet
542 700 m 1,0,-1
 542 591 l 1,1,-1
 610 591 l 1,2,-1
 610 516 l 1,3,-1
 542 516 l 1,4,-1
 542 0 l 1,5,-1
 446 0 l 1,6,-1
 446 321 l 1,7,-1
 191 321 l 1,8,-1
 191 0 l 1,9,-1
 95 0 l 1,10,-1
 95 516 l 1,11,-1
 25 516 l 1,12,-1
 25 591 l 1,13,-1
 95 591 l 1,14,-1
 95 700 l 1,15,-1
 191 700 l 1,16,-1
 191 591 l 1,17,-1
 446 591 l 1,18,-1
 446 700 l 1,19,-1
 542 700 l 1,0,-1
191 405 m 1,20,-1
 446 405 l 1,21,-1
 446 516 l 1,22,-1
 191 516 l 1,23,-1
 191 405 l 1,20,-1
EndSplineSet
EndChar

StartChar: hbar
Encoding: 295 295 230
Width: 543
GlyphClass: 2
Flags: W
LayerCount: 2
Fore
SplineSet
169 659 m 1,0,-1
 374 659 l 1,1,-1
 374 594 l 1,2,-1
 169 594 l 1,3,-1
 169 527 l 1,4,-1
 165 481 l 1,5,-1
 169 480 l 1,6,7
 228 537 228 537 303.5 537 c 128,-1,8
 379 537 379 537 423.5 494.5 c 128,-1,9
 468 452 468 452 468 360 c 2,10,-1
 468 0 l 1,11,-1
 377 0 l 1,12,-1
 377 354 l 2,13,14
 377 457 377 457 274 457 c 0,15,16
 244 457 244 457 215 442.5 c 128,-1,17
 186 428 186 428 169 409 c 1,18,-1
 169 0 l 1,19,-1
 80 0 l 1,20,-1
 80 594 l 1,21,-1
 20 594 l 1,22,-1
 20 659 l 1,23,-1
 80 659 l 1,24,-1
 80 745 l 1,25,-1
 169 755 l 1,26,-1
 169 659 l 1,0,-1
EndSplineSet
EndChar

StartChar: Itilde
Encoding: 296 296 231
Width: 276
GlyphClass: 2
Flags: W
LayerCount: 2
Fore
SplineSet
186 700 m 1,0,-1
 186 0 l 1,1,-1
 90 0 l 1,2,-1
 90 700 l 1,3,-1
 186 700 l 1,0,-1
185 775 m 0,4,5
 163 775 163 775 130.5 791 c 128,-1,6
 98 807 98 807 76.5 807 c 128,-1,7
 55 807 55 807 18 775 c 1,8,-1
 -3 836 l 1,9,10
 45 885 45 885 91 885 c 0,11,12
 113 885 113 885 145.5 869 c 128,-1,13
 178 853 178 853 199.5 853 c 128,-1,14
 221 853 221 853 258 885 c 1,15,-1
 279 824 l 1,16,17
 231 775 231 775 185 775 c 0,4,5
EndSplineSet
EndChar

StartChar: itilde
Encoding: 297 297 232
Width: 250
GlyphClass: 2
Flags: W
LayerCount: 2
Fore
SplineSet
170 0 m 1,0,-1
 80 0 l 1,1,-1
 80 520 l 1,2,-1
 170 530 l 1,3,-1
 170 0 l 1,0,-1
172 600 m 0,4,5
 150 600 150 600 117.5 616 c 128,-1,6
 85 632 85 632 64 632 c 128,-1,7
 43 632 43 632 10 610 c 1,8,-1
 -11 671 l 1,9,10
 35 710 35 710 78 710 c 0,11,12
 100 710 100 710 132.5 694 c 128,-1,13
 165 678 165 678 186 678 c 128,-1,14
 207 678 207 678 240 700 c 1,15,-1
 261 639 l 1,16,17
 215 600 215 600 172 600 c 0,4,5
EndSplineSet
EndChar

StartChar: imacron
Encoding: 299 299 233
Width: 250
GlyphClass: 2
Flags: W
LayerCount: 2
Fore
SplineSet
30 691 m 1,0,-1
 210 691 l 1,1,-1
 210 621 l 1,2,-1
 30 621 l 1,3,-1
 30 691 l 1,0,-1
170 0 m 1,4,-1
 80 0 l 1,5,-1
 80 520 l 1,6,-1
 170 530 l 1,7,-1
 170 0 l 1,4,-1
EndSplineSet
EndChar

StartChar: Ibreve
Encoding: 300 300 234
Width: 276
GlyphClass: 2
Flags: W
LayerCount: 2
Fore
SplineSet
186 700 m 1,0,-1
 186 0 l 1,1,-1
 90 0 l 1,2,-1
 90 700 l 1,3,-1
 186 700 l 1,0,-1
289 843 m 1,4,5
 232 770 232 770 138 770 c 128,-1,6
 44 770 44 770 -13 843 c 1,7,-1
 27 886 l 1,8,9
 80 842 80 842 139 842 c 128,-1,10
 198 842 198 842 251 886 c 1,11,-1
 289 843 l 1,4,5
EndSplineSet
EndChar

StartChar: Iogonek
Encoding: 302 302 235
Width: 276
GlyphClass: 2
Flags: W
LayerCount: 2
Fore
SplineSet
186 0 m 1,0,1
 115 -66 115 -66 115 -103 c 0,2,3
 115 -117 115 -117 123.5 -127 c 128,-1,4
 132 -137 132 -137 149.5 -137 c 128,-1,5
 167 -137 167 -137 183 -130 c 1,6,-1
 194 -168 l 1,7,8
 160 -188 160 -188 126.5 -188 c 128,-1,9
 93 -188 93 -188 70 -167.5 c 128,-1,10
 47 -147 47 -147 47 -111 c 128,-1,11
 47 -75 47 -75 79 -41 c 1,12,13
 91 -26 91 -26 122 0 c 1,14,-1
 90 0 l 1,15,-1
 90 700 l 1,16,-1
 186 700 l 1,17,-1
 186 0 l 1,0,1
EndSplineSet
EndChar

StartChar: iogonek
Encoding: 303 303 236
Width: 250
GlyphClass: 2
Flags: W
LayerCount: 2
Fore
SplineSet
148 -20 m 0,0,1
 91 -69 91 -69 91 -99 c 0,2,3
 91 -117 91 -117 99.5 -127 c 128,-1,4
 108 -137 108 -137 125.5 -137 c 128,-1,5
 143 -137 143 -137 159 -130 c 1,6,-1
 170 -168 l 1,7,8
 136 -188 136 -188 102.5 -188 c 128,-1,9
 69 -188 69 -188 46 -167.5 c 128,-1,10
 23 -147 23 -147 23 -112 c 128,-1,11
 23 -77 23 -77 60 -40 c 1,12,-1
 108 0 l 1,13,-1
 80 0 l 1,14,-1
 80 520 l 1,15,-1
 170 530 l 1,16,-1
 170 0 l 1,17,18
 168 -2 168 -2 148 -20 c 0,0,1
122 614 m 0,19,20
 64 614 64 614 64 679 c 0,21,22
 64 737 64 737 129 737 c 0,23,24
 187 737 187 737 187 672 c 0,25,26
 187 614 187 614 122 614 c 0,19,20
EndSplineSet
EndChar

StartChar: Idotaccent
Encoding: 304 304 237
Width: 276
GlyphClass: 2
Flags: W
LayerCount: 2
Fore
SplineSet
186 700 m 1,0,-1
 186 0 l 1,1,-1
 90 0 l 1,2,-1
 90 700 l 1,3,-1
 186 700 l 1,0,-1
141 892 m 0,4,5
 202 892 202 892 202 824 c 0,6,7
 202 799 202 799 185.5 781 c 128,-1,8
 169 763 169 763 134 763 c 0,9,10
 73 763 73 763 73 831 c 0,11,12
 73 856 73 856 89.5 874 c 128,-1,13
 106 892 106 892 141 892 c 0,4,5
EndSplineSet
EndChar

StartChar: dotlessi
Encoding: 305 305 238
Width: 250
GlyphClass: 2
Flags: W
LayerCount: 2
Fore
SplineSet
170 0 m 1,0,-1
 80 0 l 1,1,-1
 80 520 l 1,2,-1
 170 530 l 1,3,-1
 170 0 l 1,0,-1
EndSplineSet
EndChar

StartChar: IJ
Encoding: 306 306 239
Width: 552
GlyphClass: 2
Flags: W
LayerCount: 2
Fore
SplineSet
186 700 m 1,0,-1
 186 0 l 1,1,-1
 90 0 l 1,2,-1
 90 700 l 1,3,-1
 186 700 l 1,0,-1
462 700 m 1,4,-1
 462 94 l 2,5,6
 462 -1 462 -1 426.5 -64 c 128,-1,7
 391 -127 391 -127 286 -174 c 1,8,-1
 227 -107 l 1,9,10
 281 -80 281 -80 308 -54 c 0,11,12
 366 -1 366 -1 366 134 c 2,13,-1
 366 700 l 1,14,-1
 462 700 l 1,4,-1
EndSplineSet
EndChar

StartChar: ij
Encoding: 307 307 240
Width: 474
GlyphClass: 2
Flags: W
LayerCount: 2
Fore
SplineSet
394 -12 m 2,0,1
 394 -91 394 -91 373.5 -125 c 128,-1,2
 353 -159 353 -159 287 -200 c 1,3,-1
 236 -146 l 1,4,5
 283 -111 283 -111 293.5 -82.5 c 128,-1,6
 304 -54 304 -54 304 31 c 2,7,-1
 304 520 l 1,8,-1
 394 530 l 1,9,-1
 394 -12 l 2,0,1
345 559 m 0,10,11
 284 559 284 559 284 627 c 0,12,13
 284 652 284 652 300.5 670 c 128,-1,14
 317 688 317 688 352 688 c 0,15,16
 413 688 413 688 413 620 c 0,17,18
 413 595 413 595 396.5 577 c 128,-1,19
 380 559 380 559 345 559 c 0,10,11
170 0 m 1,20,-1
 80 0 l 1,21,-1
 80 520 l 1,22,-1
 170 530 l 1,23,-1
 170 0 l 1,20,-1
121 559 m 0,24,25
 60 559 60 559 60 627 c 0,26,27
 60 652 60 652 76.5 670 c 128,-1,28
 93 688 93 688 128 688 c 0,29,30
 189 688 189 688 189 620 c 0,31,32
 189 595 189 595 172.5 577 c 128,-1,33
 156 559 156 559 121 559 c 0,24,25
EndSplineSet
EndChar

StartChar: Jcircumflex
Encoding: 308 308 241
Width: 276
GlyphClass: 2
Flags: W
LayerCount: 2
Fore
SplineSet
186 700 m 1,0,-1
 186 94 l 2,1,2
 186 -1 186 -1 150.5 -64 c 128,-1,3
 115 -127 115 -127 10 -174 c 1,4,-1
 -49 -107 l 1,5,6
 5 -80 5 -80 32 -54 c 0,7,8
 90 -1 90 -1 90 134 c 2,9,-1
 90 700 l 1,10,-1
 186 700 l 1,0,-1
164 885 m 1,11,-1
 276 779 l 1,12,-1
 238 735 l 1,13,-1
 138 812 l 1,14,-1
 38 735 l 1,15,-1
 0 779 l 1,16,-1
 112 885 l 1,17,-1
 164 885 l 1,11,-1
EndSplineSet
EndChar

StartChar: jcircumflex
Encoding: 309 309 242
Width: 250
GlyphClass: 2
Flags: W
LayerCount: 2
Fore
SplineSet
170 -12 m 2,0,1
 170 -91 170 -91 149.5 -125 c 128,-1,2
 129 -159 129 -159 63 -200 c 1,3,-1
 12 -146 l 1,4,5
 59 -111 59 -111 69.5 -82.5 c 128,-1,6
 80 -54 80 -54 80 31 c 2,7,-1
 80 520 l 1,8,-1
 170 530 l 1,9,-1
 170 -12 l 2,0,1
153 731 m 1,10,-1
 258 613 l 1,11,-1
 220 567 l 1,12,-1
 125 656 l 1,13,-1
 30 567 l 1,14,-1
 -8 613 l 1,15,-1
 97 731 l 1,16,-1
 153 731 l 1,10,-1
EndSplineSet
EndChar

StartChar: Kcommaaccent
Encoding: 310 310 243
Width: 519
GlyphClass: 2
Flags: W
LayerCount: 2
Fore
SplineSet
329 -31 m 1,0,1
 337 -95 337 -95 337 -121 c 128,-1,2
 337 -147 337 -147 318.5 -171.5 c 128,-1,3
 300 -196 300 -196 242 -247 c 1,4,-1
 205 -207 l 1,5,6
 239 -165 239 -165 247 -149.5 c 128,-1,7
 255 -134 255 -134 255 -122 c 128,-1,8
 255 -110 255 -110 245 -43 c 1,9,-1
 329 -31 l 1,0,1
186 700 m 1,10,-1
 186 0 l 1,11,-1
 90 0 l 1,12,-1
 90 700 l 1,13,-1
 186 700 l 1,10,-1
428 701 m 1,14,-1
 511 665 l 1,15,-1
 293 361 l 1,16,-1
 542 0 l 1,17,-1
 425 0 l 1,18,-1
 190 350 l 1,19,-1
 428 701 l 1,14,-1
EndSplineSet
EndChar

StartChar: kgreenlandic
Encoding: 312 312 244
Width: 600
GlyphClass: 2
Flags: W
LayerCount: 2
Fore
SplineSet
414 530 m 1,0,-1
 493 502 l 1,1,-1
 311 266 l 1,2,-1
 516 0 l 1,3,-1
 408 0 l 1,4,-1
 221 262 l 1,5,-1
 414 530 l 1,0,-1
218 525 m 1,6,-1
 218 0 l 1,7,-1
 128 0 l 1,8,-1
 128 525 l 1,9,-1
 218 525 l 1,6,-1
EndSplineSet
EndChar

StartChar: Lacute
Encoding: 313 313 245
Width: 458
GlyphClass: 2
Flags: W
LayerCount: 2
Fore
SplineSet
186 700 m 1,0,-1
 186 86 l 1,1,-1
 443 86 l 1,2,-1
 431 0 l 1,3,-1
 90 0 l 1,4,-1
 90 700 l 1,5,-1
 186 700 l 1,0,-1
310 898 m 1,6,-1
 348 821 l 1,7,-1
 140 736 l 1,8,-1
 107 792 l 1,9,-1
 310 898 l 1,6,-1
EndSplineSet
EndChar

StartChar: lacute
Encoding: 314 314 246
Width: 245
GlyphClass: 2
Flags: W
LayerCount: 2
Fore
SplineSet
257 934 m 1,0,-1
 295 857 l 1,1,-1
 87 772 l 1,2,-1
 54 828 l 1,3,-1
 257 934 l 1,0,-1
163 160 m 2,4,5
 163 111 163 111 171 85.5 c 128,-1,6
 179 60 179 60 207 31 c 1,7,-1
 140 -22 l 1,8,9
 99 21 99 21 86 51 c 128,-1,10
 73 81 73 81 73 153 c 2,11,-1
 73 745 l 1,12,-1
 163 755 l 1,13,-1
 163 160 l 2,4,5
EndSplineSet
EndChar

StartChar: Lcommaaccent
Encoding: 315 315 247
Width: 458
GlyphClass: 2
Flags: W
LayerCount: 2
Fore
SplineSet
186 700 m 1,0,-1
 186 86 l 1,1,-1
 443 86 l 1,2,-1
 431 0 l 1,3,-1
 90 0 l 1,4,-1
 90 700 l 1,5,-1
 186 700 l 1,0,-1
299 -31 m 1,6,7
 307 -95 307 -95 307 -121 c 128,-1,8
 307 -147 307 -147 288.5 -171.5 c 128,-1,9
 270 -196 270 -196 212 -247 c 1,10,-1
 175 -207 l 1,11,12
 209 -165 209 -165 217 -149.5 c 128,-1,13
 225 -134 225 -134 225 -122 c 128,-1,14
 225 -110 225 -110 215 -43 c 1,15,-1
 299 -31 l 1,6,7
EndSplineSet
EndChar

StartChar: lcommaaccent
Encoding: 316 316 248
Width: 245
GlyphClass: 2
Flags: W
LayerCount: 2
Fore
SplineSet
166 -31 m 1,0,1
 174 -95 174 -95 174 -121 c 128,-1,2
 174 -147 174 -147 155.5 -171.5 c 128,-1,3
 137 -196 137 -196 79 -247 c 1,4,-1
 42 -207 l 1,5,6
 76 -165 76 -165 84 -149.5 c 128,-1,7
 92 -134 92 -134 92 -122 c 128,-1,8
 92 -110 92 -110 82 -43 c 1,9,-1
 166 -31 l 1,0,1
163 160 m 2,10,11
 163 111 163 111 171 85.5 c 128,-1,12
 179 60 179 60 207 31 c 1,13,-1
 140 -22 l 1,14,15
 99 21 99 21 86 51 c 128,-1,16
 73 81 73 81 73 153 c 2,17,-1
 73 745 l 1,18,-1
 163 755 l 1,19,-1
 163 160 l 2,10,11
EndSplineSet
EndChar

StartChar: Lcaron
Encoding: 317 317 249
Width: 458
GlyphClass: 2
Flags: W
LayerCount: 2
Fore
SplineSet
388 749 m 1,0,1
 397 674 397 674 397 648.5 c 128,-1,2
 397 623 397 623 378 590.5 c 128,-1,3
 359 558 359 558 301 507 c 1,4,-1
 261 548 l 1,5,6
 294 582 294 582 303.5 598.5 c 128,-1,7
 313 615 313 615 313 640.5 c 128,-1,8
 313 666 313 666 298 730 c 1,9,-1
 388 749 l 1,0,1
186 700 m 1,10,-1
 186 86 l 1,11,-1
 443 86 l 1,12,-1
 431 0 l 1,13,-1
 90 0 l 1,14,-1
 90 700 l 1,15,-1
 186 700 l 1,10,-1
EndSplineSet
EndChar

StartChar: lcaron
Encoding: 318 318 250
Width: 298
GlyphClass: 2
Flags: W
LayerCount: 2
Fore
SplineSet
331 749 m 1,0,1
 340 674 340 674 340 648.5 c 128,-1,2
 340 623 340 623 321 590.5 c 128,-1,3
 302 558 302 558 244 507 c 1,4,-1
 204 548 l 1,5,6
 237 582 237 582 246.5 598.5 c 128,-1,7
 256 615 256 615 256 640.5 c 128,-1,8
 256 666 256 666 241 730 c 1,9,-1
 331 749 l 1,0,1
163 160 m 2,10,11
 163 111 163 111 171 85.5 c 128,-1,12
 179 60 179 60 207 31 c 1,13,-1
 140 -22 l 1,14,15
 99 21 99 21 86 51 c 128,-1,16
 73 81 73 81 73 153 c 2,17,-1
 73 745 l 1,18,-1
 163 755 l 1,19,-1
 163 160 l 2,10,11
EndSplineSet
EndChar

StartChar: Ldot
Encoding: 319 319 251
Width: 458
GlyphClass: 2
Flags: W
LayerCount: 2
Fore
SplineSet
186 700 m 1,0,-1
 186 86 l 1,1,-1
 443 86 l 1,2,-1
 431 0 l 1,3,-1
 90 0 l 1,4,-1
 90 700 l 1,5,-1
 186 700 l 1,0,-1
349 443 m 0,6,7
 410 443 410 443 410 375 c 0,8,9
 410 350 410 350 393.5 332 c 128,-1,10
 377 314 377 314 342 314 c 0,11,12
 281 314 281 314 281 382 c 0,13,14
 281 407 281 407 297.5 425 c 128,-1,15
 314 443 314 443 349 443 c 0,6,7
EndSplineSet
EndChar

StartChar: ldot
Encoding: 320 320 252
Width: 340
GlyphClass: 2
Flags: W
LayerCount: 2
Fore
SplineSet
297 280 m 0,0,1
 236 280 236 280 236 348 c 0,2,3
 236 373 236 373 252.5 391 c 128,-1,4
 269 409 269 409 304 409 c 0,5,6
 365 409 365 409 365 341 c 0,7,8
 365 316 365 316 348.5 298 c 128,-1,9
 332 280 332 280 297 280 c 0,0,1
163 160 m 2,10,11
 163 111 163 111 171 85.5 c 128,-1,12
 179 60 179 60 207 31 c 1,13,-1
 140 -22 l 1,14,15
 99 21 99 21 86 51 c 128,-1,16
 73 81 73 81 73 153 c 2,17,-1
 73 745 l 1,18,-1
 163 755 l 1,19,-1
 163 160 l 2,10,11
EndSplineSet
EndChar

StartChar: Lslash
Encoding: 321 321 253
Width: 463
GlyphClass: 2
Flags: W
LayerCount: 2
Fore
SplineSet
191 700 m 1,0,-1
 191 403 l 1,1,-1
 313 461 l 1,2,-1
 313 379 l 1,3,-1
 191 322 l 1,4,-1
 191 86 l 1,5,-1
 448 86 l 1,6,-1
 436 0 l 1,7,-1
 95 0 l 1,8,-1
 95 277 l 1,9,-1
 13 239 l 1,10,-1
 13 320 l 1,11,-1
 95 358 l 1,12,-1
 95 700 l 1,13,-1
 191 700 l 1,0,-1
EndSplineSet
EndChar

StartChar: lslash
Encoding: 322 322 254
Width: 257
GlyphClass: 2
Flags: W
LayerCount: 2
Fore
SplineSet
175 160 m 2,0,1
 175 111 175 111 183 85.5 c 128,-1,2
 191 60 191 60 219 31 c 1,3,-1
 152 -22 l 1,4,5
 111 21 111 21 98 51 c 128,-1,6
 85 81 85 81 85 153 c 2,7,-1
 85 303 l 1,8,-1
 16 270 l 1,9,-1
 16 345 l 1,10,-1
 85 378 l 1,11,-1
 85 745 l 1,12,-1
 175 755 l 1,13,-1
 175 421 l 1,14,-1
 246 455 l 1,15,-1
 246 380 l 1,16,-1
 175 346 l 1,17,-1
 175 160 l 2,0,1
EndSplineSet
EndChar

StartChar: Nacute
Encoding: 323 323 255
Width: 630
GlyphClass: 2
Flags: W
LayerCount: 2
Fore
SplineSet
471 821 m 1,0,-1
 263 736 l 1,1,-1
 230 792 l 1,2,-1
 433 898 l 1,3,-1
 471 821 l 1,0,-1
540 700 m 1,4,-1
 540 0 l 1,5,-1
 439 0 l 1,6,-1
 207 474 l 1,7,-1
 174 566 l 1,8,-1
 169 563 l 1,9,-1
 186 460 l 1,10,-1
 186 0 l 1,11,-1
 90 0 l 1,12,-1
 90 700 l 1,13,-1
 192 700 l 1,14,-1
 423 214 l 1,15,-1
 457 119 l 1,16,-1
 462 122 l 1,17,-1
 444 240 l 1,18,-1
 444 700 l 1,19,-1
 540 700 l 1,4,-1
EndSplineSet
EndChar

StartChar: nacute
Encoding: 324 324 256
Width: 543
GlyphClass: 2
Flags: W
LayerCount: 2
Fore
SplineSet
306 537 m 0,0,1
 380 537 380 537 424 494.5 c 128,-1,2
 468 452 468 452 468 360 c 2,3,-1
 468 0 l 1,4,-1
 378 0 l 1,5,-1
 378 354 l 2,6,7
 378 457 378 457 275 457 c 0,8,9
 245 457 245 457 216 442.5 c 128,-1,10
 187 428 187 428 170 409 c 1,11,-1
 170 0 l 1,12,-1
 80 0 l 1,13,-1
 80 381 l 1,14,-1
 72 520 l 1,15,-1
 145 530 l 1,16,-1
 158 471 l 1,17,-1
 162 471 l 1,18,19
 180 494 180 494 216.5 515.5 c 128,-1,20
 253 537 253 537 306 537 c 0,0,1
373 750 m 1,21,-1
 426 681 l 1,22,-1
 239 564 l 1,23,-1
 197 614 l 1,24,-1
 373 750 l 1,21,-1
EndSplineSet
EndChar

StartChar: Ncommaaccent
Encoding: 325 325 257
Width: 630
GlyphClass: 2
Flags: W
LayerCount: 2
Fore
SplineSet
351 -31 m 1,0,1
 359 -89 359 -89 359 -118 c 128,-1,2
 359 -147 359 -147 340.5 -171.5 c 128,-1,3
 322 -196 322 -196 264 -247 c 1,4,-1
 227 -207 l 1,5,6
 261 -165 261 -165 269 -149.5 c 128,-1,7
 277 -134 277 -134 277 -122 c 128,-1,8
 277 -110 277 -110 267 -43 c 1,9,-1
 351 -31 l 1,0,1
540 700 m 1,10,-1
 540 0 l 1,11,-1
 439 0 l 1,12,-1
 207 474 l 1,13,-1
 174 566 l 1,14,-1
 169 563 l 1,15,-1
 186 460 l 1,16,-1
 186 0 l 1,17,-1
 90 0 l 1,18,-1
 90 700 l 1,19,-1
 192 700 l 1,20,-1
 423 214 l 1,21,-1
 457 119 l 1,22,-1
 462 122 l 1,23,-1
 444 240 l 1,24,-1
 444 700 l 1,25,-1
 540 700 l 1,10,-1
EndSplineSet
EndChar

StartChar: ncommaaccent
Encoding: 326 326 258
Width: 543
GlyphClass: 2
Flags: W
LayerCount: 2
Fore
SplineSet
306 537 m 0,0,1
 380 537 380 537 424 494.5 c 128,-1,2
 468 452 468 452 468 360 c 2,3,-1
 468 0 l 1,4,-1
 378 0 l 1,5,-1
 378 354 l 2,6,7
 378 457 378 457 275 457 c 0,8,9
 245 457 245 457 216 442.5 c 128,-1,10
 187 428 187 428 170 409 c 1,11,-1
 170 0 l 1,12,-1
 80 0 l 1,13,-1
 80 381 l 1,14,-1
 72 520 l 1,15,-1
 145 530 l 1,16,-1
 158 471 l 1,17,-1
 162 471 l 1,18,19
 180 494 180 494 216.5 515.5 c 128,-1,20
 253 537 253 537 306 537 c 0,0,1
314 -31 m 1,21,22
 322 -95 322 -95 322 -121 c 128,-1,23
 322 -147 322 -147 303.5 -171.5 c 128,-1,24
 285 -196 285 -196 227 -247 c 1,25,-1
 190 -207 l 1,26,27
 224 -165 224 -165 232 -149.5 c 128,-1,28
 240 -134 240 -134 240 -122 c 128,-1,29
 240 -110 240 -110 230 -43 c 1,30,-1
 314 -31 l 1,21,22
EndSplineSet
EndChar

StartChar: Ncaron
Encoding: 327 327 259
Width: 630
GlyphClass: 2
Flags: W
LayerCount: 2
Fore
SplineSet
468 841 m 1,0,-1
 341 735 l 1,1,-1
 289 735 l 1,2,-1
 162 841 l 1,3,-1
 200 885 l 1,4,-1
 315 808 l 1,5,-1
 430 885 l 1,6,-1
 468 841 l 1,0,-1
540 700 m 1,7,-1
 540 0 l 1,8,-1
 439 0 l 1,9,-1
 207 474 l 1,10,-1
 174 566 l 1,11,-1
 169 563 l 1,12,-1
 186 460 l 1,13,-1
 186 0 l 1,14,-1
 90 0 l 1,15,-1
 90 700 l 1,16,-1
 192 700 l 1,17,-1
 423 214 l 1,18,-1
 457 119 l 1,19,-1
 462 122 l 1,20,-1
 444 240 l 1,21,-1
 444 700 l 1,22,-1
 540 700 l 1,7,-1
EndSplineSet
EndChar

StartChar: ncaron
Encoding: 328 328 260
Width: 543
GlyphClass: 2
Flags: W
LayerCount: 2
Fore
SplineSet
306 537 m 0,0,1
 380 537 380 537 424 494.5 c 128,-1,2
 468 452 468 452 468 360 c 2,3,-1
 468 0 l 1,4,-1
 378 0 l 1,5,-1
 378 354 l 2,6,7
 378 457 378 457 275 457 c 0,8,9
 245 457 245 457 216 442.5 c 128,-1,10
 187 428 187 428 170 409 c 1,11,-1
 170 0 l 1,12,-1
 80 0 l 1,13,-1
 80 381 l 1,14,-1
 72 520 l 1,15,-1
 145 530 l 1,16,-1
 158 471 l 1,17,-1
 162 471 l 1,18,19
 180 494 180 494 216.5 515.5 c 128,-1,20
 253 537 253 537 306 537 c 0,0,1
441 687 m 1,21,-1
 316 569 l 1,22,-1
 260 569 l 1,23,-1
 135 687 l 1,24,-1
 173 733 l 1,25,-1
 288 646 l 1,26,-1
 403 733 l 1,27,-1
 441 687 l 1,21,-1
EndSplineSet
EndChar

StartChar: napostrophe
Encoding: 329 329 261
Width: 543
GlyphClass: 2
Flags: W
LayerCount: 2
Fore
SplineSet
93 749 m 1,0,1
 102 674 102 674 102 648.5 c 128,-1,2
 102 623 102 623 83 590.5 c 128,-1,3
 64 558 64 558 6 507 c 1,4,-1
 -34 548 l 1,5,6
 -1 582 -1 582 8.5 598.5 c 128,-1,7
 18 615 18 615 18 640.5 c 128,-1,8
 18 666 18 666 3 730 c 1,9,-1
 93 749 l 1,0,1
306 537 m 0,10,11
 380 537 380 537 424 494.5 c 128,-1,12
 468 452 468 452 468 360 c 2,13,-1
 468 0 l 1,14,-1
 378 0 l 1,15,-1
 378 354 l 2,16,17
 378 457 378 457 275 457 c 0,18,19
 245 457 245 457 216 442.5 c 128,-1,20
 187 428 187 428 170 409 c 1,21,-1
 170 0 l 1,22,-1
 80 0 l 1,23,-1
 80 381 l 1,24,-1
 72 520 l 1,25,-1
 145 530 l 1,26,-1
 158 471 l 1,27,-1
 162 471 l 1,28,29
 180 494 180 494 216.5 515.5 c 128,-1,30
 253 537 253 537 306 537 c 0,10,11
EndSplineSet
EndChar

StartChar: Eng
Encoding: 330 330 262
Width: 630
GlyphClass: 2
Flags: W
LayerCount: 2
Fore
SplineSet
540 700 m 1,0,-1
 540 86 l 2,1,2
 540 -23 540 -23 518 -62 c 1,3,4
 488 -112 488 -112 440 -146 c 0,5,6
 411 -166 411 -166 370 -188 c 1,7,-1
 311 -121 l 1,8,9
 374 -80 374 -80 399.5 -55 c 128,-1,10
 425 -30 425 -30 435 8 c 1,11,-1
 207 474 l 1,12,-1
 174 566 l 1,13,-1
 171 562 l 1,14,-1
 186 431 l 1,15,-1
 186 0 l 1,16,-1
 90 0 l 1,17,-1
 90 700 l 1,18,-1
 192 700 l 1,19,-1
 423 214 l 1,20,-1
 457 119 l 1,21,-1
 460 123 l 1,22,-1
 444 254 l 1,23,-1
 444 700 l 1,24,-1
 540 700 l 1,0,-1
EndSplineSet
EndChar

StartChar: eng
Encoding: 331 331 263
Width: 540
GlyphClass: 2
Flags: W
LayerCount: 2
Fore
SplineSet
306 537 m 0,0,1
 380 537 380 537 424 494.5 c 128,-1,2
 468 452 468 452 468 360 c 2,3,-1
 468 -12 l 2,4,5
 468 -91 468 -91 447.5 -125 c 128,-1,6
 427 -159 427 -159 361 -200 c 1,7,-1
 310 -146 l 1,8,9
 357 -111 357 -111 367.5 -82.5 c 128,-1,10
 378 -54 378 -54 378 31 c 2,11,-1
 378 354 l 2,12,13
 378 457 378 457 275 457 c 0,14,15
 245 457 245 457 216 442.5 c 128,-1,16
 187 428 187 428 170 409 c 1,17,-1
 170 0 l 1,18,-1
 80 0 l 1,19,-1
 80 381 l 1,20,-1
 72 520 l 1,21,-1
 145 530 l 1,22,-1
 158 471 l 1,23,-1
 162 471 l 1,24,25
 180 494 180 494 216.5 515.5 c 128,-1,26
 253 537 253 537 306 537 c 0,0,1
EndSplineSet
EndChar

StartChar: Omacron
Encoding: 332 332 264
Width: 626
GlyphClass: 2
Flags: W
LayerCount: 2
Fore
SplineSet
378 611.5 m 128,-1,1
 346 626 346 626 300.5 626 c 128,-1,2
 255 626 255 626 223.5 603.5 c 128,-1,3
 192 581 192 581 177 538 c 0,4,5
 152 465 152 465 152 342 c 0,6,7
 152 182 152 182 197 126 c 0,8,9
 238 74 238 74 323 74 c 0,10,11
 363 74 363 74 391.5 90.5 c 128,-1,12
 420 107 420 107 435.5 131.5 c 128,-1,13
 451 156 451 156 460 196 c 0,14,15
 474 258 474 258 474 333 c 128,-1,16
 474 408 474 408 471 443.5 c 128,-1,17
 468 479 468 479 457.5 515.5 c 128,-1,18
 447 552 447 552 428.5 574.5 c 128,-1,0
 410 597 410 597 378 611.5 c 128,-1,1
324 712 m 0,19,20
 576 712 576 712 576 365 c 0,21,22
 576 186 576 186 507 87 c 128,-1,23
 438 -12 438 -12 302 -12 c 0,24,25
 50 -12 50 -12 50 335 c 0,26,27
 50 514 50 514 119 613 c 128,-1,28
 188 712 188 712 324 712 c 0,19,20
191 868 m 1,29,-1
 451 868 l 1,30,-1
 451 794 l 1,31,-1
 191 794 l 1,32,-1
 191 868 l 1,29,-1
EndSplineSet
EndChar

StartChar: omacron
Encoding: 333 333 265
Width: 524
GlyphClass: 2
Flags: W
LayerCount: 2
Fore
SplineSet
134 691 m 1,0,-1
 394 691 l 1,1,-1
 394 621 l 1,2,-1
 134 621 l 1,3,-1
 134 691 l 1,0,-1
356.5 11 m 128,-1,5
 310 -12 310 -12 247.5 -12 c 128,-1,6
 185 -12 185 -12 142.5 12 c 128,-1,7
 100 36 100 36 80 80 c 0,8,9
 45 156 45 156 45 268 c 0,10,11
 45 376 45 376 95 452 c 0,12,13
 121 491 121 491 167.5 514 c 128,-1,14
 214 537 214 537 276.5 537 c 128,-1,15
 339 537 339 537 381.5 513 c 128,-1,16
 424 489 424 489 444 446 c 0,17,18
 479 369 479 369 479 257 c 0,19,20
 479 149 479 149 429 74 c 0,21,4
 403 34 403 34 356.5 11 c 128,-1,5
210 78 m 128,-1,23
 233 68 233 68 265.5 68 c 128,-1,24
 298 68 298 68 321 80 c 128,-1,25
 344 92 344 92 356 108.5 c 128,-1,26
 368 125 368 125 374 155 c 0,27,28
 383 200 383 200 383 252 c 128,-1,29
 383 304 383 304 381 328.5 c 128,-1,30
 379 353 379 353 371.5 379 c 128,-1,31
 364 405 364 405 350 421 c 0,32,33
 320 457 320 457 258 457 c 0,34,35
 226 457 226 457 203 445 c 128,-1,36
 180 433 180 433 168 416.5 c 128,-1,37
 156 400 156 400 150 370 c 0,38,39
 141 325 141 325 141 273 c 128,-1,40
 141 221 141 221 143 196.5 c 128,-1,41
 145 172 145 172 152.5 146 c 128,-1,42
 160 120 160 120 173.5 104 c 128,-1,22
 187 88 187 88 210 78 c 128,-1,23
EndSplineSet
EndChar

StartChar: Obreve
Encoding: 334 334 266
Width: 626
GlyphClass: 2
Flags: W
LayerCount: 2
Fore
SplineSet
378 611.5 m 128,-1,1
 346 626 346 626 300.5 626 c 128,-1,2
 255 626 255 626 223.5 603.5 c 128,-1,3
 192 581 192 581 177 538 c 0,4,5
 152 465 152 465 152 342 c 0,6,7
 152 182 152 182 197 126 c 0,8,9
 238 74 238 74 323 74 c 0,10,11
 363 74 363 74 391.5 90.5 c 128,-1,12
 420 107 420 107 435.5 131.5 c 128,-1,13
 451 156 451 156 460 196 c 0,14,15
 474 258 474 258 474 333 c 128,-1,16
 474 408 474 408 471 443.5 c 128,-1,17
 468 479 468 479 457.5 515.5 c 128,-1,18
 447 552 447 552 428.5 574.5 c 128,-1,0
 410 597 410 597 378 611.5 c 128,-1,1
324 712 m 0,19,20
 576 712 576 712 576 365 c 0,21,22
 576 186 576 186 507 87 c 128,-1,23
 438 -12 438 -12 302 -12 c 0,24,25
 50 -12 50 -12 50 335 c 0,26,27
 50 514 50 514 119 613 c 128,-1,28
 188 712 188 712 324 712 c 0,19,20
470 843 m 1,29,30
 413 770 413 770 319 770 c 128,-1,31
 225 770 225 770 168 843 c 1,32,-1
 208 886 l 1,33,34
 261 842 261 842 320 842 c 128,-1,35
 379 842 379 842 432 886 c 1,36,-1
 470 843 l 1,29,30
EndSplineSet
EndChar

StartChar: obreve
Encoding: 335 335 267
Width: 524
GlyphClass: 2
Flags: W
LayerCount: 2
Fore
SplineSet
415 668 m 1,0,1
 358 595 358 595 264 595 c 128,-1,2
 170 595 170 595 113 668 c 1,3,-1
 153 711 l 1,4,5
 206 667 206 667 265 667 c 128,-1,6
 324 667 324 667 377 711 c 1,7,-1
 415 668 l 1,0,1
356.5 11 m 128,-1,9
 310 -12 310 -12 247.5 -12 c 128,-1,10
 185 -12 185 -12 142.5 12 c 128,-1,11
 100 36 100 36 80 80 c 0,12,13
 45 156 45 156 45 268 c 0,14,15
 45 376 45 376 95 452 c 0,16,17
 121 491 121 491 167.5 514 c 128,-1,18
 214 537 214 537 276.5 537 c 128,-1,19
 339 537 339 537 381.5 513 c 128,-1,20
 424 489 424 489 444 446 c 0,21,22
 479 369 479 369 479 257 c 0,23,24
 479 149 479 149 429 74 c 0,25,8
 403 34 403 34 356.5 11 c 128,-1,9
210 78 m 128,-1,27
 233 68 233 68 265.5 68 c 128,-1,28
 298 68 298 68 321 80 c 128,-1,29
 344 92 344 92 356 108.5 c 128,-1,30
 368 125 368 125 374 155 c 0,31,32
 383 200 383 200 383 252 c 128,-1,33
 383 304 383 304 381 328.5 c 128,-1,34
 379 353 379 353 371.5 379 c 128,-1,35
 364 405 364 405 350 421 c 0,36,37
 320 457 320 457 258 457 c 0,38,39
 226 457 226 457 203 445 c 128,-1,40
 180 433 180 433 168 416.5 c 128,-1,41
 156 400 156 400 150 370 c 0,42,43
 141 325 141 325 141 273 c 128,-1,44
 141 221 141 221 143 196.5 c 128,-1,45
 145 172 145 172 152.5 146 c 128,-1,46
 160 120 160 120 173.5 104 c 128,-1,26
 187 88 187 88 210 78 c 128,-1,27
EndSplineSet
EndChar

StartChar: Ohungarumlaut
Encoding: 336 336 268
Width: 626
GlyphClass: 2
Flags: W
LayerCount: 2
Fore
SplineSet
351 941 m 1,0,-1
 411 880 l 1,1,-1
 237 736 l 1,2,-1
 189 779 l 1,3,-1
 351 941 l 1,0,-1
523 931 m 1,4,-1
 578 864 l 1,5,-1
 393 736 l 1,6,-1
 349 783 l 1,7,-1
 523 931 l 1,4,-1
378 611.5 m 128,-1,9
 346 626 346 626 300.5 626 c 128,-1,10
 255 626 255 626 223.5 603.5 c 128,-1,11
 192 581 192 581 177 538 c 0,12,13
 152 465 152 465 152 342 c 0,14,15
 152 182 152 182 197 126 c 0,16,17
 238 74 238 74 323 74 c 0,18,19
 363 74 363 74 391.5 90.5 c 128,-1,20
 420 107 420 107 435.5 131.5 c 128,-1,21
 451 156 451 156 460 196 c 0,22,23
 474 258 474 258 474 333 c 128,-1,24
 474 408 474 408 471 443.5 c 128,-1,25
 468 479 468 479 457.5 515.5 c 128,-1,26
 447 552 447 552 428.5 574.5 c 128,-1,8
 410 597 410 597 378 611.5 c 128,-1,9
324 712 m 0,27,28
 576 712 576 712 576 365 c 0,29,30
 576 186 576 186 507 87 c 128,-1,31
 438 -12 438 -12 302 -12 c 0,32,33
 50 -12 50 -12 50 335 c 0,34,35
 50 514 50 514 119 613 c 128,-1,36
 188 712 188 712 324 712 c 0,27,28
EndSplineSet
EndChar

StartChar: ohungarumlaut
Encoding: 337 337 269
Width: 524
GlyphClass: 2
Flags: W
LayerCount: 2
Fore
SplineSet
278 760 m 1,0,-1
 338 704 l 1,1,-1
 178 561 l 1,2,-1
 131 594 l 1,3,-1
 278 760 l 1,0,-1
451 760 m 1,4,-1
 511 704 l 1,5,-1
 351 561 l 1,6,-1
 304 594 l 1,7,-1
 451 760 l 1,4,-1
356.5 11 m 128,-1,9
 310 -12 310 -12 247.5 -12 c 128,-1,10
 185 -12 185 -12 142.5 12 c 128,-1,11
 100 36 100 36 80 80 c 0,12,13
 45 156 45 156 45 268 c 0,14,15
 45 376 45 376 95 452 c 0,16,17
 121 491 121 491 167.5 514 c 128,-1,18
 214 537 214 537 276.5 537 c 128,-1,19
 339 537 339 537 381.5 513 c 128,-1,20
 424 489 424 489 444 446 c 0,21,22
 479 369 479 369 479 257 c 0,23,24
 479 149 479 149 429 74 c 0,25,8
 403 34 403 34 356.5 11 c 128,-1,9
210 78 m 128,-1,27
 233 68 233 68 265.5 68 c 128,-1,28
 298 68 298 68 321 80 c 128,-1,29
 344 92 344 92 356 108.5 c 128,-1,30
 368 125 368 125 374 155 c 0,31,32
 383 200 383 200 383 252 c 128,-1,33
 383 304 383 304 381 328.5 c 128,-1,34
 379 353 379 353 371.5 379 c 128,-1,35
 364 405 364 405 350 421 c 0,36,37
 320 457 320 457 258 457 c 0,38,39
 226 457 226 457 203 445 c 128,-1,40
 180 433 180 433 168 416.5 c 128,-1,41
 156 400 156 400 150 370 c 0,42,43
 141 325 141 325 141 273 c 128,-1,44
 141 221 141 221 143 196.5 c 128,-1,45
 145 172 145 172 152.5 146 c 128,-1,46
 160 120 160 120 173.5 104 c 128,-1,26
 187 88 187 88 210 78 c 128,-1,27
EndSplineSet
EndChar

StartChar: OE
Encoding: 338 338 270
Width: 814
GlyphClass: 2
Flags: W
LayerCount: 2
Fore
SplineSet
501 614 m 1,0,-1
 501 399 l 1,1,-1
 740 399 l 1,2,-1
 728 315 l 1,3,-1
 501 315 l 1,4,-1
 501 86 l 1,5,-1
 789 86 l 1,6,-1
 777 0 l 1,7,-1
 375 0 l 1,8,9
 334 -12 334 -12 292 -12 c 0,10,11
 50 -12 50 -12 50 335 c 0,12,13
 50 513 50 513 117.5 612.5 c 128,-1,14
 185 712 185 712 315 712 c 0,15,16
 359 712 359 712 389 700 c 1,17,-1
 784 700 l 1,18,-1
 772 614 l 1,19,-1
 501 614 l 1,0,-1
405 601 m 1,20,21
 355 626 355 626 308.5 626 c 128,-1,22
 262 626 262 626 234.5 610 c 128,-1,23
 207 594 207 594 191.5 569 c 128,-1,24
 176 544 176 544 167 504 c 0,25,26
 152 439 152 439 152 360.5 c 128,-1,27
 152 282 152 282 158.5 238 c 128,-1,28
 165 194 165 194 182 154 c 0,29,30
 217 74 217 74 317 74 c 0,31,32
 369 74 369 74 405 97 c 1,33,-1
 405 601 l 1,20,21
EndSplineSet
EndChar

StartChar: oe
Encoding: 339 339 271
Width: 809
GlyphClass: 2
Flags: W
LayerCount: 2
Fore
SplineSet
277 537 m 0,0,1
 392 537 392 537 431 450 c 1,2,3
 479 537 479 537 597 537 c 0,4,5
 683 537 683 537 724 485 c 0,6,7
 758 443 758 443 766 344 c 0,8,9
 769 305 769 305 769 247 c 1,10,-1
 728 241 l 1,11,-1
 469 241 l 1,12,13
 469 115 469 115 536 82 c 0,14,15
 564 68 564 68 613 68 c 128,-1,16
 662 68 662 68 726 100 c 1,17,-1
 754 38 l 1,18,19
 671 -12 671 -12 587 -12 c 0,20,21
 470 -12 470 -12 421 77 c 1,22,23
 364 -12 364 -12 247 -12 c 0,24,25
 185 -12 185 -12 142.5 12 c 128,-1,26
 100 36 100 36 80 80 c 0,27,28
 45 156 45 156 45 268 c 0,29,30
 45 376 45 376 95 452 c 0,31,32
 121 491 121 491 167.5 514 c 128,-1,33
 214 537 214 537 277 537 c 0,0,1
256 457 m 0,34,35
 167 457 167 457 150 370 c 0,36,37
 141 325 141 325 141 273 c 128,-1,38
 141 221 141 221 143 196.5 c 128,-1,39
 145 172 145 172 152.5 146 c 128,-1,40
 160 120 160 120 174 104 c 0,41,42
 204 68 204 68 266 68 c 0,43,44
 298 68 298 68 321 80 c 128,-1,45
 344 92 344 92 356 108.5 c 128,-1,46
 368 125 368 125 374 155 c 0,47,48
 383 200 383 200 383 279 c 128,-1,49
 383 358 383 358 356.5 407.5 c 128,-1,50
 330 457 330 457 256 457 c 0,34,35
657 424.5 m 128,-1,52
 641 457 641 457 583.5 457 c 128,-1,53
 526 457 526 457 502 418.5 c 128,-1,54
 478 380 478 380 472 312 c 1,55,-1
 673 312 l 1,56,51
 673 392 673 392 657 424.5 c 128,-1,52
EndSplineSet
EndChar

StartChar: Racute
Encoding: 340 340 272
Width: 537
GlyphClass: 2
Flags: W
LayerCount: 2
Fore
SplineSet
90 700 m 1,0,-1
 316 700 l 2,1,2
 417 700 417 700 459 647.5 c 128,-1,3
 501 595 501 595 501 516 c 128,-1,4
 501 437 501 437 460 384 c 128,-1,5
 419 331 419 331 351 307 c 1,6,-1
 542 0 l 1,7,-1
 429 0 l 1,8,-1
 257 291 l 1,9,-1
 186 291 l 1,10,-1
 186 0 l 1,11,-1
 90 0 l 1,12,-1
 90 700 l 1,0,-1
186 625 m 1,13,-1
 186 371 l 1,14,-1
 263 371 l 2,15,16
 329 371 329 371 364 405.5 c 128,-1,17
 399 440 399 440 399 502 c 128,-1,18
 399 564 399 564 369.5 594.5 c 128,-1,19
 340 625 340 625 272 625 c 2,20,-1
 186 625 l 1,13,-1
419 898 m 1,21,-1
 457 821 l 1,22,-1
 249 736 l 1,23,-1
 216 792 l 1,24,-1
 419 898 l 1,21,-1
EndSplineSet
EndChar

StartChar: racute
Encoding: 341 341 273
Width: 365
GlyphClass: 2
Flags: W
LayerCount: 2
Fore
SplineSet
293 537 m 0,0,1
 319 537 319 537 332.5 532.5 c 128,-1,2
 346 528 346 528 355 525.5 c 128,-1,3
 364 523 364 523 366 522 c 1,4,-1
 350 432 l 1,5,6
 320 442 320 442 278.5 442 c 128,-1,7
 237 442 237 442 203.5 406.5 c 128,-1,8
 170 371 170 371 170 321 c 2,9,-1
 170 0 l 1,10,-1
 80 0 l 1,11,-1
 80 381 l 1,12,-1
 72 520 l 1,13,-1
 145 530 l 1,14,-1
 156 429 l 1,15,-1
 160 429 l 1,16,17
 177 478 177 478 211.5 507.5 c 128,-1,18
 246 537 246 537 293 537 c 0,0,1
269 750 m 1,19,-1
 322 681 l 1,20,-1
 135 564 l 1,21,-1
 93 614 l 1,22,-1
 269 750 l 1,19,-1
EndSplineSet
EndChar

StartChar: Rcommaaccent
Encoding: 342 342 274
Width: 537
GlyphClass: 2
Flags: W
LayerCount: 2
Fore
SplineSet
90 700 m 1,0,-1
 316 700 l 2,1,2
 417 700 417 700 459 647.5 c 128,-1,3
 501 595 501 595 501 516 c 128,-1,4
 501 437 501 437 460 384 c 128,-1,5
 419 331 419 331 351 307 c 1,6,-1
 542 0 l 1,7,-1
 429 0 l 1,8,-1
 257 291 l 1,9,-1
 186 291 l 1,10,-1
 186 0 l 1,11,-1
 90 0 l 1,12,-1
 90 700 l 1,0,-1
186 625 m 1,13,-1
 186 371 l 1,14,-1
 263 371 l 2,15,16
 329 371 329 371 364 405.5 c 128,-1,17
 399 440 399 440 399 502 c 128,-1,18
 399 564 399 564 369.5 594.5 c 128,-1,19
 340 625 340 625 272 625 c 2,20,-1
 186 625 l 1,13,-1
336 -31 m 1,21,22
 344 -95 344 -95 344 -121 c 128,-1,23
 344 -147 344 -147 325.5 -171.5 c 128,-1,24
 307 -196 307 -196 249 -247 c 1,25,-1
 212 -207 l 1,26,27
 246 -165 246 -165 254 -149.5 c 128,-1,28
 262 -134 262 -134 262 -122 c 128,-1,29
 262 -110 262 -110 252 -43 c 1,30,-1
 336 -31 l 1,21,22
EndSplineSet
EndChar

